%TF.GenerationSoftware,KiCad,Pcbnew,9.0.2*%
%TF.CreationDate,2025-07-03T16:11:24+02:00*%
%TF.ProjectId,Starkit,53746172-6b69-4742-9e6b-696361645f70,rev?*%
%TF.SameCoordinates,Original*%
%TF.FileFunction,Copper,L2,Bot*%
%TF.FilePolarity,Positive*%
%FSLAX46Y46*%
G04 Gerber Fmt 4.6, Leading zero omitted, Abs format (unit mm)*
G04 Created by KiCad (PCBNEW 9.0.2) date 2025-07-03 16:11:24*
%MOMM*%
%LPD*%
G01*
G04 APERTURE LIST*
%TA.AperFunction,ComponentPad*%
%ADD10R,1.700000X1.700000*%
%TD*%
%TA.AperFunction,ComponentPad*%
%ADD11C,1.700000*%
%TD*%
%TA.AperFunction,ComponentPad*%
%ADD12C,2.000000*%
%TD*%
%TA.AperFunction,ComponentPad*%
%ADD13R,2.000000X2.000000*%
%TD*%
%TA.AperFunction,ComponentPad*%
%ADD14C,1.600000*%
%TD*%
%TA.AperFunction,ComponentPad*%
%ADD15R,2.100000X2.100000*%
%TD*%
%TA.AperFunction,ComponentPad*%
%ADD16C,2.100000*%
%TD*%
%TA.AperFunction,ComponentPad*%
%ADD17R,1.560000X1.560000*%
%TD*%
%TA.AperFunction,ComponentPad*%
%ADD18C,1.560000*%
%TD*%
%TA.AperFunction,ViaPad*%
%ADD19C,0.600000*%
%TD*%
%TA.AperFunction,Conductor*%
%ADD20C,0.150000*%
%TD*%
%TA.AperFunction,Conductor*%
%ADD21C,0.850000*%
%TD*%
%TA.AperFunction,Conductor*%
%ADD22C,0.300000*%
%TD*%
%TA.AperFunction,Conductor*%
%ADD23C,0.250000*%
%TD*%
G04 APERTURE END LIST*
D10*
%TO.P,E1,1,Pin_1*%
%TO.N,GND*%
X147170000Y-116750000D03*
D11*
%TO.P,E1,2,Pin_2*%
%TO.N,+6V*%
X144630000Y-116750000D03*
%TO.P,E1,3,Pin_3*%
%TO.N,/ESC*%
X142090000Y-116750000D03*
%TD*%
D10*
%TO.P,Y2,1,Pin_1*%
%TO.N,GND*%
X161750000Y-99592000D03*
D11*
%TO.P,Y2,2,Pin_2*%
%TO.N,+6V*%
X161750000Y-97052000D03*
%TO.P,Y2,3,Pin_3*%
%TO.N,/TVC_Y-*%
X161750000Y-94512000D03*
%TD*%
D10*
%TO.P,L1,1,Pin_1*%
%TO.N,GND*%
X150500000Y-111672000D03*
D11*
%TO.P,L1,2,Pin_2*%
%TO.N,+6V*%
X150500000Y-109132000D03*
%TO.P,L1,3,Pin_3*%
%TO.N,/LEG*%
X150500000Y-106592000D03*
%TD*%
D12*
%TO.P,D1,1,RA*%
%TO.N,/LED_R*%
X174270000Y-86974000D03*
%TO.P,D1,2,GA*%
%TO.N,/LED_G*%
X171730000Y-86974000D03*
D13*
%TO.P,D1,3,BA*%
%TO.N,/LED_B*%
X169190000Y-86974000D03*
D12*
%TO.P,D1,4,K*%
%TO.N,GND*%
X176810000Y-86974000D03*
%TD*%
D13*
%TO.P,U2,1,GND*%
%TO.N,GND*%
X153460000Y-86962000D03*
D12*
%TO.P,U2,2,VCC*%
%TO.N,+5V*%
X156000000Y-86962000D03*
%TO.P,U2,3,S*%
%TO.N,/BUZZER*%
X158540000Y-86962000D03*
%TD*%
D10*
%TO.P,L2,1,Pin_1*%
%TO.N,GND*%
X154250000Y-111672000D03*
D11*
%TO.P,L2,2,Pin_2*%
%TO.N,+6V*%
X154250000Y-109132000D03*
%TO.P,L2,3,Pin_3*%
%TO.N,/LEG*%
X154250000Y-106592000D03*
%TD*%
D10*
%TO.P,Y1,1,Pin_1*%
%TO.N,GND*%
X158000000Y-99592000D03*
D11*
%TO.P,Y1,2,Pin_2*%
%TO.N,+6V*%
X158000000Y-97052000D03*
%TO.P,Y1,3,Pin_3*%
%TO.N,/TVC_Y+*%
X158000000Y-94512000D03*
%TD*%
D14*
%TO.P,R1,1*%
%TO.N,/BMS_1*%
X119630000Y-121250000D03*
%TO.P,R1,2*%
%TO.N,Net-(J5-Pin_2)*%
X127250000Y-121250000D03*
%TD*%
D10*
%TO.P,L3,1,Pin_1*%
%TO.N,GND*%
X158000000Y-111672000D03*
D11*
%TO.P,L3,2,Pin_2*%
%TO.N,+6V*%
X158000000Y-109132000D03*
%TO.P,L3,3,Pin_3*%
%TO.N,/LEG*%
X158000000Y-106592000D03*
%TD*%
D14*
%TO.P,R3,1*%
%TO.N,/BMS_2*%
X129940000Y-121200000D03*
%TO.P,R3,2*%
%TO.N,Net-(J6-Pin_2)*%
X137560000Y-121200000D03*
%TD*%
D10*
%TO.P,X2,1,Pin_1*%
%TO.N,GND*%
X154250000Y-99592000D03*
D11*
%TO.P,X2,2,Pin_2*%
%TO.N,+6V*%
X154250000Y-97052000D03*
%TO.P,X2,3,Pin_3*%
%TO.N,/TVC_X-*%
X154250000Y-94512000D03*
%TD*%
D10*
%TO.P,E2,1,Pin_1*%
%TO.N,GND*%
X147170000Y-120500000D03*
D11*
%TO.P,E2,2,Pin_2*%
%TO.N,+5V*%
X144630000Y-120500000D03*
%TO.P,E2,3,Pin_3*%
%TO.N,/ESC*%
X142090000Y-120500000D03*
%TD*%
D14*
%TO.P,R2,1*%
%TO.N,/BMS_1*%
X119630000Y-124800000D03*
%TO.P,R2,2*%
%TO.N,GND*%
X127250000Y-124800000D03*
%TD*%
D15*
%TO.P,J1,1,Pin_1*%
%TO.N,+6V*%
X131262500Y-143750000D03*
D16*
%TO.P,J1,2,Pin_2*%
%TO.N,+5V*%
X136262500Y-143750000D03*
%TD*%
D14*
%TO.P,R4,1*%
%TO.N,/BMS_2*%
X129940000Y-124750000D03*
%TO.P,R4,2*%
%TO.N,GND*%
X137560000Y-124750000D03*
%TD*%
D10*
%TO.P,X1,1,Pin_1*%
%TO.N,GND*%
X150500000Y-99592000D03*
D11*
%TO.P,X1,2,Pin_2*%
%TO.N,+6V*%
X150500000Y-97052000D03*
%TO.P,X1,3,Pin_3*%
%TO.N,/TVC_X+*%
X150500000Y-94512000D03*
%TD*%
D10*
%TO.P,L4,1,Pin_1*%
%TO.N,GND*%
X161750000Y-111672000D03*
D11*
%TO.P,L4,2,Pin_2*%
%TO.N,+6V*%
X161750000Y-109132000D03*
%TO.P,L4,3,Pin_3*%
%TO.N,/LEG*%
X161750000Y-106592000D03*
%TD*%
D17*
%TO.P,U4,J2-1,3V3*%
%TO.N,+3V3*%
X120300000Y-66240000D03*
D18*
%TO.P,U4,J2-2,EN*%
%TO.N,unconnected-(U4-EN-PadJ2-2)*%
X120300000Y-68780000D03*
%TO.P,U4,J2-3,SENSOR_VP*%
%TO.N,/BMS_1*%
X120300000Y-71320000D03*
%TO.P,U4,J2-4,SENSOR_VN*%
%TO.N,/BMS_2*%
X120300000Y-73860000D03*
%TO.P,U4,J2-5,IO34*%
%TO.N,unconnected-(U4-IO34-PadJ2-5)*%
X120300000Y-76400000D03*
%TO.P,U4,J2-6,IO35*%
%TO.N,unconnected-(U4-IO35-PadJ2-6)*%
X120300000Y-78940000D03*
%TO.P,U4,J2-7,IO32*%
%TO.N,/TVC_Y-*%
X120300000Y-81480000D03*
%TO.P,U4,J2-8,IO33*%
%TO.N,/TVC_Y+*%
X120300000Y-84020000D03*
%TO.P,U4,J2-9,IO25*%
%TO.N,/TVC_X-*%
X120300000Y-86560000D03*
%TO.P,U4,J2-10,IO26*%
%TO.N,/TVC_X+*%
X120300000Y-89100000D03*
%TO.P,U4,J2-11,IO27*%
%TO.N,/BUZZER*%
X120300000Y-91640000D03*
%TO.P,U4,J2-12,IO14*%
%TO.N,/14*%
X120300000Y-94180000D03*
%TO.P,U4,J2-13,IO12*%
%TO.N,/12*%
X120300000Y-96720000D03*
%TO.P,U4,J2-14,GND1*%
%TO.N,GND*%
X120300000Y-99260000D03*
%TO.P,U4,J2-15,IO13*%
%TO.N,/13*%
X120300000Y-101800000D03*
%TO.P,U4,J2-16,SD2*%
%TO.N,unconnected-(U4-SD2-PadJ2-16)*%
X120300000Y-104340000D03*
%TO.P,U4,J2-17,SD3*%
%TO.N,unconnected-(U4-SD3-PadJ2-17)*%
X120300000Y-106880000D03*
%TO.P,U4,J2-18,CMD*%
%TO.N,unconnected-(U4-CMD-PadJ2-18)*%
X120300000Y-109420000D03*
%TO.P,U4,J2-19,EXT_5V*%
%TO.N,+5V*%
X120300000Y-111960000D03*
%TO.P,U4,J3-1,GND3*%
%TO.N,unconnected-(U4-GND3-PadJ3-1)*%
X145700000Y-66240000D03*
%TO.P,U4,J3-2,IO23*%
%TO.N,/LED_B*%
X145700000Y-68780000D03*
%TO.P,U4,J3-3,IO22*%
%TO.N,/IMU_CLOCK*%
X145700000Y-71320000D03*
%TO.P,U4,J3-4,TXD0*%
%TO.N,unconnected-(U4-TXD0-PadJ3-4)*%
X145700000Y-73860000D03*
%TO.P,U4,J3-5,RXD0*%
%TO.N,unconnected-(U4-RXD0-PadJ3-5)*%
X145700000Y-76400000D03*
%TO.P,U4,J3-6,IO21*%
%TO.N,/IMU_DATA*%
X145700000Y-78940000D03*
%TO.P,U4,J3-7,GND2*%
%TO.N,unconnected-(U4-GND2-PadJ3-7)*%
X145700000Y-81480000D03*
%TO.P,U4,J3-8,IO19*%
%TO.N,/LED_G*%
X145700000Y-84020000D03*
%TO.P,U4,J3-9,IO18*%
%TO.N,/ESC*%
X145700000Y-86560000D03*
%TO.P,U4,J3-10,IO5*%
%TO.N,unconnected-(U4-IO5-PadJ3-10)*%
X145700000Y-89100000D03*
%TO.P,U4,J3-11,IO17*%
%TO.N,/LiDAR_CLOCK*%
X145700000Y-91640000D03*
%TO.P,U4,J3-12,IO16*%
%TO.N,/LiDAR_DATA*%
X145700000Y-94180000D03*
%TO.P,U4,J3-13,IO4*%
%TO.N,/LEG*%
X145700000Y-96720000D03*
%TO.P,U4,J3-14,IO0*%
%TO.N,unconnected-(U4-IO0-PadJ3-14)*%
X145700000Y-99260000D03*
%TO.P,U4,J3-15,IO2*%
%TO.N,/LED_R*%
X145700000Y-101800000D03*
%TO.P,U4,J3-16,IO15*%
%TO.N,/15*%
X145700000Y-104340000D03*
%TO.P,U4,J3-17,SD1*%
%TO.N,unconnected-(U4-SD1-PadJ3-17)*%
X145700000Y-106880000D03*
%TO.P,U4,J3-18,SD0*%
%TO.N,unconnected-(U4-SD0-PadJ3-18)*%
X145700000Y-109420000D03*
%TO.P,U4,J3-19,CLK*%
%TO.N,unconnected-(U4-CLK-PadJ3-19)*%
X145700000Y-111960000D03*
%TD*%
D10*
%TO.P,J6,1,Pin_1*%
%TO.N,GND*%
X127460000Y-116725000D03*
D11*
%TO.P,J6,2,Pin_2*%
%TO.N,Net-(J6-Pin_2)*%
X130000000Y-116725000D03*
%TD*%
D15*
%TO.P,J4,1,Pin_1*%
%TO.N,/14*%
X164250000Y-143750000D03*
D16*
%TO.P,J4,2,Pin_2*%
%TO.N,/15*%
X169250000Y-143750000D03*
%TD*%
D15*
%TO.P,J3,1,Pin_1*%
%TO.N,/12*%
X153250000Y-143750000D03*
D16*
%TO.P,J3,2,Pin_2*%
%TO.N,/13*%
X158250000Y-143750000D03*
%TD*%
D10*
%TO.P,J5,1,Pin_1*%
%TO.N,GND*%
X120500000Y-116725000D03*
D11*
%TO.P,J5,2,Pin_2*%
%TO.N,Net-(J5-Pin_2)*%
X123040000Y-116725000D03*
%TD*%
D13*
%TO.P,U3,1,VCC*%
%TO.N,+5V*%
X167000000Y-91250000D03*
D12*
%TO.P,U3,2,GND*%
%TO.N,GND*%
X167000000Y-93790000D03*
%TO.P,U3,3,SCL*%
%TO.N,/IMU_CLOCK*%
X167000000Y-96330000D03*
%TO.P,U3,4,SDA*%
%TO.N,/IMU_DATA*%
X167000000Y-98870000D03*
%TO.P,U3,5,EDA*%
%TO.N,unconnected-(U3-EDA-Pad5)*%
X167000000Y-101410000D03*
%TO.P,U3,6,ECL*%
%TO.N,unconnected-(U3-ECL-Pad6)*%
X167000000Y-103950000D03*
%TO.P,U3,7,ADO*%
%TO.N,unconnected-(U3-ADO-Pad7)*%
X167000000Y-106490000D03*
%TO.P,U3,8,INT*%
%TO.N,unconnected-(U3-INT-Pad8)*%
X167000000Y-109030000D03*
%TO.P,U3,9,NCS*%
%TO.N,unconnected-(U3-NCS-Pad9)*%
X167000000Y-111570000D03*
%TO.P,U3,10,FSYNC*%
%TO.N,unconnected-(U3-FSYNC-Pad10)*%
X167000000Y-114110000D03*
%TD*%
D15*
%TO.P,J2,1,Pin_1*%
%TO.N,+3V3*%
X142250000Y-143750000D03*
D16*
%TO.P,J2,2,Pin_2*%
%TO.N,GND*%
X147250000Y-143750000D03*
%TD*%
D10*
%TO.P,J11,1,Pin_1*%
%TO.N,+5V*%
X166960000Y-118500000D03*
D11*
%TO.P,J11,2,Pin_2*%
%TO.N,/LiDAR_DATA*%
X169500000Y-118500000D03*
%TO.P,J11,3,Pin_3*%
%TO.N,/LiDAR_CLOCK*%
X172040000Y-118500000D03*
%TO.P,J11,4,Pin_4*%
%TO.N,GND*%
X174580000Y-118500000D03*
%TO.P,J11,5,Pin_5*%
X177120000Y-118500000D03*
%TO.P,J11,6,Pin_6*%
%TO.N,unconnected-(J11-Pin_6-Pad6)*%
X179660000Y-118500000D03*
%TD*%
D19*
%TO.N,/ESC*%
X142710000Y-86560000D03*
%TO.N,GND*%
X127500000Y-109500000D03*
%TO.N,+3V3*%
X133250000Y-79250000D03*
X133250000Y-111000000D03*
%TD*%
D20*
%TO.N,/IMU_CLOCK*%
X145700000Y-71320000D02*
X164750000Y-90370000D01*
X167000000Y-96330000D02*
X164750000Y-94080000D01*
X164750000Y-90370000D02*
X164750000Y-92000000D01*
X164750000Y-94080000D02*
X164750000Y-92000000D01*
%TO.N,/TVC_X-*%
X152000000Y-90500000D02*
X149250000Y-90500000D01*
X154250000Y-92750000D02*
X152000000Y-90500000D01*
X149250000Y-90500000D02*
X146500000Y-87750000D01*
X121490000Y-87750000D02*
X120300000Y-86560000D01*
X146500000Y-87750000D02*
X121490000Y-87750000D01*
X154250000Y-94512000D02*
X154250000Y-92750000D01*
%TO.N,/ESC*%
X145700000Y-86560000D02*
X142710000Y-86560000D01*
%TO.N,GND*%
X139750000Y-114000000D02*
X139750000Y-116500000D01*
X141500000Y-118250000D02*
X145670000Y-118250000D01*
X139750000Y-112750000D02*
X136500000Y-109500000D01*
X139750000Y-116500000D02*
X141500000Y-118250000D01*
D21*
X147250000Y-143750000D02*
X147250000Y-120580000D01*
D20*
X160000000Y-114000000D02*
X166000000Y-120000000D01*
X139750000Y-114000000D02*
X160000000Y-114000000D01*
X173080000Y-120000000D02*
X174580000Y-118500000D01*
X139750000Y-114000000D02*
X139750000Y-112750000D01*
D22*
X147170000Y-116750000D02*
X147170000Y-116830000D01*
D20*
X136500000Y-109500000D02*
X127500000Y-109500000D01*
X145670000Y-118250000D02*
X147170000Y-116750000D01*
X136500000Y-109500000D02*
X126260000Y-99260000D01*
X126260000Y-99260000D02*
X120300000Y-99260000D01*
X166000000Y-120000000D02*
X173080000Y-120000000D01*
D21*
X147250000Y-120580000D02*
X147170000Y-120500000D01*
D20*
%TO.N,/LEG*%
X148000000Y-99020000D02*
X148000000Y-104092000D01*
X148000000Y-104092000D02*
X150500000Y-106592000D01*
X145700000Y-96720000D02*
X148000000Y-99020000D01*
%TO.N,+5V*%
X139250000Y-118000000D02*
X139250000Y-113000000D01*
D21*
X136262500Y-143750000D02*
X136262500Y-128867500D01*
D20*
X143130000Y-119000000D02*
X140250000Y-119000000D01*
X166960000Y-118500000D02*
X168500000Y-116960000D01*
X122010000Y-110250000D02*
X120300000Y-111960000D01*
X136500000Y-110250000D02*
X122010000Y-110250000D01*
D21*
X136262500Y-128867500D02*
X144630000Y-120500000D01*
D20*
X139250000Y-113000000D02*
X136500000Y-110250000D01*
X168500000Y-116960000D02*
X168500000Y-92750000D01*
X144630000Y-120500000D02*
X143130000Y-119000000D01*
X140250000Y-119000000D02*
X139250000Y-118000000D01*
X168500000Y-92750000D02*
X167000000Y-91250000D01*
%TO.N,/BMS_1*%
X119630000Y-121250000D02*
X118065000Y-119685000D01*
X117815000Y-119435000D02*
X118065000Y-119685000D01*
X120300000Y-71320000D02*
X117815000Y-73805000D01*
X117815000Y-73805000D02*
X117815000Y-119435000D01*
%TO.N,/TVC_Y-*%
X153250000Y-89500000D02*
X146500000Y-82750000D01*
X146500000Y-82750000D02*
X121570000Y-82750000D01*
X161750000Y-92750000D02*
X158500000Y-89500000D01*
X158500000Y-89500000D02*
X153250000Y-89500000D01*
X161750000Y-94512000D02*
X161750000Y-92750000D01*
X121570000Y-82750000D02*
X120300000Y-81480000D01*
%TO.N,/IMU_DATA*%
X150556859Y-79890000D02*
X150676859Y-79890000D01*
X164000000Y-95870000D02*
X167000000Y-98870000D01*
X164000000Y-90250000D02*
X164000000Y-95870000D01*
X150316859Y-79180000D02*
X150316859Y-79650000D01*
X150916859Y-79650000D02*
X150916859Y-79180000D01*
X152690000Y-78940000D02*
X164000000Y-90250000D01*
X151607605Y-78940000D02*
X152690000Y-78940000D01*
X151276859Y-78940000D02*
X151607605Y-78940000D01*
X145700000Y-78940000D02*
X150076859Y-78940000D01*
X151156859Y-78940000D02*
X151276859Y-78940000D01*
X150076859Y-78940000D02*
G75*
G02*
X150316900Y-79180000I41J-240000D01*
G01*
X150916859Y-79180000D02*
G75*
G02*
X151156859Y-78939959I240041J0D01*
G01*
X150676859Y-79890000D02*
G75*
G03*
X150916900Y-79650000I41J240000D01*
G01*
X150316859Y-79650000D02*
G75*
G03*
X150556859Y-79890041I240041J0D01*
G01*
%TO.N,/TVC_Y+*%
X158000000Y-94512000D02*
X158000000Y-92750000D01*
X151250000Y-90000000D02*
X146500000Y-85250000D01*
X121530000Y-85250000D02*
X120300000Y-84020000D01*
X146500000Y-85250000D02*
X121530000Y-85250000D01*
X158000000Y-92750000D02*
X155250000Y-90000000D01*
X155250000Y-90000000D02*
X151250000Y-90000000D01*
%TO.N,/BMS_2*%
X127740000Y-119000000D02*
X119500000Y-119000000D01*
X118250000Y-75910000D02*
X120300000Y-73860000D01*
X118250000Y-117750000D02*
X118250000Y-75910000D01*
X129940000Y-121200000D02*
X127740000Y-119000000D01*
X119500000Y-119000000D02*
X118250000Y-117750000D01*
D23*
%TO.N,+3V3*%
X133750000Y-144250000D02*
X133250000Y-143750000D01*
X142250000Y-143750000D02*
X140750000Y-145250000D01*
X120300000Y-66240000D02*
X133250000Y-79190000D01*
X133250000Y-79190000D02*
X133250000Y-79250000D01*
X133250000Y-143750000D02*
X133250000Y-111000000D01*
X140750000Y-145250000D02*
X134750000Y-145250000D01*
X134750000Y-145250000D02*
X133750000Y-144250000D01*
D20*
%TO.N,/TVC_X+*%
X148000000Y-90250000D02*
X121450000Y-90250000D01*
X121450000Y-90250000D02*
X120300000Y-89100000D01*
X150500000Y-92750000D02*
X148000000Y-90250000D01*
X150500000Y-94512000D02*
X150500000Y-92750000D01*
%TO.N,/LED_B*%
X163894000Y-86974000D02*
X145700000Y-68780000D01*
X169190000Y-86974000D02*
X163894000Y-86974000D01*
%TO.N,/BUZZER*%
X151828000Y-80250000D02*
X119500000Y-80250000D01*
X119000000Y-90340000D02*
X120300000Y-91640000D01*
X158540000Y-86962000D02*
X151828000Y-80250000D01*
X119500000Y-80250000D02*
X119000000Y-80750000D01*
X119000000Y-80750000D02*
X119000000Y-90340000D01*
D21*
%TO.N,+6V*%
X133762500Y-146250000D02*
X147500000Y-146250000D01*
X144630000Y-115547919D02*
X144630000Y-116750000D01*
X148500000Y-114750000D02*
X145427919Y-114750000D01*
X145427919Y-114750000D02*
X144630000Y-115547919D01*
X131262500Y-143750000D02*
X133762500Y-146250000D01*
X150000000Y-116250000D02*
X148500000Y-114750000D01*
X150000000Y-143750000D02*
X150000000Y-116250000D01*
X147500000Y-146250000D02*
X150000000Y-143750000D01*
%TD*%
%TA.AperFunction,Conductor*%
%TO.N,GND*%
G36*
X182242539Y-35970185D02*
G01*
X182288294Y-36022989D01*
X182299500Y-36074500D01*
X182299500Y-147925500D01*
X182279815Y-147992539D01*
X182227011Y-148038294D01*
X182175500Y-148049500D01*
X117824500Y-148049500D01*
X117757461Y-148029815D01*
X117711706Y-147977011D01*
X117700500Y-147925500D01*
X117700500Y-144345528D01*
X118249500Y-144345528D01*
X118249500Y-144654471D01*
X118284086Y-144961437D01*
X118284089Y-144961455D01*
X118352831Y-145262635D01*
X118352835Y-145262647D01*
X118454862Y-145554222D01*
X118454868Y-145554236D01*
X118588903Y-145832562D01*
X118588905Y-145832565D01*
X118753265Y-146094143D01*
X118945880Y-146335674D01*
X119164326Y-146554120D01*
X119405857Y-146746735D01*
X119667435Y-146911095D01*
X119945771Y-147045135D01*
X119945777Y-147045137D01*
X120237352Y-147147164D01*
X120237364Y-147147168D01*
X120538548Y-147215911D01*
X120538554Y-147215911D01*
X120538562Y-147215913D01*
X120743206Y-147238970D01*
X120845529Y-147250499D01*
X120845532Y-147250500D01*
X120845535Y-147250500D01*
X121154468Y-147250500D01*
X121154469Y-147250499D01*
X121311356Y-147232822D01*
X121461437Y-147215913D01*
X121461442Y-147215912D01*
X121461452Y-147215911D01*
X121762636Y-147147168D01*
X122054229Y-147045135D01*
X122332565Y-146911095D01*
X122594143Y-146746735D01*
X122835674Y-146554120D01*
X123054120Y-146335674D01*
X123246735Y-146094143D01*
X123411095Y-145832565D01*
X123545135Y-145554229D01*
X123647168Y-145262636D01*
X123715911Y-144961452D01*
X123750500Y-144654465D01*
X123750500Y-144345535D01*
X123733677Y-144196224D01*
X123715913Y-144038562D01*
X123715910Y-144038544D01*
X123670857Y-143841155D01*
X123647168Y-143737364D01*
X123545135Y-143445771D01*
X123411095Y-143167435D01*
X123246735Y-142905857D01*
X123054120Y-142664326D01*
X122835674Y-142445880D01*
X122808642Y-142424323D01*
X122705982Y-142342454D01*
X122594143Y-142253265D01*
X122332565Y-142088905D01*
X122332562Y-142088903D01*
X122054236Y-141954868D01*
X122054222Y-141954862D01*
X121762647Y-141852835D01*
X121762635Y-141852831D01*
X121461455Y-141784089D01*
X121461437Y-141784086D01*
X121154471Y-141749500D01*
X121154465Y-141749500D01*
X120845535Y-141749500D01*
X120845528Y-141749500D01*
X120538562Y-141784086D01*
X120538544Y-141784089D01*
X120237364Y-141852831D01*
X120237352Y-141852835D01*
X119945777Y-141954862D01*
X119945763Y-141954868D01*
X119667437Y-142088903D01*
X119405858Y-142253264D01*
X119164326Y-142445879D01*
X118945879Y-142664326D01*
X118753264Y-142905858D01*
X118588903Y-143167437D01*
X118454868Y-143445763D01*
X118454862Y-143445777D01*
X118352835Y-143737352D01*
X118352831Y-143737364D01*
X118284089Y-144038544D01*
X118284086Y-144038562D01*
X118249500Y-144345528D01*
X117700500Y-144345528D01*
X117700500Y-124697648D01*
X118329500Y-124697648D01*
X118329500Y-124902352D01*
X118333369Y-124926777D01*
X118361522Y-125104534D01*
X118424781Y-125299223D01*
X118488691Y-125424653D01*
X118517585Y-125481359D01*
X118517715Y-125481613D01*
X118638028Y-125647213D01*
X118782786Y-125791971D01*
X118878981Y-125861859D01*
X118948390Y-125912287D01*
X119032647Y-125955218D01*
X119130776Y-126005218D01*
X119130778Y-126005218D01*
X119130781Y-126005220D01*
X119235137Y-126039127D01*
X119325465Y-126068477D01*
X119426557Y-126084488D01*
X119527648Y-126100500D01*
X119527649Y-126100500D01*
X119732351Y-126100500D01*
X119732352Y-126100500D01*
X119934534Y-126068477D01*
X120129219Y-126005220D01*
X120311610Y-125912287D01*
X120404590Y-125844732D01*
X120477213Y-125791971D01*
X120477215Y-125791968D01*
X120477219Y-125791966D01*
X120621966Y-125647219D01*
X120621968Y-125647215D01*
X120621971Y-125647213D01*
X120674732Y-125574590D01*
X120742287Y-125481610D01*
X120835220Y-125299219D01*
X120898477Y-125104534D01*
X120930500Y-124902352D01*
X120930500Y-124697682D01*
X125950000Y-124697682D01*
X125950000Y-124902317D01*
X125982009Y-125104417D01*
X126045244Y-125299031D01*
X126138141Y-125481350D01*
X126138147Y-125481359D01*
X126170523Y-125525921D01*
X126170524Y-125525922D01*
X126850000Y-124846446D01*
X126850000Y-124852661D01*
X126877259Y-124954394D01*
X126929920Y-125045606D01*
X127004394Y-125120080D01*
X127095606Y-125172741D01*
X127197339Y-125200000D01*
X127203553Y-125200000D01*
X126524076Y-125879474D01*
X126568650Y-125911859D01*
X126750968Y-126004755D01*
X126945582Y-126067990D01*
X127147683Y-126100000D01*
X127352317Y-126100000D01*
X127554417Y-126067990D01*
X127749031Y-126004755D01*
X127931349Y-125911859D01*
X127975921Y-125879474D01*
X127296447Y-125200000D01*
X127302661Y-125200000D01*
X127404394Y-125172741D01*
X127495606Y-125120080D01*
X127570080Y-125045606D01*
X127622741Y-124954394D01*
X127650000Y-124852661D01*
X127650000Y-124846447D01*
X128329474Y-125525921D01*
X128361859Y-125481349D01*
X128454755Y-125299029D01*
X128484929Y-125206166D01*
X128524366Y-125148490D01*
X128588725Y-125121292D01*
X128657571Y-125133207D01*
X128709047Y-125180451D01*
X128720791Y-125206165D01*
X128734781Y-125249222D01*
X128760256Y-125299219D01*
X128827585Y-125431359D01*
X128827715Y-125431613D01*
X128948028Y-125597213D01*
X129092786Y-125741971D01*
X129213226Y-125829474D01*
X129258390Y-125862287D01*
X129374607Y-125921503D01*
X129440776Y-125955218D01*
X129440778Y-125955218D01*
X129440781Y-125955220D01*
X129545137Y-125989127D01*
X129635465Y-126018477D01*
X129736557Y-126034488D01*
X129837648Y-126050500D01*
X129837649Y-126050500D01*
X130042351Y-126050500D01*
X130042352Y-126050500D01*
X130244534Y-126018477D01*
X130439219Y-125955220D01*
X130621610Y-125862287D01*
X130714590Y-125794732D01*
X130787213Y-125741971D01*
X130787215Y-125741968D01*
X130787219Y-125741966D01*
X130931966Y-125597219D01*
X130931968Y-125597215D01*
X130931971Y-125597213D01*
X131015960Y-125481610D01*
X131052287Y-125431610D01*
X131145220Y-125249219D01*
X131208477Y-125054534D01*
X131240500Y-124852352D01*
X131240500Y-124647648D01*
X131225730Y-124554394D01*
X131208477Y-124445465D01*
X131161464Y-124300776D01*
X131145220Y-124250781D01*
X131145218Y-124250778D01*
X131145218Y-124250776D01*
X131111503Y-124184607D01*
X131052287Y-124068390D01*
X131020092Y-124024077D01*
X130931971Y-123902786D01*
X130787213Y-123758028D01*
X130621613Y-123637715D01*
X130621612Y-123637714D01*
X130621610Y-123637713D01*
X130538260Y-123595244D01*
X130439223Y-123544781D01*
X130244534Y-123481522D01*
X130069995Y-123453878D01*
X130042352Y-123449500D01*
X129837648Y-123449500D01*
X129813329Y-123453351D01*
X129635465Y-123481522D01*
X129440776Y-123544781D01*
X129258386Y-123637715D01*
X129092786Y-123758028D01*
X128948028Y-123902786D01*
X128827715Y-124068386D01*
X128734781Y-124250776D01*
X128704545Y-124343834D01*
X128665107Y-124401509D01*
X128600748Y-124428707D01*
X128531902Y-124416792D01*
X128480426Y-124369547D01*
X128468683Y-124343834D01*
X128454755Y-124300968D01*
X128361859Y-124118650D01*
X128329474Y-124074077D01*
X128329474Y-124074076D01*
X127650000Y-124753551D01*
X127650000Y-124747339D01*
X127622741Y-124645606D01*
X127570080Y-124554394D01*
X127495606Y-124479920D01*
X127404394Y-124427259D01*
X127302661Y-124400000D01*
X127296446Y-124400000D01*
X127975922Y-123720524D01*
X127975921Y-123720523D01*
X127931359Y-123688147D01*
X127931350Y-123688141D01*
X127749031Y-123595244D01*
X127554417Y-123532009D01*
X127352317Y-123500000D01*
X127147683Y-123500000D01*
X126945582Y-123532009D01*
X126750968Y-123595244D01*
X126568644Y-123688143D01*
X126524077Y-123720523D01*
X126524077Y-123720524D01*
X127203554Y-124400000D01*
X127197339Y-124400000D01*
X127095606Y-124427259D01*
X127004394Y-124479920D01*
X126929920Y-124554394D01*
X126877259Y-124645606D01*
X126850000Y-124747339D01*
X126850000Y-124753553D01*
X126170524Y-124074077D01*
X126170523Y-124074077D01*
X126138143Y-124118644D01*
X126045244Y-124300968D01*
X125982009Y-124495582D01*
X125950000Y-124697682D01*
X120930500Y-124697682D01*
X120930500Y-124697648D01*
X120914338Y-124595606D01*
X120898477Y-124495465D01*
X120849209Y-124343834D01*
X120835220Y-124300781D01*
X120835218Y-124300778D01*
X120835218Y-124300776D01*
X120742419Y-124118650D01*
X120742287Y-124118390D01*
X120710092Y-124074077D01*
X120621971Y-123952786D01*
X120477213Y-123808028D01*
X120311613Y-123687715D01*
X120311612Y-123687714D01*
X120311610Y-123687713D01*
X120254653Y-123658691D01*
X120129223Y-123594781D01*
X119934534Y-123531522D01*
X119759995Y-123503878D01*
X119732352Y-123499500D01*
X119527648Y-123499500D01*
X119503329Y-123503351D01*
X119325465Y-123531522D01*
X119130776Y-123594781D01*
X118948386Y-123687715D01*
X118782786Y-123808028D01*
X118638028Y-123952786D01*
X118517715Y-124118386D01*
X118424781Y-124300776D01*
X118361522Y-124495465D01*
X118337419Y-124647648D01*
X118329500Y-124697648D01*
X117700500Y-124697648D01*
X117700500Y-120433741D01*
X117720185Y-120366702D01*
X117772989Y-120320947D01*
X117842147Y-120311003D01*
X117905703Y-120340028D01*
X117912181Y-120346060D01*
X118344592Y-120778471D01*
X118378077Y-120839794D01*
X118374843Y-120904468D01*
X118361522Y-120945466D01*
X118329500Y-121147648D01*
X118329500Y-121352351D01*
X118361522Y-121554534D01*
X118424781Y-121749223D01*
X118517715Y-121931613D01*
X118638028Y-122097213D01*
X118782786Y-122241971D01*
X118879566Y-122312284D01*
X118948390Y-122362287D01*
X119032647Y-122405218D01*
X119130776Y-122455218D01*
X119130778Y-122455218D01*
X119130781Y-122455220D01*
X119235137Y-122489127D01*
X119325465Y-122518477D01*
X119426557Y-122534488D01*
X119527648Y-122550500D01*
X119527649Y-122550500D01*
X119732351Y-122550500D01*
X119732352Y-122550500D01*
X119934534Y-122518477D01*
X120129219Y-122455220D01*
X120311610Y-122362287D01*
X120404590Y-122294732D01*
X120477213Y-122241971D01*
X120477215Y-122241968D01*
X120477219Y-122241966D01*
X120621966Y-122097219D01*
X120621968Y-122097215D01*
X120621971Y-122097213D01*
X120704371Y-121983797D01*
X120742287Y-121931610D01*
X120835220Y-121749219D01*
X120898477Y-121554534D01*
X120930500Y-121352352D01*
X120930500Y-121147648D01*
X120910031Y-121018412D01*
X120898477Y-120945465D01*
X120856490Y-120816243D01*
X120835220Y-120750781D01*
X120835218Y-120750778D01*
X120835218Y-120750776D01*
X120801503Y-120684607D01*
X120742287Y-120568390D01*
X120734556Y-120557749D01*
X120621971Y-120402786D01*
X120477213Y-120258028D01*
X120311613Y-120137715D01*
X120311612Y-120137714D01*
X120311610Y-120137713D01*
X120213480Y-120087713D01*
X120129223Y-120044781D01*
X119934534Y-119981522D01*
X119759995Y-119953878D01*
X119732352Y-119949500D01*
X119527648Y-119949500D01*
X119500004Y-119953878D01*
X119325466Y-119981522D01*
X119284468Y-119994843D01*
X119214626Y-119996837D01*
X119158471Y-119964592D01*
X118814087Y-119620208D01*
X118426819Y-119232939D01*
X118412115Y-119206011D01*
X118395523Y-119180193D01*
X118394631Y-119173992D01*
X118393334Y-119171616D01*
X118390500Y-119145258D01*
X118390500Y-119003742D01*
X118410185Y-118936703D01*
X118462989Y-118890948D01*
X118532147Y-118881004D01*
X118595703Y-118910029D01*
X118602181Y-118916061D01*
X119146635Y-119460515D01*
X119277865Y-119536281D01*
X119424234Y-119575500D01*
X119575767Y-119575500D01*
X127450258Y-119575500D01*
X127517297Y-119595185D01*
X127537939Y-119611819D01*
X127712377Y-119786257D01*
X127745862Y-119847580D01*
X127740878Y-119917272D01*
X127699006Y-119973205D01*
X127633542Y-119997622D01*
X127586378Y-119991869D01*
X127554537Y-119981523D01*
X127402897Y-119957505D01*
X127352352Y-119949500D01*
X127147648Y-119949500D01*
X127123329Y-119953351D01*
X126945465Y-119981522D01*
X126750776Y-120044781D01*
X126568386Y-120137715D01*
X126402786Y-120258028D01*
X126258028Y-120402786D01*
X126137715Y-120568386D01*
X126044781Y-120750776D01*
X125981522Y-120945465D01*
X125949500Y-121147648D01*
X125949500Y-121352351D01*
X125981522Y-121554534D01*
X126044781Y-121749223D01*
X126137715Y-121931613D01*
X126258028Y-122097213D01*
X126402786Y-122241971D01*
X126499566Y-122312284D01*
X126568390Y-122362287D01*
X126652647Y-122405218D01*
X126750776Y-122455218D01*
X126750778Y-122455218D01*
X126750781Y-122455220D01*
X126855137Y-122489127D01*
X126945465Y-122518477D01*
X127046557Y-122534488D01*
X127147648Y-122550500D01*
X127147649Y-122550500D01*
X127352351Y-122550500D01*
X127352352Y-122550500D01*
X127554534Y-122518477D01*
X127749219Y-122455220D01*
X127931610Y-122362287D01*
X128024590Y-122294732D01*
X128097213Y-122241971D01*
X128097215Y-122241968D01*
X128097219Y-122241966D01*
X128241966Y-122097219D01*
X128241968Y-122097215D01*
X128241971Y-122097213D01*
X128324371Y-121983797D01*
X128362287Y-121931610D01*
X128455220Y-121749219D01*
X128485192Y-121656973D01*
X128524630Y-121599298D01*
X128588988Y-121572100D01*
X128657835Y-121584015D01*
X128709310Y-121631259D01*
X128721053Y-121656972D01*
X128734780Y-121699219D01*
X128811606Y-121849999D01*
X128827715Y-121881613D01*
X128948028Y-122047213D01*
X129092786Y-122191971D01*
X129247749Y-122304556D01*
X129258390Y-122312287D01*
X129374607Y-122371503D01*
X129440776Y-122405218D01*
X129440778Y-122405218D01*
X129440781Y-122405220D01*
X129545137Y-122439127D01*
X129635465Y-122468477D01*
X129736557Y-122484488D01*
X129837648Y-122500500D01*
X129837649Y-122500500D01*
X130042351Y-122500500D01*
X130042352Y-122500500D01*
X130244534Y-122468477D01*
X130439219Y-122405220D01*
X130621610Y-122312287D01*
X130714590Y-122244732D01*
X130787213Y-122191971D01*
X130787215Y-122191968D01*
X130787219Y-122191966D01*
X130931966Y-122047219D01*
X130931968Y-122047215D01*
X130931971Y-122047213D01*
X131015960Y-121931610D01*
X131052287Y-121881610D01*
X131145220Y-121699219D01*
X131208477Y-121504534D01*
X131240500Y-121302352D01*
X131240500Y-121097648D01*
X131208477Y-120895466D01*
X131145220Y-120700781D01*
X131145218Y-120700778D01*
X131145218Y-120700776D01*
X131077761Y-120568386D01*
X131052287Y-120518390D01*
X131044556Y-120507749D01*
X130931971Y-120352786D01*
X130787213Y-120208028D01*
X130621613Y-120087715D01*
X130621612Y-120087714D01*
X130621610Y-120087713D01*
X130564653Y-120058691D01*
X130439223Y-119994781D01*
X130244534Y-119931522D01*
X130069995Y-119903878D01*
X130042352Y-119899500D01*
X129837648Y-119899500D01*
X129770254Y-119910174D01*
X129635464Y-119931523D01*
X129635457Y-119931524D01*
X129594470Y-119944842D01*
X129524629Y-119946837D01*
X129468472Y-119914592D01*
X128093367Y-118539487D01*
X128093365Y-118539485D01*
X128024974Y-118499999D01*
X127962136Y-118463719D01*
X127851870Y-118434174D01*
X127815766Y-118424500D01*
X127815765Y-118424500D01*
X119789742Y-118424500D01*
X119760301Y-118415855D01*
X119730315Y-118409332D01*
X119725299Y-118405577D01*
X119722703Y-118404815D01*
X119702061Y-118388181D01*
X119600561Y-118286681D01*
X119567076Y-118225358D01*
X119572060Y-118155666D01*
X119613932Y-118099733D01*
X119679396Y-118075316D01*
X119688242Y-118075000D01*
X120250000Y-118075000D01*
X120250000Y-117158012D01*
X120307007Y-117190925D01*
X120434174Y-117225000D01*
X120565826Y-117225000D01*
X120692993Y-117190925D01*
X120750000Y-117158012D01*
X120750000Y-118075000D01*
X121397828Y-118075000D01*
X121397844Y-118074999D01*
X121457372Y-118068598D01*
X121457379Y-118068596D01*
X121592086Y-118018354D01*
X121592093Y-118018350D01*
X121707187Y-117932190D01*
X121707190Y-117932187D01*
X121793350Y-117817093D01*
X121793354Y-117817086D01*
X121842422Y-117685529D01*
X121884293Y-117629595D01*
X121949757Y-117605178D01*
X122018030Y-117620030D01*
X122046285Y-117641181D01*
X122160213Y-117755109D01*
X122332179Y-117880048D01*
X122332181Y-117880049D01*
X122332184Y-117880051D01*
X122521588Y-117976557D01*
X122723757Y-118042246D01*
X122933713Y-118075500D01*
X122933714Y-118075500D01*
X123146286Y-118075500D01*
X123146287Y-118075500D01*
X123356243Y-118042246D01*
X123558412Y-117976557D01*
X123747816Y-117880051D01*
X123834471Y-117817093D01*
X123919786Y-117755109D01*
X123919788Y-117755106D01*
X123919792Y-117755104D01*
X124070104Y-117604792D01*
X124070106Y-117604788D01*
X124070109Y-117604786D01*
X124195048Y-117432820D01*
X124195047Y-117432820D01*
X124195051Y-117432816D01*
X124291557Y-117243412D01*
X124357246Y-117041243D01*
X124390500Y-116831287D01*
X124390500Y-116618713D01*
X124357246Y-116408757D01*
X124291557Y-116206588D01*
X124195051Y-116017184D01*
X124195049Y-116017181D01*
X124195048Y-116017179D01*
X124107542Y-115896736D01*
X124070109Y-115845214D01*
X124070105Y-115845209D01*
X124052051Y-115827155D01*
X126110000Y-115827155D01*
X126110000Y-116475000D01*
X127026988Y-116475000D01*
X126994075Y-116532007D01*
X126960000Y-116659174D01*
X126960000Y-116790826D01*
X126994075Y-116917993D01*
X127026988Y-116975000D01*
X126110000Y-116975000D01*
X126110000Y-117622844D01*
X126116401Y-117682372D01*
X126116403Y-117682379D01*
X126166645Y-117817086D01*
X126166649Y-117817093D01*
X126252809Y-117932187D01*
X126252812Y-117932190D01*
X126367906Y-118018350D01*
X126367913Y-118018354D01*
X126502620Y-118068596D01*
X126502627Y-118068598D01*
X126562155Y-118074999D01*
X126562172Y-118075000D01*
X127210000Y-118075000D01*
X127210000Y-117158012D01*
X127267007Y-117190925D01*
X127394174Y-117225000D01*
X127525826Y-117225000D01*
X127652993Y-117190925D01*
X127710000Y-117158012D01*
X127710000Y-118075000D01*
X128357828Y-118075000D01*
X128357844Y-118074999D01*
X128417372Y-118068598D01*
X128417379Y-118068596D01*
X128552086Y-118018354D01*
X128552093Y-118018350D01*
X128667187Y-117932190D01*
X128667190Y-117932187D01*
X128753350Y-117817093D01*
X128753354Y-117817086D01*
X128802422Y-117685529D01*
X128844293Y-117629595D01*
X128909757Y-117605178D01*
X128978030Y-117620030D01*
X129006285Y-117641181D01*
X129120213Y-117755109D01*
X129292179Y-117880048D01*
X129292181Y-117880049D01*
X129292184Y-117880051D01*
X129481588Y-117976557D01*
X129683757Y-118042246D01*
X129893713Y-118075500D01*
X129893714Y-118075500D01*
X130106286Y-118075500D01*
X130106287Y-118075500D01*
X130316243Y-118042246D01*
X130518412Y-117976557D01*
X130707816Y-117880051D01*
X130794471Y-117817093D01*
X130879786Y-117755109D01*
X130879788Y-117755106D01*
X130879792Y-117755104D01*
X131030104Y-117604792D01*
X131030106Y-117604788D01*
X131030109Y-117604786D01*
X131155048Y-117432820D01*
X131155047Y-117432820D01*
X131155051Y-117432816D01*
X131251557Y-117243412D01*
X131317246Y-117041243D01*
X131350500Y-116831287D01*
X131350500Y-116618713D01*
X131317246Y-116408757D01*
X131251557Y-116206588D01*
X131155051Y-116017184D01*
X131155049Y-116017181D01*
X131155048Y-116017179D01*
X131030109Y-115845213D01*
X130879786Y-115694890D01*
X130707820Y-115569951D01*
X130518414Y-115473444D01*
X130518413Y-115473443D01*
X130518412Y-115473443D01*
X130316243Y-115407754D01*
X130316241Y-115407753D01*
X130316240Y-115407753D01*
X130154957Y-115382208D01*
X130106287Y-115374500D01*
X129893713Y-115374500D01*
X129845042Y-115382208D01*
X129683760Y-115407753D01*
X129481585Y-115473444D01*
X129292179Y-115569951D01*
X129120215Y-115694889D01*
X129006285Y-115808819D01*
X128944962Y-115842303D01*
X128875270Y-115837319D01*
X128819337Y-115795447D01*
X128802422Y-115764470D01*
X128753354Y-115632913D01*
X128753350Y-115632906D01*
X128667190Y-115517812D01*
X128667187Y-115517809D01*
X128552093Y-115431649D01*
X128552086Y-115431645D01*
X128417379Y-115381403D01*
X128417372Y-115381401D01*
X128357844Y-115375000D01*
X127710000Y-115375000D01*
X127710000Y-116291988D01*
X127652993Y-116259075D01*
X127525826Y-116225000D01*
X127394174Y-116225000D01*
X127267007Y-116259075D01*
X127210000Y-116291988D01*
X127210000Y-115375000D01*
X126562155Y-115375000D01*
X126502627Y-115381401D01*
X126502620Y-115381403D01*
X126367913Y-115431645D01*
X126367906Y-115431649D01*
X126252812Y-115517809D01*
X126252809Y-115517812D01*
X126166649Y-115632906D01*
X126166645Y-115632913D01*
X126116403Y-115767620D01*
X126116401Y-115767627D01*
X126110000Y-115827155D01*
X124052051Y-115827155D01*
X123919786Y-115694890D01*
X123747820Y-115569951D01*
X123558414Y-115473444D01*
X123558413Y-115473443D01*
X123558412Y-115473443D01*
X123356243Y-115407754D01*
X123356241Y-115407753D01*
X123356240Y-115407753D01*
X123194957Y-115382208D01*
X123146287Y-115374500D01*
X122933713Y-115374500D01*
X122885042Y-115382208D01*
X122723760Y-115407753D01*
X122521585Y-115473444D01*
X122332179Y-115569951D01*
X122160215Y-115694889D01*
X122046285Y-115808819D01*
X121984962Y-115842303D01*
X121915270Y-115837319D01*
X121859337Y-115795447D01*
X121842422Y-115764470D01*
X121793354Y-115632913D01*
X121793350Y-115632906D01*
X121707190Y-115517812D01*
X121707187Y-115517809D01*
X121592093Y-115431649D01*
X121592086Y-115431645D01*
X121457379Y-115381403D01*
X121457372Y-115381401D01*
X121397844Y-115375000D01*
X120750000Y-115375000D01*
X120750000Y-116291988D01*
X120692993Y-116259075D01*
X120565826Y-116225000D01*
X120434174Y-116225000D01*
X120307007Y-116259075D01*
X120250000Y-116291988D01*
X120250000Y-115375000D01*
X119602155Y-115375000D01*
X119542627Y-115381401D01*
X119542620Y-115381403D01*
X119407913Y-115431645D01*
X119407906Y-115431649D01*
X119292812Y-115517809D01*
X119292809Y-115517812D01*
X119206649Y-115632906D01*
X119206645Y-115632913D01*
X119156403Y-115767620D01*
X119156401Y-115767627D01*
X119150000Y-115827155D01*
X119150000Y-116475000D01*
X120066988Y-116475000D01*
X120034075Y-116532007D01*
X120000000Y-116659174D01*
X120000000Y-116790826D01*
X120034075Y-116917993D01*
X120066988Y-116975000D01*
X119150000Y-116975000D01*
X119150000Y-117536758D01*
X119143761Y-117558003D01*
X119142182Y-117580092D01*
X119134109Y-117590875D01*
X119130315Y-117603797D01*
X119113581Y-117618296D01*
X119100310Y-117636025D01*
X119087689Y-117640732D01*
X119077511Y-117649552D01*
X119055593Y-117652703D01*
X119034846Y-117660442D01*
X119021685Y-117657579D01*
X119008353Y-117659496D01*
X118988209Y-117650296D01*
X118966573Y-117645590D01*
X118948847Y-117632321D01*
X118944797Y-117630471D01*
X118938319Y-117624439D01*
X118861819Y-117547939D01*
X118828334Y-117486616D01*
X118825500Y-117460258D01*
X118825500Y-112348647D01*
X118845185Y-112281608D01*
X118897989Y-112235853D01*
X118967147Y-112225909D01*
X119030703Y-112254934D01*
X119067431Y-112310329D01*
X119113312Y-112451539D01*
X119162213Y-112547512D01*
X119204818Y-112631129D01*
X119323289Y-112794190D01*
X119465810Y-112936711D01*
X119628871Y-113055182D01*
X119780591Y-113132487D01*
X119808460Y-113146687D01*
X119904303Y-113177828D01*
X120000149Y-113208970D01*
X120092348Y-113223572D01*
X120199217Y-113240500D01*
X120199222Y-113240500D01*
X120400783Y-113240500D01*
X120497289Y-113225214D01*
X120599851Y-113208970D01*
X120791542Y-113146686D01*
X120971129Y-113055182D01*
X121134190Y-112936711D01*
X121276711Y-112794190D01*
X121395182Y-112631129D01*
X121486686Y-112451542D01*
X121548970Y-112259851D01*
X121567003Y-112145996D01*
X121580500Y-112060783D01*
X121580500Y-111859216D01*
X121561273Y-111737826D01*
X121548970Y-111660149D01*
X121548968Y-111660144D01*
X121548968Y-111660141D01*
X121539286Y-111630344D01*
X121537289Y-111560503D01*
X121569533Y-111504345D01*
X122212060Y-110861819D01*
X122273383Y-110828334D01*
X122299741Y-110825500D01*
X132325500Y-110825500D01*
X132392539Y-110845185D01*
X132438294Y-110897989D01*
X132449500Y-110949500D01*
X132449500Y-111078846D01*
X132480261Y-111233489D01*
X132480264Y-111233501D01*
X132540602Y-111379172D01*
X132540609Y-111379184D01*
X132603602Y-111473459D01*
X132624480Y-111540136D01*
X132624500Y-111542350D01*
X132624500Y-142103595D01*
X132604815Y-142170634D01*
X132552011Y-142216389D01*
X132482853Y-142226333D01*
X132457168Y-142219777D01*
X132419985Y-142205909D01*
X132419983Y-142205908D01*
X132360383Y-142199501D01*
X132360381Y-142199500D01*
X132360373Y-142199500D01*
X132360364Y-142199500D01*
X130164629Y-142199500D01*
X130164623Y-142199501D01*
X130105016Y-142205908D01*
X129970171Y-142256202D01*
X129970164Y-142256206D01*
X129854955Y-142342452D01*
X129854952Y-142342455D01*
X129768706Y-142457664D01*
X129768702Y-142457671D01*
X129718408Y-142592517D01*
X129712001Y-142652116D01*
X129712001Y-142652123D01*
X129712000Y-142652135D01*
X129712000Y-144847870D01*
X129712001Y-144847876D01*
X129718408Y-144907483D01*
X129768702Y-145042328D01*
X129768706Y-145042335D01*
X129854952Y-145157544D01*
X129854955Y-145157547D01*
X129970164Y-145243793D01*
X129970171Y-145243797D01*
X130105017Y-145294091D01*
X130105016Y-145294091D01*
X130111944Y-145294835D01*
X130164627Y-145300500D01*
X131452782Y-145300499D01*
X131519821Y-145320184D01*
X131540463Y-145336818D01*
X133043617Y-146839972D01*
X133114740Y-146911095D01*
X133172529Y-146968884D01*
X133172532Y-146968886D01*
X133324108Y-147070166D01*
X133324112Y-147070168D01*
X133373442Y-147090601D01*
X133373443Y-147090601D01*
X133492542Y-147139934D01*
X133598927Y-147161095D01*
X133671341Y-147175499D01*
X133671345Y-147175500D01*
X133671346Y-147175500D01*
X147591156Y-147175500D01*
X147733606Y-147147164D01*
X147769958Y-147139933D01*
X147938389Y-147070167D01*
X147938391Y-147070166D01*
X148048288Y-146996735D01*
X148089972Y-146968883D01*
X150718883Y-144339972D01*
X150820164Y-144188393D01*
X150820167Y-144188389D01*
X150840601Y-144139056D01*
X150889934Y-144019958D01*
X150925500Y-143841154D01*
X150925500Y-143658846D01*
X150925500Y-142652135D01*
X151699500Y-142652135D01*
X151699500Y-144847870D01*
X151699501Y-144847876D01*
X151705908Y-144907483D01*
X151756202Y-145042328D01*
X151756206Y-145042335D01*
X151842452Y-145157544D01*
X151842455Y-145157547D01*
X151957664Y-145243793D01*
X151957671Y-145243797D01*
X152092517Y-145294091D01*
X152092516Y-145294091D01*
X152099444Y-145294835D01*
X152152127Y-145300500D01*
X154347872Y-145300499D01*
X154407483Y-145294091D01*
X154542331Y-145243796D01*
X154657546Y-145157546D01*
X154743796Y-145042331D01*
X154794091Y-144907483D01*
X154800500Y-144847873D01*
X154800499Y-143627973D01*
X156699500Y-143627973D01*
X156699500Y-143872027D01*
X156737679Y-144113076D01*
X156813096Y-144345185D01*
X156923762Y-144562380D01*
X156923896Y-144562642D01*
X157067339Y-144760076D01*
X157067343Y-144760081D01*
X157239918Y-144932656D01*
X157239923Y-144932660D01*
X157390879Y-145042335D01*
X157437361Y-145076106D01*
X157654815Y-145186904D01*
X157886924Y-145262321D01*
X158127973Y-145300500D01*
X158127974Y-145300500D01*
X158372026Y-145300500D01*
X158372027Y-145300500D01*
X158613076Y-145262321D01*
X158845185Y-145186904D01*
X159062639Y-145076106D01*
X159260083Y-144932655D01*
X159432655Y-144760083D01*
X159576106Y-144562639D01*
X159686904Y-144345185D01*
X159762321Y-144113076D01*
X159800500Y-143872027D01*
X159800500Y-143627973D01*
X159762321Y-143386924D01*
X159686904Y-143154815D01*
X159576106Y-142937361D01*
X159553217Y-142905857D01*
X159432660Y-142739923D01*
X159432656Y-142739918D01*
X159344873Y-142652135D01*
X162699500Y-142652135D01*
X162699500Y-144847870D01*
X162699501Y-144847876D01*
X162705908Y-144907483D01*
X162756202Y-145042328D01*
X162756206Y-145042335D01*
X162842452Y-145157544D01*
X162842455Y-145157547D01*
X162957664Y-145243793D01*
X162957671Y-145243797D01*
X163092517Y-145294091D01*
X163092516Y-145294091D01*
X163099444Y-145294835D01*
X163152127Y-145300500D01*
X165347872Y-145300499D01*
X165407483Y-145294091D01*
X165542331Y-145243796D01*
X165657546Y-145157546D01*
X165743796Y-145042331D01*
X165794091Y-144907483D01*
X165800500Y-144847873D01*
X165800499Y-143627973D01*
X167699500Y-143627973D01*
X167699500Y-143872027D01*
X167737679Y-144113076D01*
X167813096Y-144345185D01*
X167923762Y-144562380D01*
X167923896Y-144562642D01*
X168067339Y-144760076D01*
X168067343Y-144760081D01*
X168239918Y-144932656D01*
X168239923Y-144932660D01*
X168390879Y-145042335D01*
X168437361Y-145076106D01*
X168654815Y-145186904D01*
X168886924Y-145262321D01*
X169127973Y-145300500D01*
X169127974Y-145300500D01*
X169372026Y-145300500D01*
X169372027Y-145300500D01*
X169613076Y-145262321D01*
X169845185Y-145186904D01*
X170062639Y-145076106D01*
X170260083Y-144932655D01*
X170432655Y-144760083D01*
X170552211Y-144595528D01*
X176249500Y-144595528D01*
X176249500Y-144904471D01*
X176284086Y-145211437D01*
X176284089Y-145211455D01*
X176352831Y-145512635D01*
X176352835Y-145512647D01*
X176454862Y-145804222D01*
X176454868Y-145804236D01*
X176588903Y-146082562D01*
X176588905Y-146082565D01*
X176753265Y-146344143D01*
X176945880Y-146585674D01*
X177164326Y-146804120D01*
X177405857Y-146996735D01*
X177667435Y-147161095D01*
X177945771Y-147295135D01*
X177945777Y-147295137D01*
X178237352Y-147397164D01*
X178237364Y-147397168D01*
X178538548Y-147465911D01*
X178538554Y-147465911D01*
X178538562Y-147465913D01*
X178743206Y-147488970D01*
X178845529Y-147500499D01*
X178845532Y-147500500D01*
X178845535Y-147500500D01*
X179154468Y-147500500D01*
X179154469Y-147500499D01*
X179311356Y-147482822D01*
X179461437Y-147465913D01*
X179461442Y-147465912D01*
X179461452Y-147465911D01*
X179762636Y-147397168D01*
X180054229Y-147295135D01*
X180332565Y-147161095D01*
X180594143Y-146996735D01*
X180835674Y-146804120D01*
X181054120Y-146585674D01*
X181246735Y-146344143D01*
X181411095Y-146082565D01*
X181545135Y-145804229D01*
X181647168Y-145512636D01*
X181715911Y-145211452D01*
X181719134Y-145182853D01*
X181747323Y-144932660D01*
X181750500Y-144904465D01*
X181750500Y-144595535D01*
X181731735Y-144428988D01*
X181715913Y-144288562D01*
X181715910Y-144288544D01*
X181647168Y-143987364D01*
X181647164Y-143987352D01*
X181545137Y-143695777D01*
X181545135Y-143695771D01*
X181411095Y-143417435D01*
X181246735Y-143155857D01*
X181054120Y-142914326D01*
X180835674Y-142695880D01*
X180594143Y-142503265D01*
X180332565Y-142338905D01*
X180332562Y-142338903D01*
X180054236Y-142204868D01*
X180054222Y-142204862D01*
X179762647Y-142102835D01*
X179762635Y-142102831D01*
X179461455Y-142034089D01*
X179461437Y-142034086D01*
X179154471Y-141999500D01*
X179154465Y-141999500D01*
X178845535Y-141999500D01*
X178845528Y-141999500D01*
X178538562Y-142034086D01*
X178538544Y-142034089D01*
X178237364Y-142102831D01*
X178237352Y-142102835D01*
X177945777Y-142204862D01*
X177945763Y-142204868D01*
X177667437Y-142338903D01*
X177405858Y-142503264D01*
X177164326Y-142695879D01*
X176945879Y-142914326D01*
X176753264Y-143155858D01*
X176588903Y-143417437D01*
X176454868Y-143695763D01*
X176454862Y-143695777D01*
X176352835Y-143987352D01*
X176352831Y-143987364D01*
X176284089Y-144288544D01*
X176284086Y-144288562D01*
X176249500Y-144595528D01*
X170552211Y-144595528D01*
X170576106Y-144562639D01*
X170686904Y-144345185D01*
X170762321Y-144113076D01*
X170800500Y-143872027D01*
X170800500Y-143627973D01*
X170762321Y-143386924D01*
X170686904Y-143154815D01*
X170576106Y-142937361D01*
X170553217Y-142905857D01*
X170432660Y-142739923D01*
X170432656Y-142739918D01*
X170260081Y-142567343D01*
X170260076Y-142567339D01*
X170062642Y-142423896D01*
X170062641Y-142423895D01*
X170062639Y-142423894D01*
X169845185Y-142313096D01*
X169613076Y-142237679D01*
X169613074Y-142237678D01*
X169613072Y-142237678D01*
X169412491Y-142205909D01*
X169372027Y-142199500D01*
X169127973Y-142199500D01*
X169087515Y-142205908D01*
X168886927Y-142237678D01*
X168654812Y-142313097D01*
X168437357Y-142423896D01*
X168239923Y-142567339D01*
X168239918Y-142567343D01*
X168067343Y-142739918D01*
X168067339Y-142739923D01*
X167923896Y-142937357D01*
X167813097Y-143154812D01*
X167737678Y-143386927D01*
X167712512Y-143545818D01*
X167699500Y-143627973D01*
X165800499Y-143627973D01*
X165800499Y-142652128D01*
X165794091Y-142592517D01*
X165790219Y-142582136D01*
X165743797Y-142457671D01*
X165743793Y-142457664D01*
X165657547Y-142342455D01*
X165657544Y-142342452D01*
X165542335Y-142256206D01*
X165542328Y-142256202D01*
X165407482Y-142205908D01*
X165407483Y-142205908D01*
X165347883Y-142199501D01*
X165347881Y-142199500D01*
X165347873Y-142199500D01*
X165347864Y-142199500D01*
X163152129Y-142199500D01*
X163152123Y-142199501D01*
X163092516Y-142205908D01*
X162957671Y-142256202D01*
X162957664Y-142256206D01*
X162842455Y-142342452D01*
X162842452Y-142342455D01*
X162756206Y-142457664D01*
X162756202Y-142457671D01*
X162705908Y-142592517D01*
X162699501Y-142652116D01*
X162699501Y-142652123D01*
X162699500Y-142652135D01*
X159344873Y-142652135D01*
X159260081Y-142567343D01*
X159260076Y-142567339D01*
X159062642Y-142423896D01*
X159062641Y-142423895D01*
X159062639Y-142423894D01*
X158845185Y-142313096D01*
X158613076Y-142237679D01*
X158613074Y-142237678D01*
X158613072Y-142237678D01*
X158412491Y-142205909D01*
X158372027Y-142199500D01*
X158127973Y-142199500D01*
X158087515Y-142205908D01*
X157886927Y-142237678D01*
X157654812Y-142313097D01*
X157437357Y-142423896D01*
X157239923Y-142567339D01*
X157239918Y-142567343D01*
X157067343Y-142739918D01*
X157067339Y-142739923D01*
X156923896Y-142937357D01*
X156813097Y-143154812D01*
X156737678Y-143386927D01*
X156712512Y-143545818D01*
X156699500Y-143627973D01*
X154800499Y-143627973D01*
X154800499Y-142652128D01*
X154794091Y-142592517D01*
X154790219Y-142582136D01*
X154743797Y-142457671D01*
X154743793Y-142457664D01*
X154657547Y-142342455D01*
X154657544Y-142342452D01*
X154542335Y-142256206D01*
X154542328Y-142256202D01*
X154407482Y-142205908D01*
X154407483Y-142205908D01*
X154347883Y-142199501D01*
X154347881Y-142199500D01*
X154347873Y-142199500D01*
X154347864Y-142199500D01*
X152152129Y-142199500D01*
X152152123Y-142199501D01*
X152092516Y-142205908D01*
X151957671Y-142256202D01*
X151957664Y-142256206D01*
X151842455Y-142342452D01*
X151842452Y-142342455D01*
X151756206Y-142457664D01*
X151756202Y-142457671D01*
X151705908Y-142592517D01*
X151699501Y-142652116D01*
X151699501Y-142652123D01*
X151699500Y-142652135D01*
X150925500Y-142652135D01*
X150925500Y-116158846D01*
X150925500Y-116158843D01*
X150889934Y-115980047D01*
X150889933Y-115980046D01*
X150889933Y-115980042D01*
X150834086Y-115845214D01*
X150820168Y-115811612D01*
X150820166Y-115811608D01*
X150718886Y-115660032D01*
X150718884Y-115660029D01*
X150669355Y-115610500D01*
X150589972Y-115531117D01*
X149887891Y-114829036D01*
X149089975Y-114031119D01*
X149089967Y-114031113D01*
X148938391Y-113929833D01*
X148938387Y-113929831D01*
X148769962Y-113860068D01*
X148769952Y-113860065D01*
X148591156Y-113824500D01*
X148591154Y-113824500D01*
X145519073Y-113824500D01*
X145336765Y-113824500D01*
X145336760Y-113824500D01*
X145157968Y-113860063D01*
X145157968Y-113860064D01*
X145157965Y-113860065D01*
X145157961Y-113860066D01*
X145038862Y-113909398D01*
X145038860Y-113909399D01*
X145038859Y-113909398D01*
X144989530Y-113929833D01*
X144896628Y-113991908D01*
X144837944Y-114031118D01*
X144837941Y-114031121D01*
X144183072Y-114685992D01*
X144040028Y-114829036D01*
X143975571Y-114893492D01*
X143911115Y-114957948D01*
X143911113Y-114957951D01*
X143809833Y-115109527D01*
X143809831Y-115109531D01*
X143740068Y-115277956D01*
X143740065Y-115277966D01*
X143704500Y-115456762D01*
X143704500Y-115714242D01*
X143684815Y-115781281D01*
X143668181Y-115801923D01*
X143599894Y-115870209D01*
X143599890Y-115870213D01*
X143474949Y-116042182D01*
X143470484Y-116050946D01*
X143422509Y-116101742D01*
X143354688Y-116118536D01*
X143288553Y-116095998D01*
X143249516Y-116050946D01*
X143245050Y-116042182D01*
X143120109Y-115870213D01*
X142969786Y-115719890D01*
X142797820Y-115594951D01*
X142608414Y-115498444D01*
X142608413Y-115498443D01*
X142608412Y-115498443D01*
X142406243Y-115432754D01*
X142406241Y-115432753D01*
X142406240Y-115432753D01*
X142244957Y-115407208D01*
X142196287Y-115399500D01*
X141983713Y-115399500D01*
X141935042Y-115407208D01*
X141773760Y-115432753D01*
X141571585Y-115498444D01*
X141382179Y-115594951D01*
X141210213Y-115719890D01*
X141059890Y-115870213D01*
X140934951Y-116042179D01*
X140838444Y-116231585D01*
X140772753Y-116433760D01*
X140753240Y-116556961D01*
X140739500Y-116643713D01*
X140739500Y-116856287D01*
X140743926Y-116884233D01*
X140768793Y-117041239D01*
X140772754Y-117066243D01*
X140832104Y-117248904D01*
X140838444Y-117268414D01*
X140934951Y-117457820D01*
X141059890Y-117629786D01*
X141210213Y-117780109D01*
X141382179Y-117905048D01*
X141382181Y-117905049D01*
X141382184Y-117905051D01*
X141571588Y-118001557D01*
X141773757Y-118067246D01*
X141983713Y-118100500D01*
X141983714Y-118100500D01*
X142196286Y-118100500D01*
X142196287Y-118100500D01*
X142406243Y-118067246D01*
X142608412Y-118001557D01*
X142797816Y-117905051D01*
X142884478Y-117842088D01*
X142969786Y-117780109D01*
X142969788Y-117780106D01*
X142969792Y-117780104D01*
X143120104Y-117629792D01*
X143120106Y-117629788D01*
X143120109Y-117629786D01*
X143245048Y-117457820D01*
X143245047Y-117457820D01*
X143245051Y-117457816D01*
X143249514Y-117449054D01*
X143297488Y-117398259D01*
X143365308Y-117381463D01*
X143431444Y-117403999D01*
X143470486Y-117449056D01*
X143474951Y-117457820D01*
X143599890Y-117629786D01*
X143750213Y-117780109D01*
X143922179Y-117905048D01*
X143922181Y-117905049D01*
X143922184Y-117905051D01*
X144111588Y-118001557D01*
X144313757Y-118067246D01*
X144523713Y-118100500D01*
X144523714Y-118100500D01*
X144736286Y-118100500D01*
X144736287Y-118100500D01*
X144946243Y-118067246D01*
X145148412Y-118001557D01*
X145337816Y-117905051D01*
X145424478Y-117842088D01*
X145509784Y-117780110D01*
X145509784Y-117780109D01*
X145509792Y-117780104D01*
X145623717Y-117666178D01*
X145685036Y-117632696D01*
X145754728Y-117637680D01*
X145810662Y-117679551D01*
X145827577Y-117710528D01*
X145876646Y-117842088D01*
X145876649Y-117842093D01*
X145962809Y-117957187D01*
X145962812Y-117957190D01*
X146077906Y-118043350D01*
X146077913Y-118043354D01*
X146212620Y-118093596D01*
X146212627Y-118093598D01*
X146272155Y-118099999D01*
X146272172Y-118100000D01*
X146920000Y-118100000D01*
X146920000Y-117183012D01*
X146977007Y-117215925D01*
X147104174Y-117250000D01*
X147235826Y-117250000D01*
X147362993Y-117215925D01*
X147420000Y-117183012D01*
X147420000Y-118100000D01*
X148067828Y-118100000D01*
X148067844Y-118099999D01*
X148127372Y-118093598D01*
X148127379Y-118093596D01*
X148262086Y-118043354D01*
X148262093Y-118043350D01*
X148377187Y-117957190D01*
X148377190Y-117957187D01*
X148463350Y-117842093D01*
X148463354Y-117842086D01*
X148513596Y-117707379D01*
X148513598Y-117707372D01*
X148519999Y-117647844D01*
X148520000Y-117647827D01*
X148520000Y-117000000D01*
X147603012Y-117000000D01*
X147635925Y-116942993D01*
X147670000Y-116815826D01*
X147670000Y-116684174D01*
X147635925Y-116557007D01*
X147603012Y-116500000D01*
X148520000Y-116500000D01*
X148520000Y-116378217D01*
X148539685Y-116311178D01*
X148592489Y-116265423D01*
X148661647Y-116255479D01*
X148725203Y-116284504D01*
X148731681Y-116290536D01*
X149038181Y-116597036D01*
X149071666Y-116658359D01*
X149074500Y-116684717D01*
X149074500Y-143315283D01*
X149065855Y-143344720D01*
X149059332Y-143374711D01*
X149055576Y-143379727D01*
X149054815Y-143382322D01*
X149038185Y-143402959D01*
X149001597Y-143439548D01*
X148973879Y-143467266D01*
X148912555Y-143500750D01*
X148842864Y-143495765D01*
X148786930Y-143453894D01*
X148763724Y-143398979D01*
X148761832Y-143387036D01*
X148686439Y-143155001D01*
X148575676Y-142937619D01*
X148508456Y-142845097D01*
X148508454Y-142845096D01*
X147889309Y-143464242D01*
X147870332Y-143418426D01*
X147793726Y-143303776D01*
X147696224Y-143206274D01*
X147581574Y-143129668D01*
X147535756Y-143110689D01*
X148154902Y-142491544D01*
X148154901Y-142491543D01*
X148062380Y-142424323D01*
X147844998Y-142313560D01*
X147612959Y-142238165D01*
X147371993Y-142200000D01*
X147128007Y-142200000D01*
X146887040Y-142238165D01*
X146655001Y-142313560D01*
X146437626Y-142424319D01*
X146345097Y-142491544D01*
X146964243Y-143110689D01*
X146918426Y-143129668D01*
X146803776Y-143206274D01*
X146706274Y-143303776D01*
X146629668Y-143418426D01*
X146610690Y-143464243D01*
X145991544Y-142845097D01*
X145924319Y-142937626D01*
X145813560Y-143155001D01*
X145738165Y-143387040D01*
X145700000Y-143628006D01*
X145700000Y-143871993D01*
X145738165Y-144112959D01*
X145813560Y-144344998D01*
X145924323Y-144562380D01*
X145991543Y-144654901D01*
X145991544Y-144654902D01*
X146610690Y-144035756D01*
X146629668Y-144081574D01*
X146706274Y-144196224D01*
X146803776Y-144293726D01*
X146918426Y-144370332D01*
X146964242Y-144389309D01*
X146345096Y-145008454D01*
X146345097Y-145008456D01*
X146437619Y-145075676D01*
X146465759Y-145090015D01*
X146516555Y-145137990D01*
X146533350Y-145205811D01*
X146510812Y-145271946D01*
X146456097Y-145315397D01*
X146409464Y-145324500D01*
X143780286Y-145324500D01*
X143713247Y-145304815D01*
X143667492Y-145252011D01*
X143657548Y-145182853D01*
X143681019Y-145126189D01*
X143743796Y-145042331D01*
X143794091Y-144907483D01*
X143800500Y-144847873D01*
X143800499Y-142652128D01*
X143794091Y-142592517D01*
X143756430Y-142491543D01*
X143743797Y-142457671D01*
X143743793Y-142457664D01*
X143657547Y-142342455D01*
X143657544Y-142342452D01*
X143542335Y-142256206D01*
X143542328Y-142256202D01*
X143407482Y-142205908D01*
X143407483Y-142205908D01*
X143347883Y-142199501D01*
X143347881Y-142199500D01*
X143347873Y-142199500D01*
X143347864Y-142199500D01*
X141152129Y-142199500D01*
X141152123Y-142199501D01*
X141092516Y-142205908D01*
X140957671Y-142256202D01*
X140957664Y-142256206D01*
X140842455Y-142342452D01*
X140842452Y-142342455D01*
X140756206Y-142457664D01*
X140756202Y-142457671D01*
X140705908Y-142592517D01*
X140699501Y-142652116D01*
X140699501Y-142652123D01*
X140699500Y-142652135D01*
X140699500Y-144364545D01*
X140690856Y-144393981D01*
X140684333Y-144423971D01*
X140680577Y-144428988D01*
X140679815Y-144431584D01*
X140663182Y-144452226D01*
X140595206Y-144520202D01*
X140552768Y-144562642D01*
X140527229Y-144588181D01*
X140465906Y-144621666D01*
X140439547Y-144624500D01*
X137759436Y-144624500D01*
X137692397Y-144604815D01*
X137646642Y-144552011D01*
X137636698Y-144482853D01*
X137648951Y-144444205D01*
X137656704Y-144428988D01*
X137699404Y-144345185D01*
X137774821Y-144113076D01*
X137813000Y-143872027D01*
X137813000Y-143627973D01*
X137774821Y-143386924D01*
X137699404Y-143154815D01*
X137588606Y-142937361D01*
X137565717Y-142905857D01*
X137445160Y-142739923D01*
X137445156Y-142739918D01*
X137272585Y-142567347D01*
X137272579Y-142567342D01*
X137239115Y-142543029D01*
X137196449Y-142487699D01*
X137188000Y-142442711D01*
X137188000Y-129302217D01*
X137207685Y-129235178D01*
X137224319Y-129214536D01*
X144552036Y-121886819D01*
X144613359Y-121853334D01*
X144639717Y-121850500D01*
X144736286Y-121850500D01*
X144736287Y-121850500D01*
X144946243Y-121817246D01*
X145148412Y-121751557D01*
X145337816Y-121655051D01*
X145424478Y-121592088D01*
X145509784Y-121530110D01*
X145509784Y-121530109D01*
X145509792Y-121530104D01*
X145623717Y-121416178D01*
X145685036Y-121382696D01*
X145754728Y-121387680D01*
X145810662Y-121429551D01*
X145827577Y-121460528D01*
X145876646Y-121592088D01*
X145876649Y-121592093D01*
X145962809Y-121707187D01*
X145962812Y-121707190D01*
X146077906Y-121793350D01*
X146077913Y-121793354D01*
X146212620Y-121843596D01*
X146212627Y-121843598D01*
X146272155Y-121849999D01*
X146272172Y-121850000D01*
X146920000Y-121850000D01*
X146920000Y-120933012D01*
X146977007Y-120965925D01*
X147104174Y-121000000D01*
X147235826Y-121000000D01*
X147362993Y-120965925D01*
X147420000Y-120933012D01*
X147420000Y-121850000D01*
X148067828Y-121850000D01*
X148067844Y-121849999D01*
X148127372Y-121843598D01*
X148127379Y-121843596D01*
X148262086Y-121793354D01*
X148262093Y-121793350D01*
X148377187Y-121707190D01*
X148377190Y-121707187D01*
X148463350Y-121592093D01*
X148463354Y-121592086D01*
X148513596Y-121457379D01*
X148513598Y-121457372D01*
X148519999Y-121397844D01*
X148520000Y-121397827D01*
X148520000Y-120750000D01*
X147603012Y-120750000D01*
X147635925Y-120692993D01*
X147670000Y-120565826D01*
X147670000Y-120434174D01*
X147635925Y-120307007D01*
X147603012Y-120250000D01*
X148520000Y-120250000D01*
X148520000Y-119602172D01*
X148519999Y-119602155D01*
X148513598Y-119542627D01*
X148513596Y-119542620D01*
X148463354Y-119407913D01*
X148463350Y-119407906D01*
X148377190Y-119292812D01*
X148377187Y-119292809D01*
X148262093Y-119206649D01*
X148262086Y-119206645D01*
X148127379Y-119156403D01*
X148127372Y-119156401D01*
X148067844Y-119150000D01*
X147420000Y-119150000D01*
X147420000Y-120066988D01*
X147362993Y-120034075D01*
X147235826Y-120000000D01*
X147104174Y-120000000D01*
X146977007Y-120034075D01*
X146920000Y-120066988D01*
X146920000Y-119150000D01*
X146272155Y-119150000D01*
X146212627Y-119156401D01*
X146212620Y-119156403D01*
X146077913Y-119206645D01*
X146077906Y-119206649D01*
X145962812Y-119292809D01*
X145962809Y-119292812D01*
X145876649Y-119407906D01*
X145876646Y-119407912D01*
X145827577Y-119539471D01*
X145785705Y-119595404D01*
X145720241Y-119619821D01*
X145651968Y-119604969D01*
X145623714Y-119583818D01*
X145509786Y-119469890D01*
X145337820Y-119344951D01*
X145148414Y-119248444D01*
X145148413Y-119248443D01*
X145148412Y-119248443D01*
X144946243Y-119182754D01*
X144946241Y-119182753D01*
X144946240Y-119182753D01*
X144784957Y-119157208D01*
X144736287Y-119149500D01*
X144523713Y-119149500D01*
X144498793Y-119153447D01*
X144313757Y-119182753D01*
X144244788Y-119205162D01*
X144174947Y-119207156D01*
X144118791Y-119174911D01*
X143483367Y-118539487D01*
X143483365Y-118539485D01*
X143414974Y-118499999D01*
X143352136Y-118463719D01*
X143241870Y-118434174D01*
X143205766Y-118424500D01*
X143205765Y-118424500D01*
X140539742Y-118424500D01*
X140472703Y-118404815D01*
X140452061Y-118388181D01*
X139861819Y-117797939D01*
X139828334Y-117736616D01*
X139825500Y-117710258D01*
X139825500Y-112924236D01*
X139825500Y-112924234D01*
X139786281Y-112777865D01*
X139710515Y-112646635D01*
X139603365Y-112539485D01*
X136853365Y-109789485D01*
X136770440Y-109741608D01*
X136722136Y-109713719D01*
X136618345Y-109685909D01*
X136575766Y-109674500D01*
X122085766Y-109674500D01*
X121934233Y-109674500D01*
X121787865Y-109713719D01*
X121787864Y-109713719D01*
X121787862Y-109713720D01*
X121787857Y-109713721D01*
X121751136Y-109734923D01*
X121683236Y-109751396D01*
X121617209Y-109728543D01*
X121574019Y-109673622D01*
X121566664Y-109608138D01*
X121580500Y-109520783D01*
X121580500Y-109319216D01*
X121562156Y-109203408D01*
X121548970Y-109120149D01*
X121486686Y-108928458D01*
X121395182Y-108748871D01*
X121276711Y-108585810D01*
X121134190Y-108443289D01*
X120971129Y-108324818D01*
X120844867Y-108260484D01*
X120794072Y-108212510D01*
X120777277Y-108144690D01*
X120799814Y-108078555D01*
X120844868Y-108039515D01*
X120971129Y-107975182D01*
X121134190Y-107856711D01*
X121276711Y-107714190D01*
X121395182Y-107551129D01*
X121486686Y-107371542D01*
X121548970Y-107179851D01*
X121567003Y-107065996D01*
X121580500Y-106980783D01*
X121580500Y-106779216D01*
X121562156Y-106663408D01*
X121548970Y-106580149D01*
X121486686Y-106388458D01*
X121395182Y-106208871D01*
X121276711Y-106045810D01*
X121134190Y-105903289D01*
X120971129Y-105784818D01*
X120844867Y-105720484D01*
X120794072Y-105672510D01*
X120777277Y-105604690D01*
X120799814Y-105538555D01*
X120844868Y-105499515D01*
X120971129Y-105435182D01*
X121134190Y-105316711D01*
X121276711Y-105174190D01*
X121395182Y-105011129D01*
X121486686Y-104831542D01*
X121548970Y-104639851D01*
X121567003Y-104525996D01*
X121580500Y-104440783D01*
X121580500Y-104239216D01*
X121562156Y-104123408D01*
X121548970Y-104040149D01*
X121500164Y-103889939D01*
X121486687Y-103848460D01*
X121395181Y-103668870D01*
X121276711Y-103505810D01*
X121134190Y-103363289D01*
X120971129Y-103244818D01*
X120844867Y-103180484D01*
X120794072Y-103132510D01*
X120777277Y-103064690D01*
X120799814Y-102998555D01*
X120844868Y-102959515D01*
X120971129Y-102895182D01*
X121134190Y-102776711D01*
X121276711Y-102634190D01*
X121395182Y-102471129D01*
X121486686Y-102291542D01*
X121548970Y-102099851D01*
X121567003Y-101985996D01*
X121580500Y-101900783D01*
X121580500Y-101699216D01*
X121562156Y-101583408D01*
X121548970Y-101500149D01*
X121486686Y-101308458D01*
X121395182Y-101128871D01*
X121276711Y-100965810D01*
X121134190Y-100823289D01*
X120971129Y-100704818D01*
X120844317Y-100640204D01*
X120793521Y-100592229D01*
X120776726Y-100524408D01*
X120799263Y-100458273D01*
X120844317Y-100419234D01*
X120970866Y-100354753D01*
X121011602Y-100325156D01*
X121011602Y-100325155D01*
X120445739Y-99759292D01*
X120500712Y-99744563D01*
X120619287Y-99676104D01*
X120716104Y-99579287D01*
X120784563Y-99460712D01*
X120799292Y-99405739D01*
X121365155Y-99971602D01*
X121365156Y-99971602D01*
X121394753Y-99930866D01*
X121486223Y-99751349D01*
X121486224Y-99751346D01*
X121548481Y-99559735D01*
X121580000Y-99360737D01*
X121580000Y-99159262D01*
X121548481Y-98960264D01*
X121486224Y-98768653D01*
X121486223Y-98768650D01*
X121394753Y-98589133D01*
X121365155Y-98548396D01*
X121365155Y-98548395D01*
X120799292Y-99114259D01*
X120784563Y-99059288D01*
X120716104Y-98940713D01*
X120619287Y-98843896D01*
X120500712Y-98775437D01*
X120445738Y-98760707D01*
X121011603Y-98194843D01*
X121011602Y-98194842D01*
X120970867Y-98165246D01*
X120844316Y-98100764D01*
X120793521Y-98052790D01*
X120776726Y-97984969D01*
X120799264Y-97918834D01*
X120844317Y-97879795D01*
X120971129Y-97815182D01*
X121134190Y-97696711D01*
X121276711Y-97554190D01*
X121395182Y-97391129D01*
X121486686Y-97211542D01*
X121548970Y-97019851D01*
X121565214Y-96917289D01*
X121580500Y-96820783D01*
X121580500Y-96619216D01*
X121562156Y-96503408D01*
X121548970Y-96420149D01*
X121486686Y-96228458D01*
X121395182Y-96048871D01*
X121276711Y-95885810D01*
X121134190Y-95743289D01*
X120971129Y-95624818D01*
X120844867Y-95560484D01*
X120794072Y-95512510D01*
X120777277Y-95444690D01*
X120799814Y-95378555D01*
X120844868Y-95339515D01*
X120971129Y-95275182D01*
X121134190Y-95156711D01*
X121276711Y-95014190D01*
X121395182Y-94851129D01*
X121486686Y-94671542D01*
X121548970Y-94479851D01*
X121575872Y-94310000D01*
X121580500Y-94280783D01*
X121580500Y-94079216D01*
X121562156Y-93963408D01*
X121548970Y-93880149D01*
X121517828Y-93784303D01*
X121486687Y-93688460D01*
X121395181Y-93508870D01*
X121375579Y-93481890D01*
X121276711Y-93345810D01*
X121134190Y-93203289D01*
X120971129Y-93084818D01*
X120844867Y-93020484D01*
X120794072Y-92972510D01*
X120777277Y-92904690D01*
X120799814Y-92838555D01*
X120844868Y-92799515D01*
X120847498Y-92798175D01*
X120971129Y-92735182D01*
X121134190Y-92616711D01*
X121276711Y-92474190D01*
X121395182Y-92311129D01*
X121486686Y-92131542D01*
X121548970Y-91939851D01*
X121565214Y-91837289D01*
X121580500Y-91740783D01*
X121580500Y-91539216D01*
X121562156Y-91423408D01*
X121548970Y-91340149D01*
X121511835Y-91225858D01*
X121486687Y-91148460D01*
X121413996Y-91005795D01*
X121401100Y-90937125D01*
X121427376Y-90872385D01*
X121484483Y-90832128D01*
X121524481Y-90825500D01*
X121525767Y-90825500D01*
X144475519Y-90825500D01*
X144542558Y-90845185D01*
X144588313Y-90897989D01*
X144598257Y-90967147D01*
X144586004Y-91005795D01*
X144513312Y-91148460D01*
X144451030Y-91340147D01*
X144419500Y-91539216D01*
X144419500Y-91740783D01*
X144451030Y-91939852D01*
X144513312Y-92131539D01*
X144513314Y-92131542D01*
X144604818Y-92311129D01*
X144723289Y-92474190D01*
X144865810Y-92616711D01*
X145028871Y-92735182D01*
X145096885Y-92769836D01*
X145155131Y-92799515D01*
X145205927Y-92847490D01*
X145222722Y-92915311D01*
X145200184Y-92981446D01*
X145155131Y-93020485D01*
X145028870Y-93084818D01*
X144935838Y-93152410D01*
X144865810Y-93203289D01*
X144865808Y-93203291D01*
X144865807Y-93203291D01*
X144723291Y-93345807D01*
X144723291Y-93345808D01*
X144723289Y-93345810D01*
X144682051Y-93402569D01*
X144604818Y-93508870D01*
X144513312Y-93688460D01*
X144451030Y-93880147D01*
X144419500Y-94079216D01*
X144419500Y-94280783D01*
X144451030Y-94479852D01*
X144513312Y-94671539D01*
X144593155Y-94828239D01*
X144604818Y-94851129D01*
X144723289Y-95014190D01*
X144865810Y-95156711D01*
X145028871Y-95275182D01*
X145096885Y-95309836D01*
X145155131Y-95339515D01*
X145205927Y-95387490D01*
X145222722Y-95455311D01*
X145200184Y-95521446D01*
X145155131Y-95560485D01*
X145028870Y-95624818D01*
X144964597Y-95671516D01*
X144865810Y-95743289D01*
X144865808Y-95743291D01*
X144865807Y-95743291D01*
X144723291Y-95885807D01*
X144723291Y-95885808D01*
X144723289Y-95885810D01*
X144718439Y-95892486D01*
X144604818Y-96048870D01*
X144513312Y-96228460D01*
X144451030Y-96420147D01*
X144419500Y-96619216D01*
X144419500Y-96820783D01*
X144451030Y-97019852D01*
X144513312Y-97211539D01*
X144513314Y-97211542D01*
X144604818Y-97391129D01*
X144723289Y-97554190D01*
X144865810Y-97696711D01*
X145028871Y-97815182D01*
X145096885Y-97849836D01*
X145155131Y-97879515D01*
X145205927Y-97927490D01*
X145222722Y-97995311D01*
X145200184Y-98061446D01*
X145155131Y-98100485D01*
X145028870Y-98164818D01*
X144987545Y-98194843D01*
X144865810Y-98283289D01*
X144865808Y-98283291D01*
X144865807Y-98283291D01*
X144723291Y-98425807D01*
X144723291Y-98425808D01*
X144723289Y-98425810D01*
X144672410Y-98495838D01*
X144604818Y-98588870D01*
X144513312Y-98768460D01*
X144451030Y-98960147D01*
X144419500Y-99159216D01*
X144419500Y-99360783D01*
X144451030Y-99559852D01*
X144513312Y-99751539D01*
X144562213Y-99847512D01*
X144604818Y-99931129D01*
X144723289Y-100094190D01*
X144865810Y-100236711D01*
X145028871Y-100355182D01*
X145096885Y-100389836D01*
X145155131Y-100419515D01*
X145205927Y-100467490D01*
X145222722Y-100535311D01*
X145200184Y-100601446D01*
X145155131Y-100640485D01*
X145028870Y-100704818D01*
X144935838Y-100772410D01*
X144865810Y-100823289D01*
X144865808Y-100823291D01*
X144865807Y-100823291D01*
X144723291Y-100965807D01*
X144723291Y-100965808D01*
X144723289Y-100965810D01*
X144672410Y-101035838D01*
X144604818Y-101128870D01*
X144513312Y-101308460D01*
X144451030Y-101500147D01*
X144419500Y-101699216D01*
X144419500Y-101900783D01*
X144451030Y-102099852D01*
X144513312Y-102291539D01*
X144562213Y-102387512D01*
X144604818Y-102471129D01*
X144723289Y-102634190D01*
X144865810Y-102776711D01*
X145028871Y-102895182D01*
X145096885Y-102929836D01*
X145155131Y-102959515D01*
X145205927Y-103007490D01*
X145222722Y-103075311D01*
X145200184Y-103141446D01*
X145155131Y-103180485D01*
X145028870Y-103244818D01*
X144935838Y-103312410D01*
X144865810Y-103363289D01*
X144865808Y-103363291D01*
X144865807Y-103363291D01*
X144723291Y-103505807D01*
X144723291Y-103505808D01*
X144723289Y-103505810D01*
X144672410Y-103575838D01*
X144604818Y-103668870D01*
X144513312Y-103848460D01*
X144451030Y-104040147D01*
X144419500Y-104239216D01*
X144419500Y-104440783D01*
X144451030Y-104639852D01*
X144513312Y-104831539D01*
X144562213Y-104927512D01*
X144604818Y-105011129D01*
X144723289Y-105174190D01*
X144865810Y-105316711D01*
X145028871Y-105435182D01*
X145096885Y-105469836D01*
X145155131Y-105499515D01*
X145205927Y-105547490D01*
X145222722Y-105615311D01*
X145200184Y-105681446D01*
X145155131Y-105720485D01*
X145028870Y-105784818D01*
X144935838Y-105852410D01*
X144865810Y-105903289D01*
X144865808Y-105903291D01*
X144865807Y-105903291D01*
X144723291Y-106045807D01*
X144723291Y-106045808D01*
X144723289Y-106045810D01*
X144703107Y-106073588D01*
X144604818Y-106208870D01*
X144513312Y-106388460D01*
X144451030Y-106580147D01*
X144419500Y-106779216D01*
X144419500Y-106980783D01*
X144451030Y-107179852D01*
X144513312Y-107371539D01*
X144562213Y-107467512D01*
X144604818Y-107551129D01*
X144723289Y-107714190D01*
X144865810Y-107856711D01*
X145028871Y-107975182D01*
X145096885Y-108009836D01*
X145155131Y-108039515D01*
X145205927Y-108087490D01*
X145222722Y-108155311D01*
X145200184Y-108221446D01*
X145155131Y-108260485D01*
X145028870Y-108324818D01*
X144935838Y-108392410D01*
X144865810Y-108443289D01*
X144865808Y-108443291D01*
X144865807Y-108443291D01*
X144723291Y-108585807D01*
X144723291Y-108585808D01*
X144723289Y-108585810D01*
X144703107Y-108613588D01*
X144604818Y-108748870D01*
X144513312Y-108928460D01*
X144451030Y-109120147D01*
X144419500Y-109319216D01*
X144419500Y-109520783D01*
X144451030Y-109719852D01*
X144513312Y-109911539D01*
X144564390Y-110011784D01*
X144604818Y-110091129D01*
X144723289Y-110254190D01*
X144865810Y-110396711D01*
X145028871Y-110515182D01*
X145096885Y-110549836D01*
X145155131Y-110579515D01*
X145205927Y-110627490D01*
X145222722Y-110695311D01*
X145200184Y-110761446D01*
X145155131Y-110800485D01*
X145028870Y-110864818D01*
X144983215Y-110897989D01*
X144865810Y-110983289D01*
X144865808Y-110983291D01*
X144865807Y-110983291D01*
X144723291Y-111125807D01*
X144723291Y-111125808D01*
X144723289Y-111125810D01*
X144689730Y-111172000D01*
X144604818Y-111288870D01*
X144513312Y-111468460D01*
X144451030Y-111660147D01*
X144419500Y-111859216D01*
X144419500Y-112060783D01*
X144451030Y-112259852D01*
X144513312Y-112451539D01*
X144562213Y-112547512D01*
X144604818Y-112631129D01*
X144723289Y-112794190D01*
X144865810Y-112936711D01*
X145028871Y-113055182D01*
X145180591Y-113132487D01*
X145208460Y-113146687D01*
X145304303Y-113177828D01*
X145400149Y-113208970D01*
X145492348Y-113223572D01*
X145599217Y-113240500D01*
X145599222Y-113240500D01*
X145800783Y-113240500D01*
X145897289Y-113225214D01*
X145999851Y-113208970D01*
X146191542Y-113146686D01*
X146371129Y-113055182D01*
X146534190Y-112936711D01*
X146676711Y-112794190D01*
X146795182Y-112631129D01*
X146886686Y-112451542D01*
X146948970Y-112259851D01*
X146967003Y-112145996D01*
X146980500Y-112060783D01*
X146980500Y-111859216D01*
X146961273Y-111737826D01*
X146948970Y-111660149D01*
X146886686Y-111468458D01*
X146795182Y-111288871D01*
X146676711Y-111125810D01*
X146534190Y-110983289D01*
X146371129Y-110864818D01*
X146244867Y-110800484D01*
X146194072Y-110752510D01*
X146177277Y-110684690D01*
X146199814Y-110618555D01*
X146244868Y-110579515D01*
X146371129Y-110515182D01*
X146534190Y-110396711D01*
X146676711Y-110254190D01*
X146795182Y-110091129D01*
X146886686Y-109911542D01*
X146948970Y-109719851D01*
X146967003Y-109605996D01*
X146980500Y-109520783D01*
X146980500Y-109319216D01*
X146962156Y-109203408D01*
X146948970Y-109120149D01*
X146886686Y-108928458D01*
X146795182Y-108748871D01*
X146676711Y-108585810D01*
X146534190Y-108443289D01*
X146371129Y-108324818D01*
X146244867Y-108260484D01*
X146194072Y-108212510D01*
X146177277Y-108144690D01*
X146199814Y-108078555D01*
X146244868Y-108039515D01*
X146371129Y-107975182D01*
X146534190Y-107856711D01*
X146676711Y-107714190D01*
X146795182Y-107551129D01*
X146886686Y-107371542D01*
X146948970Y-107179851D01*
X146967003Y-107065996D01*
X146980500Y-106980783D01*
X146980500Y-106779216D01*
X146962156Y-106663408D01*
X146948970Y-106580149D01*
X146886686Y-106388458D01*
X146795182Y-106208871D01*
X146676711Y-106045810D01*
X146534190Y-105903289D01*
X146371129Y-105784818D01*
X146244867Y-105720484D01*
X146194072Y-105672510D01*
X146177277Y-105604690D01*
X146199814Y-105538555D01*
X146244868Y-105499515D01*
X146371129Y-105435182D01*
X146534190Y-105316711D01*
X146676711Y-105174190D01*
X146795182Y-105011129D01*
X146886686Y-104831542D01*
X146948970Y-104639851D01*
X146967003Y-104525996D01*
X146980500Y-104440783D01*
X146980500Y-104239216D01*
X146962156Y-104123408D01*
X146948970Y-104040149D01*
X146900164Y-103889939D01*
X146886687Y-103848460D01*
X146795181Y-103668870D01*
X146676711Y-103505810D01*
X146534190Y-103363289D01*
X146371129Y-103244818D01*
X146244867Y-103180484D01*
X146194072Y-103132510D01*
X146177277Y-103064690D01*
X146199814Y-102998555D01*
X146244868Y-102959515D01*
X146371129Y-102895182D01*
X146534190Y-102776711D01*
X146676711Y-102634190D01*
X146795182Y-102471129D01*
X146886686Y-102291542D01*
X146948970Y-102099851D01*
X146967003Y-101985996D01*
X146980500Y-101900783D01*
X146980500Y-101699216D01*
X146962156Y-101583408D01*
X146948970Y-101500149D01*
X146886686Y-101308458D01*
X146795182Y-101128871D01*
X146676711Y-100965810D01*
X146534190Y-100823289D01*
X146371129Y-100704818D01*
X146244867Y-100640484D01*
X146194072Y-100592510D01*
X146177277Y-100524690D01*
X146199814Y-100458555D01*
X146244868Y-100419515D01*
X146371129Y-100355182D01*
X146534190Y-100236711D01*
X146676711Y-100094190D01*
X146795182Y-99931129D01*
X146886686Y-99751542D01*
X146948970Y-99559851D01*
X146967003Y-99445996D01*
X146980500Y-99360783D01*
X146980500Y-99159220D01*
X146978547Y-99146891D01*
X146975304Y-99126417D01*
X146984257Y-99057125D01*
X147029252Y-99003672D01*
X147096003Y-98983031D01*
X147163318Y-99001754D01*
X147185458Y-99019337D01*
X147388181Y-99222060D01*
X147421666Y-99283383D01*
X147424500Y-99309741D01*
X147424500Y-104167765D01*
X147463719Y-104314136D01*
X147501602Y-104379750D01*
X147539485Y-104445365D01*
X147539487Y-104445367D01*
X149174911Y-106080791D01*
X149208396Y-106142114D01*
X149205162Y-106206788D01*
X149182753Y-106275757D01*
X149164903Y-106388460D01*
X149149500Y-106485713D01*
X149149500Y-106698287D01*
X149182754Y-106908243D01*
X149234011Y-107065996D01*
X149248444Y-107110414D01*
X149344951Y-107299820D01*
X149469890Y-107471786D01*
X149620213Y-107622109D01*
X149792182Y-107747050D01*
X149800946Y-107751516D01*
X149851742Y-107799491D01*
X149868536Y-107867312D01*
X149845998Y-107933447D01*
X149800946Y-107972484D01*
X149792182Y-107976949D01*
X149620213Y-108101890D01*
X149469890Y-108252213D01*
X149344951Y-108424179D01*
X149248444Y-108613585D01*
X149182753Y-108815760D01*
X149167526Y-108911902D01*
X149149500Y-109025713D01*
X149149500Y-109238287D01*
X149182754Y-109448243D01*
X149234707Y-109608138D01*
X149248444Y-109650414D01*
X149344951Y-109839820D01*
X149469890Y-110011786D01*
X149583818Y-110125714D01*
X149617303Y-110187037D01*
X149612319Y-110256729D01*
X149570447Y-110312662D01*
X149539471Y-110329577D01*
X149407912Y-110378646D01*
X149407906Y-110378649D01*
X149292812Y-110464809D01*
X149292809Y-110464812D01*
X149206649Y-110579906D01*
X149206645Y-110579913D01*
X149156403Y-110714620D01*
X149156401Y-110714627D01*
X149150000Y-110774155D01*
X149150000Y-111422000D01*
X150066988Y-111422000D01*
X150034075Y-111479007D01*
X150000000Y-111606174D01*
X150000000Y-111737826D01*
X150034075Y-111864993D01*
X150066988Y-111922000D01*
X149150000Y-111922000D01*
X149150000Y-112569844D01*
X149156401Y-112629372D01*
X149156403Y-112629379D01*
X149206645Y-112764086D01*
X149206649Y-112764093D01*
X149292809Y-112879187D01*
X149292812Y-112879190D01*
X149407906Y-112965350D01*
X149407913Y-112965354D01*
X149542620Y-113015596D01*
X149542627Y-113015598D01*
X149602155Y-113021999D01*
X149602172Y-113022000D01*
X150250000Y-113022000D01*
X150250000Y-112105012D01*
X150307007Y-112137925D01*
X150434174Y-112172000D01*
X150565826Y-112172000D01*
X150692993Y-112137925D01*
X150750000Y-112105012D01*
X150750000Y-113022000D01*
X151397828Y-113022000D01*
X151397844Y-113021999D01*
X151457372Y-113015598D01*
X151457379Y-113015596D01*
X151592086Y-112965354D01*
X151592093Y-112965350D01*
X151707187Y-112879190D01*
X151707190Y-112879187D01*
X151793350Y-112764093D01*
X151793354Y-112764086D01*
X151843596Y-112629379D01*
X151843598Y-112629372D01*
X151849999Y-112569844D01*
X151850000Y-112569827D01*
X151850000Y-111922000D01*
X150933012Y-111922000D01*
X150965925Y-111864993D01*
X151000000Y-111737826D01*
X151000000Y-111606174D01*
X150965925Y-111479007D01*
X150933012Y-111422000D01*
X151850000Y-111422000D01*
X151850000Y-110774172D01*
X151849999Y-110774155D01*
X151843598Y-110714627D01*
X151843596Y-110714620D01*
X151793354Y-110579913D01*
X151793350Y-110579906D01*
X151707190Y-110464812D01*
X151707187Y-110464809D01*
X151592093Y-110378649D01*
X151592088Y-110378646D01*
X151460528Y-110329577D01*
X151404595Y-110287705D01*
X151380178Y-110222241D01*
X151395030Y-110153968D01*
X151416175Y-110125720D01*
X151530104Y-110011792D01*
X151655051Y-109839816D01*
X151751557Y-109650412D01*
X151817246Y-109448243D01*
X151850500Y-109238287D01*
X151850500Y-109025713D01*
X151817246Y-108815757D01*
X151751557Y-108613588D01*
X151655051Y-108424184D01*
X151655049Y-108424181D01*
X151655048Y-108424179D01*
X151530109Y-108252213D01*
X151379786Y-108101890D01*
X151207820Y-107976951D01*
X151204346Y-107975181D01*
X151199054Y-107972485D01*
X151148259Y-107924512D01*
X151131463Y-107856692D01*
X151153999Y-107790556D01*
X151199054Y-107751515D01*
X151207816Y-107747051D01*
X151309697Y-107673031D01*
X151379786Y-107622109D01*
X151379788Y-107622106D01*
X151379792Y-107622104D01*
X151530104Y-107471792D01*
X151530106Y-107471788D01*
X151530109Y-107471786D01*
X151655048Y-107299820D01*
X151655047Y-107299820D01*
X151655051Y-107299816D01*
X151751557Y-107110412D01*
X151817246Y-106908243D01*
X151850500Y-106698287D01*
X151850500Y-106485713D01*
X152899500Y-106485713D01*
X152899500Y-106698287D01*
X152932754Y-106908243D01*
X152984011Y-107065996D01*
X152998444Y-107110414D01*
X153094951Y-107299820D01*
X153219890Y-107471786D01*
X153370213Y-107622109D01*
X153542182Y-107747050D01*
X153550946Y-107751516D01*
X153601742Y-107799491D01*
X153618536Y-107867312D01*
X153595998Y-107933447D01*
X153550946Y-107972484D01*
X153542182Y-107976949D01*
X153370213Y-108101890D01*
X153219890Y-108252213D01*
X153094951Y-108424179D01*
X152998444Y-108613585D01*
X152932753Y-108815760D01*
X152917526Y-108911902D01*
X152899500Y-109025713D01*
X152899500Y-109238287D01*
X152932754Y-109448243D01*
X152984707Y-109608138D01*
X152998444Y-109650414D01*
X153094951Y-109839820D01*
X153219890Y-110011786D01*
X153333818Y-110125714D01*
X153367303Y-110187037D01*
X153362319Y-110256729D01*
X153320447Y-110312662D01*
X153289471Y-110329577D01*
X153157912Y-110378646D01*
X153157906Y-110378649D01*
X153042812Y-110464809D01*
X153042809Y-110464812D01*
X152956649Y-110579906D01*
X152956645Y-110579913D01*
X152906403Y-110714620D01*
X152906401Y-110714627D01*
X152900000Y-110774155D01*
X152900000Y-111422000D01*
X153816988Y-111422000D01*
X153784075Y-111479007D01*
X153750000Y-111606174D01*
X153750000Y-111737826D01*
X153784075Y-111864993D01*
X153816988Y-111922000D01*
X152900000Y-111922000D01*
X152900000Y-112569844D01*
X152906401Y-112629372D01*
X152906403Y-112629379D01*
X152956645Y-112764086D01*
X152956649Y-112764093D01*
X153042809Y-112879187D01*
X153042812Y-112879190D01*
X153157906Y-112965350D01*
X153157913Y-112965354D01*
X153292620Y-113015596D01*
X153292627Y-113015598D01*
X153352155Y-113021999D01*
X153352172Y-113022000D01*
X154000000Y-113022000D01*
X154000000Y-112105012D01*
X154057007Y-112137925D01*
X154184174Y-112172000D01*
X154315826Y-112172000D01*
X154442993Y-112137925D01*
X154500000Y-112105012D01*
X154500000Y-113022000D01*
X155147828Y-113022000D01*
X155147844Y-113021999D01*
X155207372Y-113015598D01*
X155207379Y-113015596D01*
X155342086Y-112965354D01*
X155342093Y-112965350D01*
X155457187Y-112879190D01*
X155457190Y-112879187D01*
X155543350Y-112764093D01*
X155543354Y-112764086D01*
X155593596Y-112629379D01*
X155593598Y-112629372D01*
X155599999Y-112569844D01*
X155600000Y-112569827D01*
X155600000Y-111922000D01*
X154683012Y-111922000D01*
X154715925Y-111864993D01*
X154750000Y-111737826D01*
X154750000Y-111606174D01*
X154715925Y-111479007D01*
X154683012Y-111422000D01*
X155600000Y-111422000D01*
X155600000Y-110774172D01*
X155599999Y-110774155D01*
X155593598Y-110714627D01*
X155593596Y-110714620D01*
X155543354Y-110579913D01*
X155543350Y-110579906D01*
X155457190Y-110464812D01*
X155457187Y-110464809D01*
X155342093Y-110378649D01*
X155342088Y-110378646D01*
X155210528Y-110329577D01*
X155154595Y-110287705D01*
X155130178Y-110222241D01*
X155145030Y-110153968D01*
X155166175Y-110125720D01*
X155280104Y-110011792D01*
X155405051Y-109839816D01*
X155501557Y-109650412D01*
X155567246Y-109448243D01*
X155600500Y-109238287D01*
X155600500Y-109025713D01*
X155567246Y-108815757D01*
X155501557Y-108613588D01*
X155405051Y-108424184D01*
X155405049Y-108424181D01*
X155405048Y-108424179D01*
X155280109Y-108252213D01*
X155129786Y-108101890D01*
X154957820Y-107976951D01*
X154954346Y-107975181D01*
X154949054Y-107972485D01*
X154898259Y-107924512D01*
X154881463Y-107856692D01*
X154903999Y-107790556D01*
X154949054Y-107751515D01*
X154957816Y-107747051D01*
X155059697Y-107673031D01*
X155129786Y-107622109D01*
X155129788Y-107622106D01*
X155129792Y-107622104D01*
X155280104Y-107471792D01*
X155280106Y-107471788D01*
X155280109Y-107471786D01*
X155405048Y-107299820D01*
X155405047Y-107299820D01*
X155405051Y-107299816D01*
X155501557Y-107110412D01*
X155567246Y-106908243D01*
X155600500Y-106698287D01*
X155600500Y-106485713D01*
X156649500Y-106485713D01*
X156649500Y-106698287D01*
X156682754Y-106908243D01*
X156734011Y-107065996D01*
X156748444Y-107110414D01*
X156844951Y-107299820D01*
X156969890Y-107471786D01*
X157120213Y-107622109D01*
X157292182Y-107747050D01*
X157300946Y-107751516D01*
X157351742Y-107799491D01*
X157368536Y-107867312D01*
X157345998Y-107933447D01*
X157300946Y-107972484D01*
X157292182Y-107976949D01*
X157120213Y-108101890D01*
X156969890Y-108252213D01*
X156844951Y-108424179D01*
X156748444Y-108613585D01*
X156682753Y-108815760D01*
X156667526Y-108911902D01*
X156649500Y-109025713D01*
X156649500Y-109238287D01*
X156682754Y-109448243D01*
X156734707Y-109608138D01*
X156748444Y-109650414D01*
X156844951Y-109839820D01*
X156969890Y-110011786D01*
X157083818Y-110125714D01*
X157117303Y-110187037D01*
X157112319Y-110256729D01*
X157070447Y-110312662D01*
X157039471Y-110329577D01*
X156907912Y-110378646D01*
X156907906Y-110378649D01*
X156792812Y-110464809D01*
X156792809Y-110464812D01*
X156706649Y-110579906D01*
X156706645Y-110579913D01*
X156656403Y-110714620D01*
X156656401Y-110714627D01*
X156650000Y-110774155D01*
X156650000Y-111422000D01*
X157566988Y-111422000D01*
X157534075Y-111479007D01*
X157500000Y-111606174D01*
X157500000Y-111737826D01*
X157534075Y-111864993D01*
X157566988Y-111922000D01*
X156650000Y-111922000D01*
X156650000Y-112569844D01*
X156656401Y-112629372D01*
X156656403Y-112629379D01*
X156706645Y-112764086D01*
X156706649Y-112764093D01*
X156792809Y-112879187D01*
X156792812Y-112879190D01*
X156907906Y-112965350D01*
X156907913Y-112965354D01*
X157042620Y-113015596D01*
X157042627Y-113015598D01*
X157102155Y-113021999D01*
X157102172Y-113022000D01*
X157750000Y-113022000D01*
X157750000Y-112105012D01*
X157807007Y-112137925D01*
X157934174Y-112172000D01*
X158065826Y-112172000D01*
X158192993Y-112137925D01*
X158250000Y-112105012D01*
X158250000Y-113022000D01*
X158897828Y-113022000D01*
X158897844Y-113021999D01*
X158957372Y-113015598D01*
X158957379Y-113015596D01*
X159092086Y-112965354D01*
X159092093Y-112965350D01*
X159207187Y-112879190D01*
X159207190Y-112879187D01*
X159293350Y-112764093D01*
X159293354Y-112764086D01*
X159343596Y-112629379D01*
X159343598Y-112629372D01*
X159349999Y-112569844D01*
X159350000Y-112569827D01*
X159350000Y-111922000D01*
X158433012Y-111922000D01*
X158465925Y-111864993D01*
X158500000Y-111737826D01*
X158500000Y-111606174D01*
X158465925Y-111479007D01*
X158433012Y-111422000D01*
X159350000Y-111422000D01*
X159350000Y-110774172D01*
X159349999Y-110774155D01*
X159343598Y-110714627D01*
X159343596Y-110714620D01*
X159293354Y-110579913D01*
X159293350Y-110579906D01*
X159207190Y-110464812D01*
X159207187Y-110464809D01*
X159092093Y-110378649D01*
X159092088Y-110378646D01*
X158960528Y-110329577D01*
X158904595Y-110287705D01*
X158880178Y-110222241D01*
X158895030Y-110153968D01*
X158916175Y-110125720D01*
X159030104Y-110011792D01*
X159155051Y-109839816D01*
X159251557Y-109650412D01*
X159317246Y-109448243D01*
X159350500Y-109238287D01*
X159350500Y-109025713D01*
X159317246Y-108815757D01*
X159251557Y-108613588D01*
X159155051Y-108424184D01*
X159155049Y-108424181D01*
X159155048Y-108424179D01*
X159030109Y-108252213D01*
X158879786Y-108101890D01*
X158707820Y-107976951D01*
X158704346Y-107975181D01*
X158699054Y-107972485D01*
X158648259Y-107924512D01*
X158631463Y-107856692D01*
X158653999Y-107790556D01*
X158699054Y-107751515D01*
X158707816Y-107747051D01*
X158809697Y-107673031D01*
X158879786Y-107622109D01*
X158879788Y-107622106D01*
X158879792Y-107622104D01*
X159030104Y-107471792D01*
X159030106Y-107471788D01*
X159030109Y-107471786D01*
X159155048Y-107299820D01*
X159155047Y-107299820D01*
X159155051Y-107299816D01*
X159251557Y-107110412D01*
X159317246Y-106908243D01*
X159350500Y-106698287D01*
X159350500Y-106485713D01*
X160399500Y-106485713D01*
X160399500Y-106698287D01*
X160432754Y-106908243D01*
X160484011Y-107065996D01*
X160498444Y-107110414D01*
X160594951Y-107299820D01*
X160719890Y-107471786D01*
X160870213Y-107622109D01*
X161042182Y-107747050D01*
X161050946Y-107751516D01*
X161101742Y-107799491D01*
X161118536Y-107867312D01*
X161095998Y-107933447D01*
X161050946Y-107972484D01*
X161042182Y-107976949D01*
X160870213Y-108101890D01*
X160719890Y-108252213D01*
X160594951Y-108424179D01*
X160498444Y-108613585D01*
X160432753Y-108815760D01*
X160417526Y-108911902D01*
X160399500Y-109025713D01*
X160399500Y-109238287D01*
X160432754Y-109448243D01*
X160484707Y-109608138D01*
X160498444Y-109650414D01*
X160594951Y-109839820D01*
X160719890Y-110011786D01*
X160833818Y-110125714D01*
X160867303Y-110187037D01*
X160862319Y-110256729D01*
X160820447Y-110312662D01*
X160789471Y-110329577D01*
X160657912Y-110378646D01*
X160657906Y-110378649D01*
X160542812Y-110464809D01*
X160542809Y-110464812D01*
X160456649Y-110579906D01*
X160456645Y-110579913D01*
X160406403Y-110714620D01*
X160406401Y-110714627D01*
X160400000Y-110774155D01*
X160400000Y-111422000D01*
X161316988Y-111422000D01*
X161284075Y-111479007D01*
X161250000Y-111606174D01*
X161250000Y-111737826D01*
X161284075Y-111864993D01*
X161316988Y-111922000D01*
X160400000Y-111922000D01*
X160400000Y-112569844D01*
X160406401Y-112629372D01*
X160406403Y-112629379D01*
X160456645Y-112764086D01*
X160456649Y-112764093D01*
X160542809Y-112879187D01*
X160542812Y-112879190D01*
X160657906Y-112965350D01*
X160657913Y-112965354D01*
X160792620Y-113015596D01*
X160792627Y-113015598D01*
X160852155Y-113021999D01*
X160852172Y-113022000D01*
X161500000Y-113022000D01*
X161500000Y-112105012D01*
X161557007Y-112137925D01*
X161684174Y-112172000D01*
X161815826Y-112172000D01*
X161942993Y-112137925D01*
X162000000Y-112105012D01*
X162000000Y-113022000D01*
X162647828Y-113022000D01*
X162647844Y-113021999D01*
X162707372Y-113015598D01*
X162707379Y-113015596D01*
X162842086Y-112965354D01*
X162842093Y-112965350D01*
X162957187Y-112879190D01*
X162957190Y-112879187D01*
X163043350Y-112764093D01*
X163043354Y-112764086D01*
X163093596Y-112629379D01*
X163093598Y-112629372D01*
X163099999Y-112569844D01*
X163100000Y-112569827D01*
X163100000Y-111922000D01*
X162183012Y-111922000D01*
X162215925Y-111864993D01*
X162250000Y-111737826D01*
X162250000Y-111606174D01*
X162215925Y-111479007D01*
X162183012Y-111422000D01*
X163100000Y-111422000D01*
X163100000Y-110774172D01*
X163099999Y-110774155D01*
X163093598Y-110714627D01*
X163093596Y-110714620D01*
X163043354Y-110579913D01*
X163043350Y-110579906D01*
X162957190Y-110464812D01*
X162957187Y-110464809D01*
X162842093Y-110378649D01*
X162842088Y-110378646D01*
X162710528Y-110329577D01*
X162654595Y-110287705D01*
X162630178Y-110222241D01*
X162645030Y-110153968D01*
X162666175Y-110125720D01*
X162780104Y-110011792D01*
X162905051Y-109839816D01*
X163001557Y-109650412D01*
X163067246Y-109448243D01*
X163100500Y-109238287D01*
X163100500Y-109025713D01*
X163067246Y-108815757D01*
X163001557Y-108613588D01*
X162905051Y-108424184D01*
X162905049Y-108424181D01*
X162905048Y-108424179D01*
X162780109Y-108252213D01*
X162629786Y-108101890D01*
X162457820Y-107976951D01*
X162454346Y-107975181D01*
X162449054Y-107972485D01*
X162398259Y-107924512D01*
X162381463Y-107856692D01*
X162403999Y-107790556D01*
X162449054Y-107751515D01*
X162457816Y-107747051D01*
X162559697Y-107673031D01*
X162629786Y-107622109D01*
X162629788Y-107622106D01*
X162629792Y-107622104D01*
X162780104Y-107471792D01*
X162780106Y-107471788D01*
X162780109Y-107471786D01*
X162905048Y-107299820D01*
X162905047Y-107299820D01*
X162905051Y-107299816D01*
X163001557Y-107110412D01*
X163067246Y-106908243D01*
X163100500Y-106698287D01*
X163100500Y-106485713D01*
X163067246Y-106275757D01*
X163001557Y-106073588D01*
X162905051Y-105884184D01*
X162905049Y-105884181D01*
X162905048Y-105884179D01*
X162780109Y-105712213D01*
X162629786Y-105561890D01*
X162457820Y-105436951D01*
X162268414Y-105340444D01*
X162268413Y-105340443D01*
X162268412Y-105340443D01*
X162066243Y-105274754D01*
X162066241Y-105274753D01*
X162066240Y-105274753D01*
X161904957Y-105249208D01*
X161856287Y-105241500D01*
X161643713Y-105241500D01*
X161595042Y-105249208D01*
X161433760Y-105274753D01*
X161231585Y-105340444D01*
X161042179Y-105436951D01*
X160870213Y-105561890D01*
X160719890Y-105712213D01*
X160594951Y-105884179D01*
X160498444Y-106073585D01*
X160432753Y-106275760D01*
X160417526Y-106371902D01*
X160399500Y-106485713D01*
X159350500Y-106485713D01*
X159317246Y-106275757D01*
X159251557Y-106073588D01*
X159155051Y-105884184D01*
X159155049Y-105884181D01*
X159155048Y-105884179D01*
X159030109Y-105712213D01*
X158879786Y-105561890D01*
X158707820Y-105436951D01*
X158518414Y-105340444D01*
X158518413Y-105340443D01*
X158518412Y-105340443D01*
X158316243Y-105274754D01*
X158316241Y-105274753D01*
X158316240Y-105274753D01*
X158154957Y-105249208D01*
X158106287Y-105241500D01*
X157893713Y-105241500D01*
X157845042Y-105249208D01*
X157683760Y-105274753D01*
X157481585Y-105340444D01*
X157292179Y-105436951D01*
X157120213Y-105561890D01*
X156969890Y-105712213D01*
X156844951Y-105884179D01*
X156748444Y-106073585D01*
X156682753Y-106275760D01*
X156667526Y-106371902D01*
X156649500Y-106485713D01*
X155600500Y-106485713D01*
X155567246Y-106275757D01*
X155501557Y-106073588D01*
X155405051Y-105884184D01*
X155405049Y-105884181D01*
X155405048Y-105884179D01*
X155280109Y-105712213D01*
X155129786Y-105561890D01*
X154957820Y-105436951D01*
X154768414Y-105340444D01*
X154768413Y-105340443D01*
X154768412Y-105340443D01*
X154566243Y-105274754D01*
X154566241Y-105274753D01*
X154566240Y-105274753D01*
X154404957Y-105249208D01*
X154356287Y-105241500D01*
X154143713Y-105241500D01*
X154095042Y-105249208D01*
X153933760Y-105274753D01*
X153731585Y-105340444D01*
X153542179Y-105436951D01*
X153370213Y-105561890D01*
X153219890Y-105712213D01*
X153094951Y-105884179D01*
X152998444Y-106073585D01*
X152932753Y-106275760D01*
X152917526Y-106371902D01*
X152899500Y-106485713D01*
X151850500Y-106485713D01*
X151817246Y-106275757D01*
X151751557Y-106073588D01*
X151655051Y-105884184D01*
X151655049Y-105884181D01*
X151655048Y-105884179D01*
X151530109Y-105712213D01*
X151379786Y-105561890D01*
X151207820Y-105436951D01*
X151018414Y-105340444D01*
X151018413Y-105340443D01*
X151018412Y-105340443D01*
X150816243Y-105274754D01*
X150816241Y-105274753D01*
X150816240Y-105274753D01*
X150654957Y-105249208D01*
X150606287Y-105241500D01*
X150393713Y-105241500D01*
X150365006Y-105246046D01*
X150183757Y-105274753D01*
X150114788Y-105297162D01*
X150044947Y-105299156D01*
X149988791Y-105266911D01*
X148611819Y-103889939D01*
X148578334Y-103828616D01*
X148575500Y-103802258D01*
X148575500Y-98944236D01*
X148575500Y-98944234D01*
X148536281Y-98797865D01*
X148460515Y-98666635D01*
X148353365Y-98559485D01*
X148353364Y-98559484D01*
X148349034Y-98555154D01*
X148349023Y-98555144D01*
X146969535Y-97175655D01*
X146936050Y-97114332D01*
X146939284Y-97049658D01*
X146948970Y-97019851D01*
X146954346Y-96985909D01*
X146980500Y-96820783D01*
X146980500Y-96619216D01*
X146962156Y-96503408D01*
X146948970Y-96420149D01*
X146886686Y-96228458D01*
X146795182Y-96048871D01*
X146676711Y-95885810D01*
X146534190Y-95743289D01*
X146371129Y-95624818D01*
X146244867Y-95560484D01*
X146194072Y-95512510D01*
X146177277Y-95444690D01*
X146199814Y-95378555D01*
X146244868Y-95339515D01*
X146371129Y-95275182D01*
X146534190Y-95156711D01*
X146676711Y-95014190D01*
X146795182Y-94851129D01*
X146886686Y-94671542D01*
X146948970Y-94479851D01*
X146975872Y-94310000D01*
X146980500Y-94280783D01*
X146980500Y-94079216D01*
X146962156Y-93963408D01*
X146948970Y-93880149D01*
X146917828Y-93784303D01*
X146886687Y-93688460D01*
X146795181Y-93508870D01*
X146775579Y-93481890D01*
X146676711Y-93345810D01*
X146534190Y-93203289D01*
X146371129Y-93084818D01*
X146244867Y-93020484D01*
X146194072Y-92972510D01*
X146177277Y-92904690D01*
X146199814Y-92838555D01*
X146244868Y-92799515D01*
X146247498Y-92798175D01*
X146371129Y-92735182D01*
X146534190Y-92616711D01*
X146676711Y-92474190D01*
X146795182Y-92311129D01*
X146886686Y-92131542D01*
X146948970Y-91939851D01*
X146965214Y-91837289D01*
X146980500Y-91740783D01*
X146980500Y-91539216D01*
X146962156Y-91423408D01*
X146948970Y-91340149D01*
X146911835Y-91225858D01*
X146886687Y-91148460D01*
X146813996Y-91005795D01*
X146801100Y-90937125D01*
X146827376Y-90872385D01*
X146884483Y-90832128D01*
X146924481Y-90825500D01*
X147710258Y-90825500D01*
X147777297Y-90845185D01*
X147797939Y-90861819D01*
X149888181Y-92952061D01*
X149902884Y-92978988D01*
X149919477Y-93004807D01*
X149920368Y-93011007D01*
X149921666Y-93013384D01*
X149924500Y-93039742D01*
X149924500Y-93213542D01*
X149904815Y-93280581D01*
X149856796Y-93324026D01*
X149792182Y-93356949D01*
X149620213Y-93481890D01*
X149469890Y-93632213D01*
X149344951Y-93804179D01*
X149248444Y-93993585D01*
X149182753Y-94195760D01*
X149149500Y-94405713D01*
X149149500Y-94618287D01*
X149182754Y-94828243D01*
X149244651Y-95018742D01*
X149248444Y-95030414D01*
X149344951Y-95219820D01*
X149469890Y-95391786D01*
X149620213Y-95542109D01*
X149792182Y-95667050D01*
X149800946Y-95671516D01*
X149851742Y-95719491D01*
X149868536Y-95787312D01*
X149845998Y-95853447D01*
X149800946Y-95892484D01*
X149792182Y-95896949D01*
X149620213Y-96021890D01*
X149469890Y-96172213D01*
X149344951Y-96344179D01*
X149248444Y-96533585D01*
X149182753Y-96735760D01*
X149169288Y-96820778D01*
X149149500Y-96945713D01*
X149149500Y-97158287D01*
X149182754Y-97368243D01*
X149243172Y-97554191D01*
X149248444Y-97570414D01*
X149344951Y-97759820D01*
X149469890Y-97931786D01*
X149583818Y-98045714D01*
X149617303Y-98107037D01*
X149612319Y-98176729D01*
X149570447Y-98232662D01*
X149539471Y-98249577D01*
X149407912Y-98298646D01*
X149407906Y-98298649D01*
X149292812Y-98384809D01*
X149292809Y-98384812D01*
X149206649Y-98499906D01*
X149206645Y-98499913D01*
X149156403Y-98634620D01*
X149156401Y-98634627D01*
X149150000Y-98694155D01*
X149150000Y-99342000D01*
X150066988Y-99342000D01*
X150034075Y-99399007D01*
X150000000Y-99526174D01*
X150000000Y-99657826D01*
X150034075Y-99784993D01*
X150066988Y-99842000D01*
X149150000Y-99842000D01*
X149150000Y-100489844D01*
X149156401Y-100549372D01*
X149156403Y-100549379D01*
X149206645Y-100684086D01*
X149206649Y-100684093D01*
X149292809Y-100799187D01*
X149292812Y-100799190D01*
X149407906Y-100885350D01*
X149407913Y-100885354D01*
X149542620Y-100935596D01*
X149542627Y-100935598D01*
X149602155Y-100941999D01*
X149602172Y-100942000D01*
X150250000Y-100942000D01*
X150250000Y-100025012D01*
X150307007Y-100057925D01*
X150434174Y-100092000D01*
X150565826Y-100092000D01*
X150692993Y-100057925D01*
X150750000Y-100025012D01*
X150750000Y-100942000D01*
X151397828Y-100942000D01*
X151397844Y-100941999D01*
X151457372Y-100935598D01*
X151457379Y-100935596D01*
X151592086Y-100885354D01*
X151592093Y-100885350D01*
X151707187Y-100799190D01*
X151707190Y-100799187D01*
X151793350Y-100684093D01*
X151793354Y-100684086D01*
X151843596Y-100549379D01*
X151843598Y-100549372D01*
X151849999Y-100489844D01*
X151850000Y-100489827D01*
X151850000Y-99842000D01*
X150933012Y-99842000D01*
X150965925Y-99784993D01*
X151000000Y-99657826D01*
X151000000Y-99526174D01*
X150965925Y-99399007D01*
X150933012Y-99342000D01*
X151850000Y-99342000D01*
X151850000Y-98694172D01*
X151849999Y-98694155D01*
X151843598Y-98634627D01*
X151843596Y-98634620D01*
X151793354Y-98499913D01*
X151793350Y-98499906D01*
X151707190Y-98384812D01*
X151707187Y-98384809D01*
X151592093Y-98298649D01*
X151592088Y-98298646D01*
X151460528Y-98249577D01*
X151404595Y-98207705D01*
X151380178Y-98142241D01*
X151395030Y-98073968D01*
X151416175Y-98045720D01*
X151530104Y-97931792D01*
X151539519Y-97918834D01*
X151655048Y-97759820D01*
X151655047Y-97759820D01*
X151655051Y-97759816D01*
X151751557Y-97570412D01*
X151817246Y-97368243D01*
X151850500Y-97158287D01*
X151850500Y-96945713D01*
X151817246Y-96735757D01*
X151751557Y-96533588D01*
X151655051Y-96344184D01*
X151655049Y-96344181D01*
X151655048Y-96344179D01*
X151530109Y-96172213D01*
X151379786Y-96021890D01*
X151207820Y-95896951D01*
X151207115Y-95896591D01*
X151199054Y-95892485D01*
X151148259Y-95844512D01*
X151131463Y-95776692D01*
X151153999Y-95710556D01*
X151199054Y-95671515D01*
X151207816Y-95667051D01*
X151265945Y-95624818D01*
X151379786Y-95542109D01*
X151379788Y-95542106D01*
X151379792Y-95542104D01*
X151530104Y-95391792D01*
X151530106Y-95391788D01*
X151530109Y-95391786D01*
X151655048Y-95219820D01*
X151655047Y-95219820D01*
X151655051Y-95219816D01*
X151751557Y-95030412D01*
X151817246Y-94828243D01*
X151850500Y-94618287D01*
X151850500Y-94405713D01*
X151817246Y-94195757D01*
X151751557Y-93993588D01*
X151655051Y-93804184D01*
X151655049Y-93804181D01*
X151655048Y-93804179D01*
X151530109Y-93632213D01*
X151379786Y-93481890D01*
X151207817Y-93356949D01*
X151143204Y-93324026D01*
X151092408Y-93276051D01*
X151075500Y-93213542D01*
X151075500Y-92674236D01*
X151075500Y-92674234D01*
X151036281Y-92527865D01*
X150960515Y-92396635D01*
X150853365Y-92289485D01*
X149851061Y-91287181D01*
X149817576Y-91225858D01*
X149822560Y-91156166D01*
X149864432Y-91100233D01*
X149929896Y-91075816D01*
X149938742Y-91075500D01*
X151710258Y-91075500D01*
X151777297Y-91095185D01*
X151797939Y-91111819D01*
X153638181Y-92952061D01*
X153652884Y-92978988D01*
X153669477Y-93004807D01*
X153670368Y-93011007D01*
X153671666Y-93013384D01*
X153674500Y-93039742D01*
X153674500Y-93213542D01*
X153654815Y-93280581D01*
X153606796Y-93324026D01*
X153542182Y-93356949D01*
X153370213Y-93481890D01*
X153219890Y-93632213D01*
X153094951Y-93804179D01*
X152998444Y-93993585D01*
X152932753Y-94195760D01*
X152899500Y-94405713D01*
X152899500Y-94618287D01*
X152932754Y-94828243D01*
X152994651Y-95018742D01*
X152998444Y-95030414D01*
X153094951Y-95219820D01*
X153219890Y-95391786D01*
X153370213Y-95542109D01*
X153542182Y-95667050D01*
X153550946Y-95671516D01*
X153601742Y-95719491D01*
X153618536Y-95787312D01*
X153595998Y-95853447D01*
X153550946Y-95892484D01*
X153542182Y-95896949D01*
X153370213Y-96021890D01*
X153219890Y-96172213D01*
X153094951Y-96344179D01*
X152998444Y-96533585D01*
X152932753Y-96735760D01*
X152919288Y-96820778D01*
X152899500Y-96945713D01*
X152899500Y-97158287D01*
X152932754Y-97368243D01*
X152993172Y-97554191D01*
X152998444Y-97570414D01*
X153094951Y-97759820D01*
X153219890Y-97931786D01*
X153333818Y-98045714D01*
X153367303Y-98107037D01*
X153362319Y-98176729D01*
X153320447Y-98232662D01*
X153289471Y-98249577D01*
X153157912Y-98298646D01*
X153157906Y-98298649D01*
X153042812Y-98384809D01*
X153042809Y-98384812D01*
X152956649Y-98499906D01*
X152956645Y-98499913D01*
X152906403Y-98634620D01*
X152906401Y-98634627D01*
X152900000Y-98694155D01*
X152900000Y-99342000D01*
X153816988Y-99342000D01*
X153784075Y-99399007D01*
X153750000Y-99526174D01*
X153750000Y-99657826D01*
X153784075Y-99784993D01*
X153816988Y-99842000D01*
X152900000Y-99842000D01*
X152900000Y-100489844D01*
X152906401Y-100549372D01*
X152906403Y-100549379D01*
X152956645Y-100684086D01*
X152956649Y-100684093D01*
X153042809Y-100799187D01*
X153042812Y-100799190D01*
X153157906Y-100885350D01*
X153157913Y-100885354D01*
X153292620Y-100935596D01*
X153292627Y-100935598D01*
X153352155Y-100941999D01*
X153352172Y-100942000D01*
X154000000Y-100942000D01*
X154000000Y-100025012D01*
X154057007Y-100057925D01*
X154184174Y-100092000D01*
X154315826Y-100092000D01*
X154442993Y-100057925D01*
X154500000Y-100025012D01*
X154500000Y-100942000D01*
X155147828Y-100942000D01*
X155147844Y-100941999D01*
X155207372Y-100935598D01*
X155207379Y-100935596D01*
X155342086Y-100885354D01*
X155342093Y-100885350D01*
X155457187Y-100799190D01*
X155457190Y-100799187D01*
X155543350Y-100684093D01*
X155543354Y-100684086D01*
X155593596Y-100549379D01*
X155593598Y-100549372D01*
X155599999Y-100489844D01*
X155600000Y-100489827D01*
X155600000Y-99842000D01*
X154683012Y-99842000D01*
X154715925Y-99784993D01*
X154750000Y-99657826D01*
X154750000Y-99526174D01*
X154715925Y-99399007D01*
X154683012Y-99342000D01*
X155600000Y-99342000D01*
X155600000Y-98694172D01*
X155599999Y-98694155D01*
X155593598Y-98634627D01*
X155593596Y-98634620D01*
X155543354Y-98499913D01*
X155543350Y-98499906D01*
X155457190Y-98384812D01*
X155457187Y-98384809D01*
X155342093Y-98298649D01*
X155342088Y-98298646D01*
X155210528Y-98249577D01*
X155154595Y-98207705D01*
X155130178Y-98142241D01*
X155145030Y-98073968D01*
X155166175Y-98045720D01*
X155280104Y-97931792D01*
X155289519Y-97918834D01*
X155405048Y-97759820D01*
X155405047Y-97759820D01*
X155405051Y-97759816D01*
X155501557Y-97570412D01*
X155567246Y-97368243D01*
X155600500Y-97158287D01*
X155600500Y-96945713D01*
X155567246Y-96735757D01*
X155501557Y-96533588D01*
X155405051Y-96344184D01*
X155405049Y-96344181D01*
X155405048Y-96344179D01*
X155280109Y-96172213D01*
X155129786Y-96021890D01*
X154957820Y-95896951D01*
X154957115Y-95896591D01*
X154949054Y-95892485D01*
X154898259Y-95844512D01*
X154881463Y-95776692D01*
X154903999Y-95710556D01*
X154949054Y-95671515D01*
X154957816Y-95667051D01*
X155015945Y-95624818D01*
X155129786Y-95542109D01*
X155129788Y-95542106D01*
X155129792Y-95542104D01*
X155280104Y-95391792D01*
X155280106Y-95391788D01*
X155280109Y-95391786D01*
X155405048Y-95219820D01*
X155405047Y-95219820D01*
X155405051Y-95219816D01*
X155501557Y-95030412D01*
X155567246Y-94828243D01*
X155600500Y-94618287D01*
X155600500Y-94405713D01*
X155567246Y-94195757D01*
X155501557Y-93993588D01*
X155405051Y-93804184D01*
X155405049Y-93804181D01*
X155405048Y-93804179D01*
X155280109Y-93632213D01*
X155129786Y-93481890D01*
X154957817Y-93356949D01*
X154893204Y-93324026D01*
X154842408Y-93276051D01*
X154825500Y-93213542D01*
X154825500Y-92674236D01*
X154825500Y-92674234D01*
X154786281Y-92527865D01*
X154710515Y-92396635D01*
X154603365Y-92289485D01*
X153101061Y-90787181D01*
X153067576Y-90725858D01*
X153072560Y-90656166D01*
X153114432Y-90600233D01*
X153179896Y-90575816D01*
X153188742Y-90575500D01*
X154960258Y-90575500D01*
X155027297Y-90595185D01*
X155047939Y-90611819D01*
X157388181Y-92952061D01*
X157402884Y-92978988D01*
X157419477Y-93004807D01*
X157420368Y-93011007D01*
X157421666Y-93013384D01*
X157424500Y-93039742D01*
X157424500Y-93213542D01*
X157404815Y-93280581D01*
X157356796Y-93324026D01*
X157292182Y-93356949D01*
X157120213Y-93481890D01*
X156969890Y-93632213D01*
X156844951Y-93804179D01*
X156748444Y-93993585D01*
X156682753Y-94195760D01*
X156649500Y-94405713D01*
X156649500Y-94618287D01*
X156682754Y-94828243D01*
X156744651Y-95018742D01*
X156748444Y-95030414D01*
X156844951Y-95219820D01*
X156969890Y-95391786D01*
X157120213Y-95542109D01*
X157292182Y-95667050D01*
X157300946Y-95671516D01*
X157351742Y-95719491D01*
X157368536Y-95787312D01*
X157345998Y-95853447D01*
X157300946Y-95892484D01*
X157292182Y-95896949D01*
X157120213Y-96021890D01*
X156969890Y-96172213D01*
X156844951Y-96344179D01*
X156748444Y-96533585D01*
X156682753Y-96735760D01*
X156669288Y-96820778D01*
X156649500Y-96945713D01*
X156649500Y-97158287D01*
X156682754Y-97368243D01*
X156743172Y-97554191D01*
X156748444Y-97570414D01*
X156844951Y-97759820D01*
X156969890Y-97931786D01*
X157083818Y-98045714D01*
X157117303Y-98107037D01*
X157112319Y-98176729D01*
X157070447Y-98232662D01*
X157039471Y-98249577D01*
X156907912Y-98298646D01*
X156907906Y-98298649D01*
X156792812Y-98384809D01*
X156792809Y-98384812D01*
X156706649Y-98499906D01*
X156706645Y-98499913D01*
X156656403Y-98634620D01*
X156656401Y-98634627D01*
X156650000Y-98694155D01*
X156650000Y-99342000D01*
X157566988Y-99342000D01*
X157534075Y-99399007D01*
X157500000Y-99526174D01*
X157500000Y-99657826D01*
X157534075Y-99784993D01*
X157566988Y-99842000D01*
X156650000Y-99842000D01*
X156650000Y-100489844D01*
X156656401Y-100549372D01*
X156656403Y-100549379D01*
X156706645Y-100684086D01*
X156706649Y-100684093D01*
X156792809Y-100799187D01*
X156792812Y-100799190D01*
X156907906Y-100885350D01*
X156907913Y-100885354D01*
X157042620Y-100935596D01*
X157042627Y-100935598D01*
X157102155Y-100941999D01*
X157102172Y-100942000D01*
X157750000Y-100942000D01*
X157750000Y-100025012D01*
X157807007Y-100057925D01*
X157934174Y-100092000D01*
X158065826Y-100092000D01*
X158192993Y-100057925D01*
X158250000Y-100025012D01*
X158250000Y-100942000D01*
X158897828Y-100942000D01*
X158897844Y-100941999D01*
X158957372Y-100935598D01*
X158957379Y-100935596D01*
X159092086Y-100885354D01*
X159092093Y-100885350D01*
X159207187Y-100799190D01*
X159207190Y-100799187D01*
X159293350Y-100684093D01*
X159293354Y-100684086D01*
X159343596Y-100549379D01*
X159343598Y-100549372D01*
X159349999Y-100489844D01*
X159350000Y-100489827D01*
X159350000Y-99842000D01*
X158433012Y-99842000D01*
X158465925Y-99784993D01*
X158500000Y-99657826D01*
X158500000Y-99526174D01*
X158465925Y-99399007D01*
X158433012Y-99342000D01*
X159350000Y-99342000D01*
X159350000Y-98694172D01*
X159349999Y-98694155D01*
X159343598Y-98634627D01*
X159343596Y-98634620D01*
X159293354Y-98499913D01*
X159293350Y-98499906D01*
X159207190Y-98384812D01*
X159207187Y-98384809D01*
X159092093Y-98298649D01*
X159092088Y-98298646D01*
X158960528Y-98249577D01*
X158904595Y-98207705D01*
X158880178Y-98142241D01*
X158895030Y-98073968D01*
X158916175Y-98045720D01*
X159030104Y-97931792D01*
X159039519Y-97918834D01*
X159155048Y-97759820D01*
X159155047Y-97759820D01*
X159155051Y-97759816D01*
X159251557Y-97570412D01*
X159317246Y-97368243D01*
X159350500Y-97158287D01*
X159350500Y-96945713D01*
X159317246Y-96735757D01*
X159251557Y-96533588D01*
X159155051Y-96344184D01*
X159155049Y-96344181D01*
X159155048Y-96344179D01*
X159030109Y-96172213D01*
X158879786Y-96021890D01*
X158707820Y-95896951D01*
X158707115Y-95896591D01*
X158699054Y-95892485D01*
X158648259Y-95844512D01*
X158631463Y-95776692D01*
X158653999Y-95710556D01*
X158699054Y-95671515D01*
X158707816Y-95667051D01*
X158765945Y-95624818D01*
X158879786Y-95542109D01*
X158879788Y-95542106D01*
X158879792Y-95542104D01*
X159030104Y-95391792D01*
X159030106Y-95391788D01*
X159030109Y-95391786D01*
X159155048Y-95219820D01*
X159155047Y-95219820D01*
X159155051Y-95219816D01*
X159251557Y-95030412D01*
X159317246Y-94828243D01*
X159350500Y-94618287D01*
X159350500Y-94405713D01*
X159317246Y-94195757D01*
X159251557Y-93993588D01*
X159155051Y-93804184D01*
X159155049Y-93804181D01*
X159155048Y-93804179D01*
X159030109Y-93632213D01*
X158879786Y-93481890D01*
X158707817Y-93356949D01*
X158643204Y-93324026D01*
X158592408Y-93276051D01*
X158575500Y-93213542D01*
X158575500Y-92674236D01*
X158575500Y-92674234D01*
X158536281Y-92527865D01*
X158460515Y-92396635D01*
X158353365Y-92289485D01*
X156351061Y-90287181D01*
X156317576Y-90225858D01*
X156322560Y-90156166D01*
X156364432Y-90100233D01*
X156429896Y-90075816D01*
X156438742Y-90075500D01*
X158210258Y-90075500D01*
X158277297Y-90095185D01*
X158297939Y-90111819D01*
X161138181Y-92952061D01*
X161152884Y-92978988D01*
X161169477Y-93004807D01*
X161170368Y-93011007D01*
X161171666Y-93013384D01*
X161174500Y-93039742D01*
X161174500Y-93213542D01*
X161154815Y-93280581D01*
X161106796Y-93324026D01*
X161042182Y-93356949D01*
X160870213Y-93481890D01*
X160719890Y-93632213D01*
X160594951Y-93804179D01*
X160498444Y-93993585D01*
X160432753Y-94195760D01*
X160399500Y-94405713D01*
X160399500Y-94618287D01*
X160432754Y-94828243D01*
X160494651Y-95018742D01*
X160498444Y-95030414D01*
X160594951Y-95219820D01*
X160719890Y-95391786D01*
X160870213Y-95542109D01*
X161042182Y-95667050D01*
X161050946Y-95671516D01*
X161101742Y-95719491D01*
X161118536Y-95787312D01*
X161095998Y-95853447D01*
X161050946Y-95892484D01*
X161042182Y-95896949D01*
X160870213Y-96021890D01*
X160719890Y-96172213D01*
X160594951Y-96344179D01*
X160498444Y-96533585D01*
X160432753Y-96735760D01*
X160419288Y-96820778D01*
X160399500Y-96945713D01*
X160399500Y-97158287D01*
X160432754Y-97368243D01*
X160493172Y-97554191D01*
X160498444Y-97570414D01*
X160594951Y-97759820D01*
X160719890Y-97931786D01*
X160833818Y-98045714D01*
X160867303Y-98107037D01*
X160862319Y-98176729D01*
X160820447Y-98232662D01*
X160789471Y-98249577D01*
X160657912Y-98298646D01*
X160657906Y-98298649D01*
X160542812Y-98384809D01*
X160542809Y-98384812D01*
X160456649Y-98499906D01*
X160456645Y-98499913D01*
X160406403Y-98634620D01*
X160406401Y-98634627D01*
X160400000Y-98694155D01*
X160400000Y-99342000D01*
X161316988Y-99342000D01*
X161284075Y-99399007D01*
X161250000Y-99526174D01*
X161250000Y-99657826D01*
X161284075Y-99784993D01*
X161316988Y-99842000D01*
X160400000Y-99842000D01*
X160400000Y-100489844D01*
X160406401Y-100549372D01*
X160406403Y-100549379D01*
X160456645Y-100684086D01*
X160456649Y-100684093D01*
X160542809Y-100799187D01*
X160542812Y-100799190D01*
X160657906Y-100885350D01*
X160657913Y-100885354D01*
X160792620Y-100935596D01*
X160792627Y-100935598D01*
X160852155Y-100941999D01*
X160852172Y-100942000D01*
X161500000Y-100942000D01*
X161500000Y-100025012D01*
X161557007Y-100057925D01*
X161684174Y-100092000D01*
X161815826Y-100092000D01*
X161942993Y-100057925D01*
X162000000Y-100025012D01*
X162000000Y-100942000D01*
X162647828Y-100942000D01*
X162647844Y-100941999D01*
X162707372Y-100935598D01*
X162707379Y-100935596D01*
X162842086Y-100885354D01*
X162842093Y-100885350D01*
X162957187Y-100799190D01*
X162957190Y-100799187D01*
X163043350Y-100684093D01*
X163043354Y-100684086D01*
X163093596Y-100549379D01*
X163093598Y-100549372D01*
X163099999Y-100489844D01*
X163100000Y-100489827D01*
X163100000Y-99842000D01*
X162183012Y-99842000D01*
X162215925Y-99784993D01*
X162250000Y-99657826D01*
X162250000Y-99526174D01*
X162215925Y-99399007D01*
X162183012Y-99342000D01*
X163100000Y-99342000D01*
X163100000Y-98694172D01*
X163099999Y-98694155D01*
X163093598Y-98634627D01*
X163093596Y-98634620D01*
X163043354Y-98499913D01*
X163043350Y-98499906D01*
X162957190Y-98384812D01*
X162957187Y-98384809D01*
X162842093Y-98298649D01*
X162842088Y-98298646D01*
X162710528Y-98249577D01*
X162654595Y-98207705D01*
X162630178Y-98142241D01*
X162645030Y-98073968D01*
X162666175Y-98045720D01*
X162780104Y-97931792D01*
X162789519Y-97918834D01*
X162905048Y-97759820D01*
X162905047Y-97759820D01*
X162905051Y-97759816D01*
X163001557Y-97570412D01*
X163067246Y-97368243D01*
X163100500Y-97158287D01*
X163100500Y-96945713D01*
X163067246Y-96735757D01*
X163001557Y-96533588D01*
X162905051Y-96344184D01*
X162905049Y-96344181D01*
X162905048Y-96344179D01*
X162780109Y-96172213D01*
X162629786Y-96021890D01*
X162457820Y-95896951D01*
X162457115Y-95896591D01*
X162449054Y-95892485D01*
X162398259Y-95844512D01*
X162381463Y-95776692D01*
X162403999Y-95710556D01*
X162449054Y-95671515D01*
X162457816Y-95667051D01*
X162515945Y-95624818D01*
X162629786Y-95542109D01*
X162629788Y-95542106D01*
X162629792Y-95542104D01*
X162780104Y-95391792D01*
X162780106Y-95391788D01*
X162780109Y-95391786D01*
X162905048Y-95219820D01*
X162905047Y-95219820D01*
X162905051Y-95219816D01*
X163001557Y-95030412D01*
X163067246Y-94828243D01*
X163100500Y-94618287D01*
X163100500Y-94405713D01*
X163067246Y-94195757D01*
X163001557Y-93993588D01*
X162905051Y-93804184D01*
X162905049Y-93804181D01*
X162905048Y-93804179D01*
X162780109Y-93632213D01*
X162629786Y-93481890D01*
X162457817Y-93356949D01*
X162393204Y-93324026D01*
X162342408Y-93276051D01*
X162325500Y-93213542D01*
X162325500Y-92674236D01*
X162325500Y-92674234D01*
X162286281Y-92527865D01*
X162210515Y-92396635D01*
X162103365Y-92289485D01*
X158853365Y-89039485D01*
X158783617Y-88999216D01*
X158722136Y-88963719D01*
X158648950Y-88944109D01*
X158575766Y-88924500D01*
X158575765Y-88924500D01*
X153539742Y-88924500D01*
X153472703Y-88904815D01*
X153452061Y-88888181D01*
X153237561Y-88673681D01*
X153204076Y-88612358D01*
X153209060Y-88542666D01*
X153250932Y-88486733D01*
X153316396Y-88462316D01*
X153325242Y-88462000D01*
X154507828Y-88462000D01*
X154507844Y-88461999D01*
X154567372Y-88455598D01*
X154591169Y-88446721D01*
X153605740Y-87461292D01*
X153660712Y-87446563D01*
X153779287Y-87378104D01*
X153876104Y-87281287D01*
X153944563Y-87162712D01*
X153959292Y-87107740D01*
X154947391Y-88095839D01*
X155005833Y-88100021D01*
X155035378Y-88115880D01*
X155213567Y-88245343D01*
X155309399Y-88294172D01*
X155424003Y-88352566D01*
X155424005Y-88352566D01*
X155424008Y-88352568D01*
X155544412Y-88391689D01*
X155648631Y-88425553D01*
X155881903Y-88462500D01*
X155881908Y-88462500D01*
X156118097Y-88462500D01*
X156351368Y-88425553D01*
X156375238Y-88417797D01*
X156575992Y-88352568D01*
X156786433Y-88245343D01*
X156977510Y-88106517D01*
X157144517Y-87939510D01*
X157169682Y-87904872D01*
X157225011Y-87862207D01*
X157294625Y-87856228D01*
X157356420Y-87888833D01*
X157370315Y-87904870D01*
X157395483Y-87939510D01*
X157562490Y-88106517D01*
X157753567Y-88245343D01*
X157849399Y-88294172D01*
X157964003Y-88352566D01*
X157964005Y-88352566D01*
X157964008Y-88352568D01*
X158084412Y-88391689D01*
X158188631Y-88425553D01*
X158421903Y-88462500D01*
X158421908Y-88462500D01*
X158658097Y-88462500D01*
X158891368Y-88425553D01*
X158915238Y-88417797D01*
X159115992Y-88352568D01*
X159326433Y-88245343D01*
X159517510Y-88106517D01*
X159684517Y-87939510D01*
X159823343Y-87748433D01*
X159930568Y-87537992D01*
X160001336Y-87320190D01*
X160040774Y-87262515D01*
X160105132Y-87235317D01*
X160173979Y-87247232D01*
X160206948Y-87270828D01*
X163388181Y-90452061D01*
X163421666Y-90513384D01*
X163424500Y-90539742D01*
X163424500Y-95945765D01*
X163463719Y-96092136D01*
X163501602Y-96157750D01*
X163539485Y-96223365D01*
X163539487Y-96223367D01*
X165555870Y-98239750D01*
X165589355Y-98301073D01*
X165586120Y-98365748D01*
X165536448Y-98518623D01*
X165536447Y-98518630D01*
X165499500Y-98751902D01*
X165499500Y-98988097D01*
X165536446Y-99221368D01*
X165609433Y-99445996D01*
X165711865Y-99647028D01*
X165716657Y-99656433D01*
X165855483Y-99847510D01*
X166022490Y-100014517D01*
X166057127Y-100039683D01*
X166099792Y-100095013D01*
X166105771Y-100164626D01*
X166073165Y-100226421D01*
X166057130Y-100240315D01*
X166039365Y-100253222D01*
X166022488Y-100265484D01*
X165855485Y-100432487D01*
X165855485Y-100432488D01*
X165855483Y-100432490D01*
X165836546Y-100458555D01*
X165716657Y-100623566D01*
X165609433Y-100834003D01*
X165536446Y-101058631D01*
X165499500Y-101291902D01*
X165499500Y-101528097D01*
X165536446Y-101761368D01*
X165609433Y-101985996D01*
X165693166Y-102150329D01*
X165716657Y-102196433D01*
X165855483Y-102387510D01*
X166022490Y-102554517D01*
X166057127Y-102579683D01*
X166099792Y-102635013D01*
X166105771Y-102704626D01*
X166073165Y-102766421D01*
X166057130Y-102780315D01*
X166039365Y-102793222D01*
X166022488Y-102805484D01*
X165855485Y-102972487D01*
X165855485Y-102972488D01*
X165855483Y-102972490D01*
X165845169Y-102986686D01*
X165716657Y-103163566D01*
X165609433Y-103374003D01*
X165536446Y-103598631D01*
X165499500Y-103831902D01*
X165499500Y-104068097D01*
X165536446Y-104301368D01*
X165609433Y-104525996D01*
X165693166Y-104690329D01*
X165716657Y-104736433D01*
X165855483Y-104927510D01*
X166022490Y-105094517D01*
X166057127Y-105119683D01*
X166099792Y-105175013D01*
X166105771Y-105244626D01*
X166073165Y-105306421D01*
X166057130Y-105320315D01*
X166039365Y-105333222D01*
X166022488Y-105345484D01*
X165855485Y-105512487D01*
X165855485Y-105512488D01*
X165855483Y-105512490D01*
X165799917Y-105588970D01*
X165716657Y-105703566D01*
X165609433Y-105914003D01*
X165536446Y-106138631D01*
X165499500Y-106371902D01*
X165499500Y-106608097D01*
X165536446Y-106841368D01*
X165609433Y-107065996D01*
X165693166Y-107230329D01*
X165716657Y-107276433D01*
X165855483Y-107467510D01*
X166022490Y-107634517D01*
X166057127Y-107659683D01*
X166099792Y-107715013D01*
X166105771Y-107784626D01*
X166073165Y-107846421D01*
X166057130Y-107860315D01*
X166047500Y-107867312D01*
X166022488Y-107885484D01*
X165855485Y-108052487D01*
X165855485Y-108052488D01*
X165855483Y-108052490D01*
X165799917Y-108128970D01*
X165716657Y-108243566D01*
X165609433Y-108454003D01*
X165536446Y-108678631D01*
X165499500Y-108911902D01*
X165499500Y-109148097D01*
X165536446Y-109381368D01*
X165609433Y-109605996D01*
X165683519Y-109751396D01*
X165716657Y-109816433D01*
X165855483Y-110007510D01*
X166022490Y-110174517D01*
X166057127Y-110199683D01*
X166099792Y-110255013D01*
X166105771Y-110324626D01*
X166073165Y-110386421D01*
X166057130Y-110400315D01*
X166039365Y-110413222D01*
X166022488Y-110425484D01*
X165855485Y-110592487D01*
X165855485Y-110592488D01*
X165855483Y-110592490D01*
X165845169Y-110606686D01*
X165716657Y-110783566D01*
X165609433Y-110994003D01*
X165536446Y-111218631D01*
X165499500Y-111451902D01*
X165499500Y-111688097D01*
X165536446Y-111921368D01*
X165609433Y-112145996D01*
X165693166Y-112310329D01*
X165716657Y-112356433D01*
X165855483Y-112547510D01*
X166022490Y-112714517D01*
X166057127Y-112739683D01*
X166099792Y-112795013D01*
X166105771Y-112864626D01*
X166073165Y-112926421D01*
X166057130Y-112940315D01*
X166039365Y-112953222D01*
X166022488Y-112965484D01*
X165855485Y-113132487D01*
X165855485Y-113132488D01*
X165855483Y-113132490D01*
X165804937Y-113202061D01*
X165716657Y-113323566D01*
X165609433Y-113534003D01*
X165536446Y-113758631D01*
X165499500Y-113991902D01*
X165499500Y-114228097D01*
X165536446Y-114461368D01*
X165609433Y-114685996D01*
X165682317Y-114829037D01*
X165716657Y-114896433D01*
X165855483Y-115087510D01*
X166022490Y-115254517D01*
X166213567Y-115393343D01*
X166312991Y-115444002D01*
X166424003Y-115500566D01*
X166424005Y-115500566D01*
X166424008Y-115500568D01*
X166518028Y-115531117D01*
X166648631Y-115573553D01*
X166881903Y-115610500D01*
X166881908Y-115610500D01*
X167118097Y-115610500D01*
X167351368Y-115573553D01*
X167362460Y-115569949D01*
X167575992Y-115500568D01*
X167744205Y-115414858D01*
X167812874Y-115401963D01*
X167877615Y-115428239D01*
X167917872Y-115485346D01*
X167924500Y-115525344D01*
X167924500Y-116670257D01*
X167904815Y-116737296D01*
X167888181Y-116757938D01*
X167532938Y-117113181D01*
X167471615Y-117146666D01*
X167445257Y-117149500D01*
X166062129Y-117149500D01*
X166062123Y-117149501D01*
X166002516Y-117155908D01*
X165867671Y-117206202D01*
X165867664Y-117206206D01*
X165752455Y-117292452D01*
X165752452Y-117292455D01*
X165666206Y-117407664D01*
X165666202Y-117407671D01*
X165615908Y-117542517D01*
X165609501Y-117602116D01*
X165609500Y-117602135D01*
X165609500Y-119397870D01*
X165609501Y-119397876D01*
X165615908Y-119457483D01*
X165666202Y-119592328D01*
X165666206Y-119592335D01*
X165752452Y-119707544D01*
X165752455Y-119707547D01*
X165867664Y-119793793D01*
X165867671Y-119793797D01*
X166002517Y-119844091D01*
X166002516Y-119844091D01*
X166009444Y-119844835D01*
X166062127Y-119850500D01*
X167857872Y-119850499D01*
X167917483Y-119844091D01*
X168052331Y-119793796D01*
X168167546Y-119707546D01*
X168253796Y-119592331D01*
X168302810Y-119460916D01*
X168344681Y-119404984D01*
X168410145Y-119380566D01*
X168478418Y-119395417D01*
X168506673Y-119416569D01*
X168620213Y-119530109D01*
X168792179Y-119655048D01*
X168792181Y-119655049D01*
X168792184Y-119655051D01*
X168981588Y-119751557D01*
X169183757Y-119817246D01*
X169393713Y-119850500D01*
X169393714Y-119850500D01*
X169606286Y-119850500D01*
X169606287Y-119850500D01*
X169816243Y-119817246D01*
X170018412Y-119751557D01*
X170207816Y-119655051D01*
X170267320Y-119611819D01*
X170379786Y-119530109D01*
X170379788Y-119530106D01*
X170379792Y-119530104D01*
X170530104Y-119379792D01*
X170530106Y-119379788D01*
X170530109Y-119379786D01*
X170655048Y-119207820D01*
X170655047Y-119207820D01*
X170655051Y-119207816D01*
X170659514Y-119199054D01*
X170707488Y-119148259D01*
X170775308Y-119131463D01*
X170841444Y-119153999D01*
X170880486Y-119199056D01*
X170884951Y-119207820D01*
X171009890Y-119379786D01*
X171160213Y-119530109D01*
X171332179Y-119655048D01*
X171332181Y-119655049D01*
X171332184Y-119655051D01*
X171521588Y-119751557D01*
X171723757Y-119817246D01*
X171933713Y-119850500D01*
X171933714Y-119850500D01*
X172146286Y-119850500D01*
X172146287Y-119850500D01*
X172356243Y-119817246D01*
X172558412Y-119751557D01*
X172747816Y-119655051D01*
X172807320Y-119611819D01*
X172919786Y-119530109D01*
X172919788Y-119530106D01*
X172919792Y-119530104D01*
X173070104Y-119379792D01*
X173070106Y-119379788D01*
X173070109Y-119379786D01*
X173155890Y-119261717D01*
X173195051Y-119207816D01*
X173199793Y-119198508D01*
X173247763Y-119147711D01*
X173315583Y-119130911D01*
X173381719Y-119153445D01*
X173420763Y-119198500D01*
X173425373Y-119207547D01*
X173464728Y-119261716D01*
X174097036Y-118629407D01*
X174114075Y-118692993D01*
X174179901Y-118807007D01*
X174272993Y-118900099D01*
X174387007Y-118965925D01*
X174450590Y-118982962D01*
X173818282Y-119615269D01*
X173818282Y-119615270D01*
X173872449Y-119654624D01*
X174061782Y-119751095D01*
X174263870Y-119816757D01*
X174473754Y-119850000D01*
X174686246Y-119850000D01*
X174896127Y-119816757D01*
X174896130Y-119816757D01*
X175098217Y-119751095D01*
X175287554Y-119654622D01*
X175341716Y-119615270D01*
X175341717Y-119615270D01*
X174709408Y-118982962D01*
X174772993Y-118965925D01*
X174887007Y-118900099D01*
X174980099Y-118807007D01*
X175045925Y-118692993D01*
X175062962Y-118629409D01*
X175695270Y-119261717D01*
X175695270Y-119261716D01*
X175734622Y-119207554D01*
X175739514Y-119197954D01*
X175787488Y-119147157D01*
X175855308Y-119130361D01*
X175921444Y-119152897D01*
X175960486Y-119197954D01*
X175965375Y-119207550D01*
X176004728Y-119261716D01*
X176637037Y-118629408D01*
X176654075Y-118692993D01*
X176719901Y-118807007D01*
X176812993Y-118900099D01*
X176927007Y-118965925D01*
X176990590Y-118982962D01*
X176358282Y-119615269D01*
X176358282Y-119615270D01*
X176412449Y-119654624D01*
X176601782Y-119751095D01*
X176803870Y-119816757D01*
X177013754Y-119850000D01*
X177226246Y-119850000D01*
X177436127Y-119816757D01*
X177436130Y-119816757D01*
X177638217Y-119751095D01*
X177827554Y-119654622D01*
X177881716Y-119615270D01*
X177881717Y-119615270D01*
X177249408Y-118982962D01*
X177312993Y-118965925D01*
X177427007Y-118900099D01*
X177520099Y-118807007D01*
X177585925Y-118692993D01*
X177602962Y-118629408D01*
X178235270Y-119261717D01*
X178235270Y-119261716D01*
X178274622Y-119207555D01*
X178279232Y-119198507D01*
X178327205Y-119147709D01*
X178395025Y-119130912D01*
X178461161Y-119153447D01*
X178500204Y-119198504D01*
X178504949Y-119207817D01*
X178629890Y-119379786D01*
X178780213Y-119530109D01*
X178952179Y-119655048D01*
X178952181Y-119655049D01*
X178952184Y-119655051D01*
X179141588Y-119751557D01*
X179343757Y-119817246D01*
X179553713Y-119850500D01*
X179553714Y-119850500D01*
X179766286Y-119850500D01*
X179766287Y-119850500D01*
X179976243Y-119817246D01*
X180178412Y-119751557D01*
X180367816Y-119655051D01*
X180427320Y-119611819D01*
X180539786Y-119530109D01*
X180539788Y-119530106D01*
X180539792Y-119530104D01*
X180690104Y-119379792D01*
X180690106Y-119379788D01*
X180690109Y-119379786D01*
X180815048Y-119207820D01*
X180815047Y-119207820D01*
X180815051Y-119207816D01*
X180911557Y-119018412D01*
X180977246Y-118816243D01*
X181010500Y-118606287D01*
X181010500Y-118393713D01*
X180977246Y-118183757D01*
X180911557Y-117981588D01*
X180815051Y-117792184D01*
X180815049Y-117792181D01*
X180815048Y-117792179D01*
X180690109Y-117620213D01*
X180539786Y-117469890D01*
X180367820Y-117344951D01*
X180178414Y-117248444D01*
X180178413Y-117248443D01*
X180178412Y-117248443D01*
X179976243Y-117182754D01*
X179976241Y-117182753D01*
X179976240Y-117182753D01*
X179814957Y-117157208D01*
X179766287Y-117149500D01*
X179553713Y-117149500D01*
X179505042Y-117157208D01*
X179343760Y-117182753D01*
X179141585Y-117248444D01*
X178952179Y-117344951D01*
X178780213Y-117469890D01*
X178629890Y-117620213D01*
X178504949Y-117792182D01*
X178500202Y-117801499D01*
X178452227Y-117852293D01*
X178384405Y-117869087D01*
X178318271Y-117846548D01*
X178279234Y-117801495D01*
X178274626Y-117792452D01*
X178235270Y-117738282D01*
X178235269Y-117738282D01*
X177602962Y-118370590D01*
X177585925Y-118307007D01*
X177520099Y-118192993D01*
X177427007Y-118099901D01*
X177312993Y-118034075D01*
X177249409Y-118017037D01*
X177881716Y-117384728D01*
X177827550Y-117345375D01*
X177638217Y-117248904D01*
X177436129Y-117183242D01*
X177226246Y-117150000D01*
X177013754Y-117150000D01*
X176803872Y-117183242D01*
X176803869Y-117183242D01*
X176601782Y-117248904D01*
X176412439Y-117345380D01*
X176358282Y-117384727D01*
X176358282Y-117384728D01*
X176990591Y-118017037D01*
X176927007Y-118034075D01*
X176812993Y-118099901D01*
X176719901Y-118192993D01*
X176654075Y-118307007D01*
X176637037Y-118370591D01*
X176004728Y-117738282D01*
X176004727Y-117738282D01*
X175965380Y-117792440D01*
X175960483Y-117802051D01*
X175912506Y-117852845D01*
X175844684Y-117869638D01*
X175778550Y-117847098D01*
X175739516Y-117802048D01*
X175734626Y-117792452D01*
X175695270Y-117738282D01*
X175695269Y-117738282D01*
X175062962Y-118370590D01*
X175045925Y-118307007D01*
X174980099Y-118192993D01*
X174887007Y-118099901D01*
X174772993Y-118034075D01*
X174709409Y-118017037D01*
X175341716Y-117384728D01*
X175287550Y-117345375D01*
X175098217Y-117248904D01*
X174896129Y-117183242D01*
X174686246Y-117150000D01*
X174473754Y-117150000D01*
X174263872Y-117183242D01*
X174263869Y-117183242D01*
X174061782Y-117248904D01*
X173872439Y-117345380D01*
X173818282Y-117384727D01*
X173818282Y-117384728D01*
X174450591Y-118017037D01*
X174387007Y-118034075D01*
X174272993Y-118099901D01*
X174179901Y-118192993D01*
X174114075Y-118307007D01*
X174097037Y-118370591D01*
X173464728Y-117738282D01*
X173464727Y-117738282D01*
X173425380Y-117792440D01*
X173425376Y-117792446D01*
X173420760Y-117801505D01*
X173372781Y-117852297D01*
X173304959Y-117869087D01*
X173238826Y-117846543D01*
X173199794Y-117801493D01*
X173195051Y-117792184D01*
X173195049Y-117792181D01*
X173195048Y-117792179D01*
X173070109Y-117620213D01*
X172919786Y-117469890D01*
X172747820Y-117344951D01*
X172558414Y-117248444D01*
X172558413Y-117248443D01*
X172558412Y-117248443D01*
X172356243Y-117182754D01*
X172356241Y-117182753D01*
X172356240Y-117182753D01*
X172194957Y-117157208D01*
X172146287Y-117149500D01*
X171933713Y-117149500D01*
X171885042Y-117157208D01*
X171723760Y-117182753D01*
X171521585Y-117248444D01*
X171332179Y-117344951D01*
X171160213Y-117469890D01*
X171009890Y-117620213D01*
X170884949Y-117792182D01*
X170880484Y-117800946D01*
X170832509Y-117851742D01*
X170764688Y-117868536D01*
X170698553Y-117845998D01*
X170659516Y-117800946D01*
X170655050Y-117792182D01*
X170530109Y-117620213D01*
X170379786Y-117469890D01*
X170207820Y-117344951D01*
X170018414Y-117248444D01*
X170018413Y-117248443D01*
X170018412Y-117248443D01*
X169816243Y-117182754D01*
X169816241Y-117182753D01*
X169816240Y-117182753D01*
X169654957Y-117157208D01*
X169606287Y-117149500D01*
X169393713Y-117149500D01*
X169217441Y-117177418D01*
X169148148Y-117168463D01*
X169094696Y-117123467D01*
X169074057Y-117056715D01*
X169075106Y-117038749D01*
X169075497Y-117035773D01*
X169075500Y-117035766D01*
X169075500Y-116884233D01*
X169075500Y-92674234D01*
X169036281Y-92527865D01*
X168960515Y-92396635D01*
X168853365Y-92289485D01*
X168536818Y-91972938D01*
X168503333Y-91911615D01*
X168500499Y-91885257D01*
X168500499Y-90202129D01*
X168500498Y-90202123D01*
X168500491Y-90202061D01*
X168494091Y-90142517D01*
X168489526Y-90130278D01*
X168443797Y-90007671D01*
X168443793Y-90007664D01*
X168357547Y-89892455D01*
X168357544Y-89892452D01*
X168242335Y-89806206D01*
X168242328Y-89806202D01*
X168107482Y-89755908D01*
X168107483Y-89755908D01*
X168047883Y-89749501D01*
X168047881Y-89749500D01*
X168047873Y-89749500D01*
X168047864Y-89749500D01*
X165952129Y-89749500D01*
X165952123Y-89749501D01*
X165892516Y-89755908D01*
X165757671Y-89806202D01*
X165757664Y-89806206D01*
X165642455Y-89892452D01*
X165642452Y-89892455D01*
X165556206Y-90007664D01*
X165556203Y-90007669D01*
X165510473Y-90130278D01*
X165500656Y-90143390D01*
X165495300Y-90158869D01*
X165480149Y-90170783D01*
X165468601Y-90186211D01*
X165453256Y-90191934D01*
X165440380Y-90202061D01*
X165421192Y-90203893D01*
X165403137Y-90210628D01*
X165387133Y-90207146D01*
X165370827Y-90208704D01*
X165353695Y-90199872D01*
X165334864Y-90195776D01*
X165322691Y-90183889D01*
X165308723Y-90176689D01*
X165286905Y-90148946D01*
X165283193Y-90142517D01*
X165268960Y-90117865D01*
X165210515Y-90016635D01*
X165103365Y-89909485D01*
X146969535Y-71775655D01*
X146936050Y-71714332D01*
X146939284Y-71649658D01*
X146948970Y-71619851D01*
X146948971Y-71619845D01*
X146980500Y-71420783D01*
X146980500Y-71219217D01*
X146975305Y-71186419D01*
X146984259Y-71117125D01*
X147029255Y-71063673D01*
X147096007Y-71043033D01*
X147163320Y-71061758D01*
X147185459Y-71079339D01*
X163433485Y-87327365D01*
X163540635Y-87434515D01*
X163671865Y-87510281D01*
X163818234Y-87549500D01*
X167565501Y-87549500D01*
X167632540Y-87569185D01*
X167678295Y-87621989D01*
X167689501Y-87673500D01*
X167689501Y-88021876D01*
X167695908Y-88081483D01*
X167746202Y-88216328D01*
X167746206Y-88216335D01*
X167832452Y-88331544D01*
X167832455Y-88331547D01*
X167947664Y-88417793D01*
X167947671Y-88417797D01*
X168082517Y-88468091D01*
X168082516Y-88468091D01*
X168089444Y-88468835D01*
X168142127Y-88474500D01*
X170237872Y-88474499D01*
X170297483Y-88468091D01*
X170432331Y-88417796D01*
X170547546Y-88331546D01*
X170633796Y-88216331D01*
X170633797Y-88216326D01*
X170638047Y-88208546D01*
X170641380Y-88210366D01*
X170672292Y-88168766D01*
X170737669Y-88144116D01*
X170805994Y-88158725D01*
X170819835Y-88167446D01*
X170943567Y-88257343D01*
X171015848Y-88294172D01*
X171154003Y-88364566D01*
X171154005Y-88364566D01*
X171154008Y-88364568D01*
X171256867Y-88397989D01*
X171378631Y-88437553D01*
X171611903Y-88474500D01*
X171611908Y-88474500D01*
X171848097Y-88474500D01*
X172081368Y-88437553D01*
X172118300Y-88425553D01*
X172305992Y-88364568D01*
X172516433Y-88257343D01*
X172707510Y-88118517D01*
X172874517Y-87951510D01*
X172899682Y-87916872D01*
X172955011Y-87874207D01*
X173024625Y-87868228D01*
X173086420Y-87900833D01*
X173100315Y-87916870D01*
X173125483Y-87951510D01*
X173292490Y-88118517D01*
X173483567Y-88257343D01*
X173555848Y-88294172D01*
X173694003Y-88364566D01*
X173694005Y-88364566D01*
X173694008Y-88364568D01*
X173796867Y-88397989D01*
X173918631Y-88437553D01*
X174151903Y-88474500D01*
X174151908Y-88474500D01*
X174388097Y-88474500D01*
X174621368Y-88437553D01*
X174658300Y-88425553D01*
X174845992Y-88364568D01*
X175056433Y-88257343D01*
X175247510Y-88118517D01*
X175414517Y-87951510D01*
X175461370Y-87887022D01*
X175465713Y-87882199D01*
X175490150Y-87867142D01*
X175512877Y-87849618D01*
X175520393Y-87848509D01*
X175525199Y-87845549D01*
X175538730Y-87845806D01*
X175567594Y-87841551D01*
X175587340Y-87843105D01*
X176310707Y-87119738D01*
X176325437Y-87174712D01*
X176393896Y-87293287D01*
X176490713Y-87390104D01*
X176609288Y-87458563D01*
X176664260Y-87473292D01*
X175940893Y-88196658D01*
X176023828Y-88256914D01*
X176234197Y-88364102D01*
X176458752Y-88437065D01*
X176458751Y-88437065D01*
X176691948Y-88474000D01*
X176928052Y-88474000D01*
X177161247Y-88437065D01*
X177385802Y-88364102D01*
X177596163Y-88256918D01*
X177596169Y-88256914D01*
X177679104Y-88196658D01*
X177679105Y-88196658D01*
X176955739Y-87473292D01*
X177010712Y-87458563D01*
X177129287Y-87390104D01*
X177226104Y-87293287D01*
X177294563Y-87174712D01*
X177309292Y-87119739D01*
X178032658Y-87843105D01*
X178032658Y-87843104D01*
X178092914Y-87760169D01*
X178092918Y-87760163D01*
X178200102Y-87549802D01*
X178273065Y-87325247D01*
X178310000Y-87092052D01*
X178310000Y-86855947D01*
X178273065Y-86622752D01*
X178200102Y-86398197D01*
X178092914Y-86187828D01*
X178032658Y-86104894D01*
X178032658Y-86104893D01*
X177309292Y-86828259D01*
X177294563Y-86773288D01*
X177226104Y-86654713D01*
X177129287Y-86557896D01*
X177010712Y-86489437D01*
X176955739Y-86474707D01*
X177679105Y-85751340D01*
X177679104Y-85751338D01*
X177596174Y-85691087D01*
X177385802Y-85583897D01*
X177161247Y-85510934D01*
X177161248Y-85510934D01*
X176928052Y-85474000D01*
X176691948Y-85474000D01*
X176458752Y-85510934D01*
X176234197Y-85583897D01*
X176023830Y-85691084D01*
X175940894Y-85751340D01*
X176664261Y-86474707D01*
X176609288Y-86489437D01*
X176490713Y-86557896D01*
X176393896Y-86654713D01*
X176325437Y-86773288D01*
X176310707Y-86828260D01*
X175587340Y-86104893D01*
X175567593Y-86106448D01*
X175563860Y-86105663D01*
X175560222Y-86106808D01*
X175529936Y-86098537D01*
X175499215Y-86092084D01*
X175495429Y-86089114D01*
X175492821Y-86088402D01*
X175483431Y-86079701D01*
X175465712Y-86065800D01*
X175461370Y-86060978D01*
X175414517Y-85996490D01*
X175247510Y-85829483D01*
X175056433Y-85690657D01*
X175032882Y-85678657D01*
X174845996Y-85583433D01*
X174621368Y-85510446D01*
X174388097Y-85473500D01*
X174388092Y-85473500D01*
X174151908Y-85473500D01*
X174151903Y-85473500D01*
X173918631Y-85510446D01*
X173694003Y-85583433D01*
X173483566Y-85690657D01*
X173416404Y-85739454D01*
X173292490Y-85829483D01*
X173292488Y-85829485D01*
X173292487Y-85829485D01*
X173125484Y-85996488D01*
X173100318Y-86031127D01*
X173044987Y-86073792D01*
X172975374Y-86079771D01*
X172913579Y-86047165D01*
X172899682Y-86031127D01*
X172899374Y-86030703D01*
X172874517Y-85996490D01*
X172707510Y-85829483D01*
X172516433Y-85690657D01*
X172492882Y-85678657D01*
X172305996Y-85583433D01*
X172081368Y-85510446D01*
X171848097Y-85473500D01*
X171848092Y-85473500D01*
X171611908Y-85473500D01*
X171611903Y-85473500D01*
X171378631Y-85510446D01*
X171154003Y-85583433D01*
X170943563Y-85690659D01*
X170819840Y-85780549D01*
X170754034Y-85804029D01*
X170685980Y-85788203D01*
X170638410Y-85739255D01*
X170638047Y-85739454D01*
X170637334Y-85738148D01*
X170637285Y-85738098D01*
X170637187Y-85737880D01*
X170633793Y-85731664D01*
X170547547Y-85616455D01*
X170547544Y-85616452D01*
X170432335Y-85530206D01*
X170432328Y-85530202D01*
X170297482Y-85479908D01*
X170297483Y-85479908D01*
X170237883Y-85473501D01*
X170237881Y-85473500D01*
X170237873Y-85473500D01*
X170237864Y-85473500D01*
X168142129Y-85473500D01*
X168142123Y-85473501D01*
X168082516Y-85479908D01*
X167947671Y-85530202D01*
X167947664Y-85530206D01*
X167832455Y-85616452D01*
X167832452Y-85616455D01*
X167746206Y-85731664D01*
X167746202Y-85731671D01*
X167695908Y-85866517D01*
X167689501Y-85926116D01*
X167689500Y-85926135D01*
X167689500Y-86274500D01*
X167669815Y-86341539D01*
X167617011Y-86387294D01*
X167565500Y-86398500D01*
X164183742Y-86398500D01*
X164116703Y-86378815D01*
X164096061Y-86362181D01*
X146969535Y-69235655D01*
X146936050Y-69174332D01*
X146939284Y-69109658D01*
X146948970Y-69079851D01*
X146948971Y-69079845D01*
X146980500Y-68880783D01*
X146980500Y-68679216D01*
X146962156Y-68563408D01*
X146948970Y-68480149D01*
X146886686Y-68288458D01*
X146795182Y-68108871D01*
X146676711Y-67945810D01*
X146534190Y-67803289D01*
X146371129Y-67684818D01*
X146244867Y-67620484D01*
X146194072Y-67572510D01*
X146177277Y-67504690D01*
X146199814Y-67438555D01*
X146244868Y-67399515D01*
X146371129Y-67335182D01*
X146534190Y-67216711D01*
X146676711Y-67074190D01*
X146795182Y-66911129D01*
X146886686Y-66731542D01*
X146948970Y-66539851D01*
X146965214Y-66437289D01*
X146980500Y-66340783D01*
X146980500Y-66139216D01*
X146962156Y-66023408D01*
X146948970Y-65940149D01*
X146886686Y-65748458D01*
X146795182Y-65568871D01*
X146676711Y-65405810D01*
X146534190Y-65263289D01*
X146371129Y-65144818D01*
X146287981Y-65102452D01*
X146191539Y-65053312D01*
X145999852Y-64991030D01*
X145800783Y-64959500D01*
X145800778Y-64959500D01*
X145599222Y-64959500D01*
X145599217Y-64959500D01*
X145400147Y-64991030D01*
X145208460Y-65053312D01*
X145028870Y-65144818D01*
X144935838Y-65212410D01*
X144865810Y-65263289D01*
X144865808Y-65263291D01*
X144865807Y-65263291D01*
X144723291Y-65405807D01*
X144723291Y-65405808D01*
X144723289Y-65405810D01*
X144718699Y-65412128D01*
X144604818Y-65568870D01*
X144513312Y-65748460D01*
X144451030Y-65940147D01*
X144419500Y-66139216D01*
X144419500Y-66340783D01*
X144451030Y-66539852D01*
X144513312Y-66731539D01*
X144513314Y-66731542D01*
X144604818Y-66911129D01*
X144723289Y-67074190D01*
X144865810Y-67216711D01*
X145028871Y-67335182D01*
X145096885Y-67369836D01*
X145155131Y-67399515D01*
X145205927Y-67447490D01*
X145222722Y-67515311D01*
X145200184Y-67581446D01*
X145155131Y-67620485D01*
X145028870Y-67684818D01*
X144972628Y-67725681D01*
X144865810Y-67803289D01*
X144865808Y-67803291D01*
X144865807Y-67803291D01*
X144723291Y-67945807D01*
X144723291Y-67945808D01*
X144723289Y-67945810D01*
X144672410Y-68015838D01*
X144604818Y-68108870D01*
X144513312Y-68288460D01*
X144451030Y-68480147D01*
X144419500Y-68679216D01*
X144419500Y-68880783D01*
X144451030Y-69079852D01*
X144513312Y-69271539D01*
X144513314Y-69271542D01*
X144604818Y-69451129D01*
X144723289Y-69614190D01*
X144865810Y-69756711D01*
X145028871Y-69875182D01*
X145096885Y-69909836D01*
X145155131Y-69939515D01*
X145205927Y-69987490D01*
X145222722Y-70055311D01*
X145200184Y-70121446D01*
X145155131Y-70160485D01*
X145028870Y-70224818D01*
X144935838Y-70292410D01*
X144865810Y-70343289D01*
X144865808Y-70343291D01*
X144865807Y-70343291D01*
X144723291Y-70485807D01*
X144723291Y-70485808D01*
X144723289Y-70485810D01*
X144672410Y-70555838D01*
X144604818Y-70648870D01*
X144513312Y-70828460D01*
X144451030Y-71020147D01*
X144419500Y-71219216D01*
X144419500Y-71420783D01*
X144451030Y-71619852D01*
X144513312Y-71811539D01*
X144513314Y-71811542D01*
X144604818Y-71991129D01*
X144723289Y-72154190D01*
X144865810Y-72296711D01*
X145028871Y-72415182D01*
X145096885Y-72449836D01*
X145155131Y-72479515D01*
X145205927Y-72527490D01*
X145222722Y-72595311D01*
X145200184Y-72661446D01*
X145155131Y-72700485D01*
X145028870Y-72764818D01*
X144971835Y-72806257D01*
X144865810Y-72883289D01*
X144865808Y-72883291D01*
X144865807Y-72883291D01*
X144723291Y-73025807D01*
X144723291Y-73025808D01*
X144723289Y-73025810D01*
X144672410Y-73095838D01*
X144604818Y-73188870D01*
X144513312Y-73368460D01*
X144451030Y-73560147D01*
X144419500Y-73759216D01*
X144419500Y-73960783D01*
X144451030Y-74159852D01*
X144513312Y-74351539D01*
X144513314Y-74351542D01*
X144604818Y-74531129D01*
X144723289Y-74694190D01*
X144865810Y-74836711D01*
X145028871Y-74955182D01*
X145096885Y-74989836D01*
X145155131Y-75019515D01*
X145205927Y-75067490D01*
X145222722Y-75135311D01*
X145200184Y-75201446D01*
X145155131Y-75240485D01*
X145028870Y-75304818D01*
X144935838Y-75372410D01*
X144865810Y-75423289D01*
X144865808Y-75423291D01*
X144865807Y-75423291D01*
X144723291Y-75565807D01*
X144723291Y-75565808D01*
X144723289Y-75565810D01*
X144672410Y-75635838D01*
X144604818Y-75728870D01*
X144513312Y-75908460D01*
X144451030Y-76100147D01*
X144419500Y-76299216D01*
X144419500Y-76500783D01*
X144451030Y-76699852D01*
X144513312Y-76891539D01*
X144513314Y-76891542D01*
X144604818Y-77071129D01*
X144723289Y-77234190D01*
X144865810Y-77376711D01*
X145028871Y-77495182D01*
X145096885Y-77529836D01*
X145155131Y-77559515D01*
X145205927Y-77607490D01*
X145222722Y-77675311D01*
X145200184Y-77741446D01*
X145155131Y-77780485D01*
X145028870Y-77844818D01*
X144935838Y-77912410D01*
X144865810Y-77963289D01*
X144865808Y-77963291D01*
X144865807Y-77963291D01*
X144723291Y-78105807D01*
X144723291Y-78105808D01*
X144723289Y-78105810D01*
X144689135Y-78152819D01*
X144604818Y-78268870D01*
X144513312Y-78448460D01*
X144451030Y-78640147D01*
X144419500Y-78839216D01*
X144419500Y-79040783D01*
X144451030Y-79239852D01*
X144513312Y-79431539D01*
X144545242Y-79494205D01*
X144558138Y-79562875D01*
X144531861Y-79627615D01*
X144474755Y-79667872D01*
X144434757Y-79674500D01*
X134126200Y-79674500D01*
X134059161Y-79654815D01*
X134013406Y-79602011D01*
X134003462Y-79532853D01*
X134011639Y-79503048D01*
X134019735Y-79483501D01*
X134019737Y-79483497D01*
X134050500Y-79328842D01*
X134050500Y-79171158D01*
X134050500Y-79171155D01*
X134050499Y-79171153D01*
X134019737Y-79016503D01*
X134019735Y-79016498D01*
X133959397Y-78870827D01*
X133959390Y-78870814D01*
X133871789Y-78739711D01*
X133871786Y-78739707D01*
X133760292Y-78628213D01*
X133760288Y-78628210D01*
X133629185Y-78540609D01*
X133629172Y-78540602D01*
X133483499Y-78480263D01*
X133483491Y-78480261D01*
X133447183Y-78473039D01*
X133385272Y-78440654D01*
X133383694Y-78439103D01*
X121616818Y-66672227D01*
X121583333Y-66610904D01*
X121580499Y-66584546D01*
X121580499Y-65412129D01*
X121580498Y-65412123D01*
X121580497Y-65412116D01*
X121574091Y-65352517D01*
X121523796Y-65217669D01*
X121523795Y-65217668D01*
X121523793Y-65217664D01*
X121437547Y-65102455D01*
X121437544Y-65102452D01*
X121322335Y-65016206D01*
X121322328Y-65016202D01*
X121187482Y-64965908D01*
X121187483Y-64965908D01*
X121127883Y-64959501D01*
X121127881Y-64959500D01*
X121127873Y-64959500D01*
X121127864Y-64959500D01*
X119472129Y-64959500D01*
X119472123Y-64959501D01*
X119412516Y-64965908D01*
X119277671Y-65016202D01*
X119277664Y-65016206D01*
X119162455Y-65102452D01*
X119162452Y-65102455D01*
X119076206Y-65217664D01*
X119076202Y-65217671D01*
X119025908Y-65352517D01*
X119020179Y-65405807D01*
X119019501Y-65412123D01*
X119019500Y-65412135D01*
X119019500Y-67067870D01*
X119019501Y-67067876D01*
X119025908Y-67127483D01*
X119076202Y-67262328D01*
X119076206Y-67262335D01*
X119162452Y-67377544D01*
X119162455Y-67377547D01*
X119277664Y-67463793D01*
X119277671Y-67463797D01*
X119322618Y-67480561D01*
X119412517Y-67514091D01*
X119472127Y-67520500D01*
X119473378Y-67520499D01*
X119473656Y-67520581D01*
X119475453Y-67520678D01*
X119475430Y-67521101D01*
X119540419Y-67540169D01*
X119586185Y-67592963D01*
X119596144Y-67662119D01*
X119567133Y-67725681D01*
X119546289Y-67744816D01*
X119465810Y-67803288D01*
X119323291Y-67945807D01*
X119323291Y-67945808D01*
X119323289Y-67945810D01*
X119272410Y-68015838D01*
X119204818Y-68108870D01*
X119113312Y-68288460D01*
X119051030Y-68480147D01*
X119019500Y-68679216D01*
X119019500Y-68880783D01*
X119051030Y-69079852D01*
X119113312Y-69271539D01*
X119113314Y-69271542D01*
X119204818Y-69451129D01*
X119323289Y-69614190D01*
X119465810Y-69756711D01*
X119628871Y-69875182D01*
X119696885Y-69909836D01*
X119755131Y-69939515D01*
X119805927Y-69987490D01*
X119822722Y-70055311D01*
X119800184Y-70121446D01*
X119755131Y-70160485D01*
X119628870Y-70224818D01*
X119535838Y-70292410D01*
X119465810Y-70343289D01*
X119465808Y-70343291D01*
X119465807Y-70343291D01*
X119323291Y-70485807D01*
X119323291Y-70485808D01*
X119323289Y-70485810D01*
X119272410Y-70555838D01*
X119204818Y-70648870D01*
X119113312Y-70828460D01*
X119051030Y-71020147D01*
X119019500Y-71219216D01*
X119019500Y-71420783D01*
X119051030Y-71619852D01*
X119060714Y-71649659D01*
X119062707Y-71719500D01*
X119030463Y-71775655D01*
X117912181Y-72893938D01*
X117850858Y-72927423D01*
X117781166Y-72922439D01*
X117725233Y-72880567D01*
X117700816Y-72815103D01*
X117700500Y-72806257D01*
X117700500Y-39095528D01*
X118249500Y-39095528D01*
X118249500Y-39404471D01*
X118284086Y-39711437D01*
X118284089Y-39711455D01*
X118352831Y-40012635D01*
X118352835Y-40012647D01*
X118454862Y-40304222D01*
X118454868Y-40304236D01*
X118588903Y-40582562D01*
X118588905Y-40582565D01*
X118753265Y-40844143D01*
X118945880Y-41085674D01*
X119164326Y-41304120D01*
X119405857Y-41496735D01*
X119667435Y-41661095D01*
X119945771Y-41795135D01*
X119945777Y-41795137D01*
X120237352Y-41897164D01*
X120237364Y-41897168D01*
X120538548Y-41965911D01*
X120538554Y-41965911D01*
X120538562Y-41965913D01*
X120743206Y-41988970D01*
X120845529Y-42000499D01*
X120845532Y-42000500D01*
X120845535Y-42000500D01*
X121154468Y-42000500D01*
X121154469Y-42000499D01*
X121311356Y-41982822D01*
X121461437Y-41965913D01*
X121461442Y-41965912D01*
X121461452Y-41965911D01*
X121762636Y-41897168D01*
X122054229Y-41795135D01*
X122332565Y-41661095D01*
X122594143Y-41496735D01*
X122835674Y-41304120D01*
X123054120Y-41085674D01*
X123246735Y-40844143D01*
X123411095Y-40582565D01*
X123545135Y-40304229D01*
X123647168Y-40012636D01*
X123715911Y-39711452D01*
X123750500Y-39404465D01*
X123750500Y-39095535D01*
X123750499Y-39095528D01*
X176249500Y-39095528D01*
X176249500Y-39404471D01*
X176284086Y-39711437D01*
X176284089Y-39711455D01*
X176352831Y-40012635D01*
X176352835Y-40012647D01*
X176454862Y-40304222D01*
X176454868Y-40304236D01*
X176588903Y-40582562D01*
X176588905Y-40582565D01*
X176753265Y-40844143D01*
X176945880Y-41085674D01*
X177164326Y-41304120D01*
X177405857Y-41496735D01*
X177667435Y-41661095D01*
X177945771Y-41795135D01*
X177945777Y-41795137D01*
X178237352Y-41897164D01*
X178237364Y-41897168D01*
X178538548Y-41965911D01*
X178538554Y-41965911D01*
X178538562Y-41965913D01*
X178743206Y-41988970D01*
X178845529Y-42000499D01*
X178845532Y-42000500D01*
X178845535Y-42000500D01*
X179154468Y-42000500D01*
X179154469Y-42000499D01*
X179311356Y-41982822D01*
X179461437Y-41965913D01*
X179461442Y-41965912D01*
X179461452Y-41965911D01*
X179762636Y-41897168D01*
X180054229Y-41795135D01*
X180332565Y-41661095D01*
X180594143Y-41496735D01*
X180835674Y-41304120D01*
X181054120Y-41085674D01*
X181246735Y-40844143D01*
X181411095Y-40582565D01*
X181545135Y-40304229D01*
X181647168Y-40012636D01*
X181715911Y-39711452D01*
X181750500Y-39404465D01*
X181750500Y-39095535D01*
X181715911Y-38788548D01*
X181647168Y-38487364D01*
X181545135Y-38195771D01*
X181411095Y-37917435D01*
X181246735Y-37655857D01*
X181054120Y-37414326D01*
X180835674Y-37195880D01*
X180594143Y-37003265D01*
X180332565Y-36838905D01*
X180332562Y-36838903D01*
X180054236Y-36704868D01*
X180054222Y-36704862D01*
X179762647Y-36602835D01*
X179762635Y-36602831D01*
X179461455Y-36534089D01*
X179461437Y-36534086D01*
X179154471Y-36499500D01*
X179154465Y-36499500D01*
X178845535Y-36499500D01*
X178845528Y-36499500D01*
X178538562Y-36534086D01*
X178538544Y-36534089D01*
X178237364Y-36602831D01*
X178237352Y-36602835D01*
X177945777Y-36704862D01*
X177945763Y-36704868D01*
X177667437Y-36838903D01*
X177405858Y-37003264D01*
X177164326Y-37195879D01*
X176945879Y-37414326D01*
X176753264Y-37655858D01*
X176588903Y-37917437D01*
X176454868Y-38195763D01*
X176454862Y-38195777D01*
X176352835Y-38487352D01*
X176352831Y-38487364D01*
X176284089Y-38788544D01*
X176284086Y-38788562D01*
X176249500Y-39095528D01*
X123750499Y-39095528D01*
X123715911Y-38788548D01*
X123647168Y-38487364D01*
X123545135Y-38195771D01*
X123411095Y-37917435D01*
X123246735Y-37655857D01*
X123054120Y-37414326D01*
X122835674Y-37195880D01*
X122594143Y-37003265D01*
X122332565Y-36838905D01*
X122332562Y-36838903D01*
X122054236Y-36704868D01*
X122054222Y-36704862D01*
X121762647Y-36602835D01*
X121762635Y-36602831D01*
X121461455Y-36534089D01*
X121461437Y-36534086D01*
X121154471Y-36499500D01*
X121154465Y-36499500D01*
X120845535Y-36499500D01*
X120845528Y-36499500D01*
X120538562Y-36534086D01*
X120538544Y-36534089D01*
X120237364Y-36602831D01*
X120237352Y-36602835D01*
X119945777Y-36704862D01*
X119945763Y-36704868D01*
X119667437Y-36838903D01*
X119405858Y-37003264D01*
X119164326Y-37195879D01*
X118945879Y-37414326D01*
X118753264Y-37655858D01*
X118588903Y-37917437D01*
X118454868Y-38195763D01*
X118454862Y-38195777D01*
X118352835Y-38487352D01*
X118352831Y-38487364D01*
X118284089Y-38788544D01*
X118284086Y-38788562D01*
X118249500Y-39095528D01*
X117700500Y-39095528D01*
X117700500Y-36074500D01*
X117720185Y-36007461D01*
X117772989Y-35961706D01*
X117824500Y-35950500D01*
X182175500Y-35950500D01*
X182242539Y-35970185D01*
G37*
%TD.AperFunction*%
%TA.AperFunction,Conductor*%
G36*
X136277297Y-110845185D02*
G01*
X136297939Y-110861819D01*
X138638181Y-113202061D01*
X138671666Y-113263384D01*
X138674500Y-113289742D01*
X138674500Y-117924234D01*
X138674500Y-118075766D01*
X138693438Y-118146446D01*
X138713719Y-118222136D01*
X138750985Y-118286681D01*
X138789485Y-118353365D01*
X139789485Y-119353365D01*
X139896635Y-119460515D01*
X140027865Y-119536281D01*
X140174234Y-119575500D01*
X140325767Y-119575500D01*
X140849015Y-119575500D01*
X140916054Y-119595185D01*
X140961809Y-119647989D01*
X140971753Y-119717147D01*
X140949333Y-119772385D01*
X140934951Y-119792180D01*
X140838444Y-119981585D01*
X140838443Y-119981587D01*
X140838443Y-119981588D01*
X140834157Y-119994780D01*
X140772753Y-120183760D01*
X140739500Y-120393713D01*
X140739500Y-120606286D01*
X140767362Y-120782204D01*
X140772754Y-120816243D01*
X140814741Y-120945466D01*
X140838444Y-121018414D01*
X140934951Y-121207820D01*
X141059890Y-121379786D01*
X141210213Y-121530109D01*
X141382179Y-121655048D01*
X141382181Y-121655049D01*
X141382184Y-121655051D01*
X141571588Y-121751557D01*
X141755014Y-121811156D01*
X141812689Y-121850592D01*
X141839887Y-121914951D01*
X141827972Y-121983797D01*
X141804376Y-122016767D01*
X139071681Y-124749462D01*
X139010358Y-124782947D01*
X138940666Y-124777963D01*
X138884733Y-124736091D01*
X138860316Y-124670627D01*
X138860000Y-124661781D01*
X138860000Y-124647682D01*
X138827990Y-124445582D01*
X138764755Y-124250968D01*
X138671859Y-124068650D01*
X138639474Y-124024077D01*
X138639474Y-124024076D01*
X137960000Y-124703553D01*
X137960000Y-124697339D01*
X137932741Y-124595606D01*
X137880080Y-124504394D01*
X137805606Y-124429920D01*
X137714394Y-124377259D01*
X137612661Y-124350000D01*
X137606446Y-124350000D01*
X138285922Y-123670524D01*
X138285921Y-123670523D01*
X138241359Y-123638147D01*
X138241350Y-123638141D01*
X138059031Y-123545244D01*
X137864417Y-123482009D01*
X137662317Y-123450000D01*
X137457683Y-123450000D01*
X137255582Y-123482009D01*
X137060968Y-123545244D01*
X136878644Y-123638143D01*
X136834077Y-123670523D01*
X136834077Y-123670524D01*
X137513554Y-124350000D01*
X137507339Y-124350000D01*
X137405606Y-124377259D01*
X137314394Y-124429920D01*
X137239920Y-124504394D01*
X137187259Y-124595606D01*
X137160000Y-124697339D01*
X137160000Y-124703553D01*
X136480524Y-124024077D01*
X136480523Y-124024077D01*
X136448143Y-124068644D01*
X136355244Y-124250968D01*
X136292009Y-124445582D01*
X136260000Y-124647682D01*
X136260000Y-124852317D01*
X136292009Y-125054417D01*
X136355244Y-125249031D01*
X136448141Y-125431350D01*
X136448147Y-125431359D01*
X136480523Y-125475921D01*
X136480524Y-125475922D01*
X137160000Y-124796446D01*
X137160000Y-124802661D01*
X137187259Y-124904394D01*
X137239920Y-124995606D01*
X137314394Y-125070080D01*
X137405606Y-125122741D01*
X137507339Y-125150000D01*
X137513553Y-125150000D01*
X136834076Y-125829474D01*
X136878650Y-125861859D01*
X137060968Y-125954755D01*
X137255582Y-126017990D01*
X137457683Y-126050000D01*
X137471781Y-126050000D01*
X137538820Y-126069685D01*
X137584575Y-126122489D01*
X137594519Y-126191647D01*
X137565494Y-126255203D01*
X137559462Y-126261681D01*
X135672528Y-128148617D01*
X135608071Y-128213073D01*
X135543615Y-128277529D01*
X135543613Y-128277532D01*
X135442333Y-128429108D01*
X135442331Y-128429112D01*
X135372568Y-128597537D01*
X135372565Y-128597547D01*
X135337000Y-128776343D01*
X135337000Y-142442711D01*
X135317315Y-142509750D01*
X135285885Y-142543029D01*
X135252420Y-142567342D01*
X135252414Y-142567347D01*
X135079843Y-142739918D01*
X135079839Y-142739923D01*
X134936396Y-142937357D01*
X134825597Y-143154812D01*
X134750178Y-143386927D01*
X134712000Y-143627973D01*
X134712000Y-143872027D01*
X134711999Y-143872027D01*
X134737998Y-144036176D01*
X134729043Y-144105469D01*
X134684047Y-144158921D01*
X134617295Y-144179560D01*
X134549982Y-144160835D01*
X134527844Y-144143254D01*
X133911819Y-143527229D01*
X133878334Y-143465906D01*
X133875500Y-143439548D01*
X133875500Y-121097648D01*
X136259500Y-121097648D01*
X136259500Y-121302351D01*
X136291522Y-121504534D01*
X136354781Y-121699223D01*
X136402742Y-121793350D01*
X136431606Y-121849999D01*
X136447715Y-121881613D01*
X136568028Y-122047213D01*
X136712786Y-122191971D01*
X136867749Y-122304556D01*
X136878390Y-122312287D01*
X136994607Y-122371503D01*
X137060776Y-122405218D01*
X137060778Y-122405218D01*
X137060781Y-122405220D01*
X137165137Y-122439127D01*
X137255465Y-122468477D01*
X137356557Y-122484488D01*
X137457648Y-122500500D01*
X137457649Y-122500500D01*
X137662351Y-122500500D01*
X137662352Y-122500500D01*
X137864534Y-122468477D01*
X138059219Y-122405220D01*
X138241610Y-122312287D01*
X138334590Y-122244732D01*
X138407213Y-122191971D01*
X138407215Y-122191968D01*
X138407219Y-122191966D01*
X138551966Y-122047219D01*
X138551968Y-122047215D01*
X138551971Y-122047213D01*
X138635960Y-121931610D01*
X138672287Y-121881610D01*
X138765220Y-121699219D01*
X138828477Y-121504534D01*
X138860500Y-121302352D01*
X138860500Y-121097648D01*
X138828477Y-120895466D01*
X138765220Y-120700781D01*
X138765218Y-120700778D01*
X138765218Y-120700776D01*
X138697761Y-120568386D01*
X138672287Y-120518390D01*
X138664556Y-120507749D01*
X138551971Y-120352786D01*
X138407213Y-120208028D01*
X138241613Y-120087715D01*
X138241612Y-120087714D01*
X138241610Y-120087713D01*
X138184653Y-120058691D01*
X138059223Y-119994781D01*
X137864534Y-119931522D01*
X137689995Y-119903878D01*
X137662352Y-119899500D01*
X137457648Y-119899500D01*
X137433329Y-119903351D01*
X137255465Y-119931522D01*
X137060776Y-119994781D01*
X136878386Y-120087715D01*
X136712786Y-120208028D01*
X136568028Y-120352786D01*
X136447715Y-120518386D01*
X136354781Y-120700776D01*
X136291522Y-120895465D01*
X136259500Y-121097648D01*
X133875500Y-121097648D01*
X133875500Y-111542350D01*
X133895185Y-111475311D01*
X133896398Y-111473459D01*
X133930782Y-111422000D01*
X133959394Y-111379179D01*
X134019737Y-111233497D01*
X134050500Y-111078842D01*
X134050500Y-110949500D01*
X134070185Y-110882461D01*
X134122989Y-110836706D01*
X134174500Y-110825500D01*
X136210258Y-110825500D01*
X136277297Y-110845185D01*
G37*
%TD.AperFunction*%
%TA.AperFunction,Conductor*%
G36*
X119815437Y-99460712D02*
G01*
X119883896Y-99579287D01*
X119980713Y-99676104D01*
X120099288Y-99744563D01*
X120154259Y-99759292D01*
X119588395Y-100325155D01*
X119629133Y-100354753D01*
X119755682Y-100419234D01*
X119806478Y-100467209D01*
X119823273Y-100535030D01*
X119800735Y-100601165D01*
X119755682Y-100640204D01*
X119628870Y-100704818D01*
X119535838Y-100772410D01*
X119465810Y-100823289D01*
X119465808Y-100823291D01*
X119465807Y-100823291D01*
X119323291Y-100965807D01*
X119323291Y-100965808D01*
X119323289Y-100965810D01*
X119272410Y-101035838D01*
X119204818Y-101128870D01*
X119113312Y-101308460D01*
X119067431Y-101449670D01*
X119027994Y-101507345D01*
X118963635Y-101534544D01*
X118894789Y-101522629D01*
X118843313Y-101475385D01*
X118825500Y-101411352D01*
X118825500Y-99647028D01*
X118845185Y-99579989D01*
X118897989Y-99534234D01*
X118967147Y-99524290D01*
X119030703Y-99553315D01*
X119067431Y-99608710D01*
X119113775Y-99751346D01*
X119113776Y-99751349D01*
X119205248Y-99930869D01*
X119234842Y-99971602D01*
X119234843Y-99971603D01*
X119800707Y-99405739D01*
X119815437Y-99460712D01*
G37*
%TD.AperFunction*%
%TA.AperFunction,Conductor*%
G36*
X119030703Y-97014934D02*
G01*
X119067431Y-97070329D01*
X119113312Y-97211539D01*
X119113314Y-97211542D01*
X119204818Y-97391129D01*
X119323289Y-97554190D01*
X119465810Y-97696711D01*
X119628871Y-97815182D01*
X119755682Y-97879795D01*
X119806478Y-97927769D01*
X119823273Y-97995590D01*
X119800736Y-98061725D01*
X119755683Y-98100764D01*
X119629140Y-98165242D01*
X119629133Y-98165246D01*
X119588396Y-98194842D01*
X119588396Y-98194843D01*
X120154260Y-98760707D01*
X120099288Y-98775437D01*
X119980713Y-98843896D01*
X119883896Y-98940713D01*
X119815437Y-99059288D01*
X119800707Y-99114260D01*
X119234843Y-98548396D01*
X119234842Y-98548396D01*
X119205246Y-98589133D01*
X119205245Y-98589135D01*
X119113776Y-98768650D01*
X119113775Y-98768653D01*
X119067431Y-98911289D01*
X119027994Y-98968964D01*
X118963635Y-98996163D01*
X118894789Y-98984248D01*
X118843313Y-98937004D01*
X118825500Y-98872971D01*
X118825500Y-97108647D01*
X118845185Y-97041608D01*
X118897989Y-96995853D01*
X118967147Y-96985909D01*
X119030703Y-97014934D01*
G37*
%TD.AperFunction*%
%TA.AperFunction,Conductor*%
G36*
X151605297Y-80845185D02*
G01*
X151625939Y-80861819D01*
X156013939Y-85249819D01*
X156047424Y-85311142D01*
X156042440Y-85380834D01*
X156000568Y-85436767D01*
X155935104Y-85461184D01*
X155926258Y-85461500D01*
X155881903Y-85461500D01*
X155648631Y-85498446D01*
X155424003Y-85571433D01*
X155213563Y-85678659D01*
X155035384Y-85808114D01*
X154969578Y-85831594D01*
X154945825Y-85829724D01*
X153959292Y-86816258D01*
X153944563Y-86761288D01*
X153876104Y-86642713D01*
X153779287Y-86545896D01*
X153660712Y-86477437D01*
X153605741Y-86462707D01*
X154591170Y-85477277D01*
X154591170Y-85477276D01*
X154567375Y-85468401D01*
X154507844Y-85462000D01*
X152412155Y-85462000D01*
X152352627Y-85468401D01*
X152352623Y-85468402D01*
X152328829Y-85477277D01*
X153314259Y-86462707D01*
X153259288Y-86477437D01*
X153140713Y-86545896D01*
X153043896Y-86642713D01*
X152975437Y-86761288D01*
X152960707Y-86816259D01*
X151975277Y-85830829D01*
X151966402Y-85854623D01*
X151966401Y-85854627D01*
X151960000Y-85914155D01*
X151960000Y-87096758D01*
X151940315Y-87163797D01*
X151887511Y-87209552D01*
X151818353Y-87219496D01*
X151754797Y-87190471D01*
X151748319Y-87184439D01*
X146853367Y-82289487D01*
X146853365Y-82289485D01*
X146853362Y-82289483D01*
X146846916Y-82284537D01*
X146848184Y-82282884D01*
X146807625Y-82240346D01*
X146794404Y-82171738D01*
X146807356Y-82127235D01*
X146886686Y-81971542D01*
X146948970Y-81779851D01*
X146965214Y-81677289D01*
X146980500Y-81580783D01*
X146980500Y-81379216D01*
X146962156Y-81263408D01*
X146948970Y-81180149D01*
X146932113Y-81128268D01*
X146886479Y-80987818D01*
X146884484Y-80917976D01*
X146920565Y-80858144D01*
X146983266Y-80827316D01*
X147004410Y-80825500D01*
X151538258Y-80825500D01*
X151605297Y-80845185D01*
G37*
%TD.AperFunction*%
%TD*%
%TA.AperFunction,NonConductor*%
G36*
X118945554Y-73590837D02*
G01*
X119001488Y-73632708D01*
X119025905Y-73698173D01*
X119024695Y-73726414D01*
X119019500Y-73759219D01*
X119019500Y-73960783D01*
X119051030Y-74159852D01*
X119060714Y-74189659D01*
X119062707Y-74259500D01*
X119030463Y-74315655D01*
X118602181Y-74743938D01*
X118540858Y-74777423D01*
X118471167Y-74772439D01*
X118415233Y-74730568D01*
X118390816Y-74665103D01*
X118390500Y-74656257D01*
X118390500Y-74094741D01*
X118410185Y-74027702D01*
X118426815Y-74007064D01*
X118814543Y-73619336D01*
X118875863Y-73585853D01*
X118945554Y-73590837D01*
G37*
%TD.AperFunction*%
%TA.AperFunction,NonConductor*%
G36*
X147163320Y-73601758D02*
G01*
X147185459Y-73619339D01*
X151718939Y-78152819D01*
X151752424Y-78214142D01*
X151747440Y-78283834D01*
X151705568Y-78339767D01*
X151640104Y-78364184D01*
X151631258Y-78364500D01*
X151234142Y-78364500D01*
X151226677Y-78364497D01*
X151226639Y-78364488D01*
X151208458Y-78364491D01*
X151208106Y-78364491D01*
X151207970Y-78364451D01*
X151156761Y-78364459D01*
X151076446Y-78364472D01*
X150918908Y-78395832D01*
X150770511Y-78457322D01*
X150685766Y-78513960D01*
X150619090Y-78534844D01*
X150551708Y-78516366D01*
X150547985Y-78513974D01*
X150486707Y-78473039D01*
X150463099Y-78457268D01*
X150314664Y-78395806D01*
X150288536Y-78390613D01*
X150157089Y-78364486D01*
X150076761Y-78364500D01*
X146919895Y-78364500D01*
X146852856Y-78344815D01*
X146809410Y-78296795D01*
X146795181Y-78268870D01*
X146676711Y-78105810D01*
X146534190Y-77963289D01*
X146371129Y-77844818D01*
X146244867Y-77780484D01*
X146194072Y-77732510D01*
X146177277Y-77664690D01*
X146199814Y-77598555D01*
X146244868Y-77559515D01*
X146371129Y-77495182D01*
X146534190Y-77376711D01*
X146676711Y-77234190D01*
X146795182Y-77071129D01*
X146886686Y-76891542D01*
X146948970Y-76699851D01*
X146965214Y-76597289D01*
X146980500Y-76500783D01*
X146980500Y-76299216D01*
X146956609Y-76148380D01*
X146948970Y-76100149D01*
X146886686Y-75908458D01*
X146795182Y-75728871D01*
X146676711Y-75565810D01*
X146534190Y-75423289D01*
X146371129Y-75304818D01*
X146244867Y-75240484D01*
X146194072Y-75192510D01*
X146177277Y-75124690D01*
X146199814Y-75058555D01*
X146244868Y-75019515D01*
X146371129Y-74955182D01*
X146534190Y-74836711D01*
X146676711Y-74694190D01*
X146795182Y-74531129D01*
X146886686Y-74351542D01*
X146948970Y-74159851D01*
X146967417Y-74043380D01*
X146980500Y-73960783D01*
X146980500Y-73759217D01*
X146975305Y-73726419D01*
X146984259Y-73657125D01*
X147029255Y-73603673D01*
X147096007Y-73583033D01*
X147163320Y-73601758D01*
G37*
%TD.AperFunction*%
%TA.AperFunction,NonConductor*%
G36*
X119030703Y-76694934D02*
G01*
X119067431Y-76750329D01*
X119113312Y-76891539D01*
X119113314Y-76891542D01*
X119204818Y-77071129D01*
X119323289Y-77234190D01*
X119465810Y-77376711D01*
X119628871Y-77495182D01*
X119696885Y-77529836D01*
X119755131Y-77559515D01*
X119805927Y-77607490D01*
X119822722Y-77675311D01*
X119800184Y-77741446D01*
X119755131Y-77780485D01*
X119628870Y-77844818D01*
X119535838Y-77912410D01*
X119465810Y-77963289D01*
X119465808Y-77963291D01*
X119465807Y-77963291D01*
X119323291Y-78105807D01*
X119323291Y-78105808D01*
X119323289Y-78105810D01*
X119289135Y-78152819D01*
X119204818Y-78268870D01*
X119113312Y-78448460D01*
X119067431Y-78589670D01*
X119027994Y-78647345D01*
X118963635Y-78674544D01*
X118894789Y-78662629D01*
X118843313Y-78615385D01*
X118825500Y-78551352D01*
X118825500Y-76788647D01*
X118845185Y-76721608D01*
X118897989Y-76675853D01*
X118967147Y-76665909D01*
X119030703Y-76694934D01*
G37*
%TD.AperFunction*%
%TA.AperFunction,NonConductor*%
G36*
X121785703Y-68610739D02*
G01*
X121792181Y-68616771D01*
X132413181Y-79237771D01*
X132446666Y-79299094D01*
X132449500Y-79325452D01*
X132449500Y-79328846D01*
X132480261Y-79483489D01*
X132480264Y-79483501D01*
X132488361Y-79503048D01*
X132495830Y-79572517D01*
X132464555Y-79634996D01*
X132404466Y-79670648D01*
X132373800Y-79674500D01*
X121565243Y-79674500D01*
X121498204Y-79654815D01*
X121452449Y-79602011D01*
X121442505Y-79532853D01*
X121454758Y-79494205D01*
X121467300Y-79469587D01*
X121486686Y-79431542D01*
X121548970Y-79239851D01*
X121565214Y-79137289D01*
X121580500Y-79040783D01*
X121580500Y-78839216D01*
X121562156Y-78723408D01*
X121548970Y-78640149D01*
X121497020Y-78480263D01*
X121486687Y-78448460D01*
X121459872Y-78395832D01*
X121395182Y-78268871D01*
X121276711Y-78105810D01*
X121134190Y-77963289D01*
X120971129Y-77844818D01*
X120844867Y-77780484D01*
X120794072Y-77732510D01*
X120777277Y-77664690D01*
X120799814Y-77598555D01*
X120844868Y-77559515D01*
X120971129Y-77495182D01*
X121134190Y-77376711D01*
X121276711Y-77234190D01*
X121395182Y-77071129D01*
X121486686Y-76891542D01*
X121548970Y-76699851D01*
X121565214Y-76597289D01*
X121580500Y-76500783D01*
X121580500Y-76299216D01*
X121556609Y-76148380D01*
X121548970Y-76100149D01*
X121486686Y-75908458D01*
X121395182Y-75728871D01*
X121276711Y-75565810D01*
X121134190Y-75423289D01*
X120971129Y-75304818D01*
X120844867Y-75240484D01*
X120794072Y-75192510D01*
X120777277Y-75124690D01*
X120799814Y-75058555D01*
X120844868Y-75019515D01*
X120971129Y-74955182D01*
X121134190Y-74836711D01*
X121276711Y-74694190D01*
X121395182Y-74531129D01*
X121486686Y-74351542D01*
X121548970Y-74159851D01*
X121567417Y-74043380D01*
X121580500Y-73960783D01*
X121580500Y-73759216D01*
X121558345Y-73619339D01*
X121548970Y-73560149D01*
X121486686Y-73368458D01*
X121395182Y-73188871D01*
X121276711Y-73025810D01*
X121134190Y-72883289D01*
X120971129Y-72764818D01*
X120844867Y-72700484D01*
X120794072Y-72652510D01*
X120777277Y-72584690D01*
X120799814Y-72518555D01*
X120844868Y-72479515D01*
X120971129Y-72415182D01*
X121134190Y-72296711D01*
X121276711Y-72154190D01*
X121395182Y-71991129D01*
X121486686Y-71811542D01*
X121548970Y-71619851D01*
X121565214Y-71517289D01*
X121580500Y-71420783D01*
X121580500Y-71219216D01*
X121558345Y-71079339D01*
X121548970Y-71020149D01*
X121486686Y-70828458D01*
X121395182Y-70648871D01*
X121276711Y-70485810D01*
X121134190Y-70343289D01*
X120971129Y-70224818D01*
X120844867Y-70160484D01*
X120794072Y-70112510D01*
X120777277Y-70044690D01*
X120799814Y-69978555D01*
X120844868Y-69939515D01*
X120971129Y-69875182D01*
X121134190Y-69756711D01*
X121276711Y-69614190D01*
X121395182Y-69451129D01*
X121486686Y-69271542D01*
X121548970Y-69079851D01*
X121565214Y-68977289D01*
X121580500Y-68880783D01*
X121580500Y-68704452D01*
X121600185Y-68637413D01*
X121652989Y-68591658D01*
X121722147Y-68581714D01*
X121785703Y-68610739D01*
G37*
%TD.AperFunction*%
%TA.AperFunction,NonConductor*%
G36*
X119030703Y-79234934D02*
G01*
X119067431Y-79290329D01*
X119113312Y-79431539D01*
X119207030Y-79615470D01*
X119205639Y-79616178D01*
X119222080Y-79676991D01*
X119200955Y-79743590D01*
X119182137Y-79765506D01*
X119172019Y-79774829D01*
X119146635Y-79789485D01*
X119035387Y-79900732D01*
X119033528Y-79902446D01*
X119004385Y-79916846D01*
X118975858Y-79932424D01*
X118973240Y-79932236D01*
X118970889Y-79933399D01*
X118938589Y-79929758D01*
X118906166Y-79927440D01*
X118904065Y-79925867D01*
X118901459Y-79925574D01*
X118876251Y-79905045D01*
X118850233Y-79885568D01*
X118849316Y-79883110D01*
X118847281Y-79881453D01*
X118837172Y-79850550D01*
X118825816Y-79820104D01*
X118825644Y-79815312D01*
X118825558Y-79815047D01*
X118825626Y-79814786D01*
X118825500Y-79811258D01*
X118825500Y-79328647D01*
X118845185Y-79261608D01*
X118897989Y-79215853D01*
X118967147Y-79205909D01*
X119030703Y-79234934D01*
G37*
%TD.AperFunction*%
%TA.AperFunction,NonConductor*%
G36*
X144462629Y-80845185D02*
G01*
X144508384Y-80897989D01*
X144518328Y-80967147D01*
X144513521Y-80987818D01*
X144451030Y-81180147D01*
X144419500Y-81379216D01*
X144419500Y-81580783D01*
X144451030Y-81779852D01*
X144513313Y-81971542D01*
X144524861Y-81994206D01*
X144537757Y-82062875D01*
X144511480Y-82127615D01*
X144454373Y-82167872D01*
X144414376Y-82174500D01*
X121859741Y-82174500D01*
X121792702Y-82154815D01*
X121772060Y-82138181D01*
X121569535Y-81935655D01*
X121536050Y-81874332D01*
X121539284Y-81809658D01*
X121548970Y-81779851D01*
X121548971Y-81779845D01*
X121580500Y-81580783D01*
X121580500Y-81379216D01*
X121562156Y-81263408D01*
X121548970Y-81180149D01*
X121532113Y-81128268D01*
X121486479Y-80987818D01*
X121484484Y-80917976D01*
X121520565Y-80858144D01*
X121583266Y-80827316D01*
X121604410Y-80825500D01*
X144395590Y-80825500D01*
X144462629Y-80845185D01*
G37*
%TD.AperFunction*%
%TA.AperFunction,NonConductor*%
G36*
X144481415Y-83345185D02*
G01*
X144527170Y-83397989D01*
X144537114Y-83467147D01*
X144524861Y-83505794D01*
X144513313Y-83528457D01*
X144451030Y-83720147D01*
X144419500Y-83919216D01*
X144419500Y-84120783D01*
X144451030Y-84319852D01*
X144513521Y-84512182D01*
X144515516Y-84582024D01*
X144479435Y-84641856D01*
X144416734Y-84672684D01*
X144395590Y-84674500D01*
X121819742Y-84674500D01*
X121790301Y-84665855D01*
X121760315Y-84659332D01*
X121755299Y-84655577D01*
X121752703Y-84654815D01*
X121732061Y-84638181D01*
X121569535Y-84475655D01*
X121536050Y-84414332D01*
X121539284Y-84349658D01*
X121548970Y-84319851D01*
X121568567Y-84196123D01*
X121580500Y-84120783D01*
X121580500Y-83919216D01*
X121562156Y-83803408D01*
X121548970Y-83720149D01*
X121486686Y-83528458D01*
X121486686Y-83528457D01*
X121475139Y-83505794D01*
X121462243Y-83437125D01*
X121488520Y-83372385D01*
X121545627Y-83332128D01*
X121585624Y-83325500D01*
X144414376Y-83325500D01*
X144481415Y-83345185D01*
G37*
%TD.AperFunction*%
%TA.AperFunction,NonConductor*%
G36*
X152467297Y-79535185D02*
G01*
X152487939Y-79551819D01*
X158231172Y-85295052D01*
X158232490Y-85297467D01*
X158234847Y-85298888D01*
X158249136Y-85327951D01*
X158264657Y-85356375D01*
X158264460Y-85359119D01*
X158265675Y-85361589D01*
X158261983Y-85393761D01*
X158259673Y-85426067D01*
X158258023Y-85428270D01*
X158257710Y-85431003D01*
X158237206Y-85456077D01*
X158217801Y-85482000D01*
X158214692Y-85483612D01*
X158213482Y-85485092D01*
X158181809Y-85500664D01*
X158035750Y-85548121D01*
X157965909Y-85550116D01*
X157909751Y-85517871D01*
X152181367Y-79789487D01*
X152181365Y-79789485D01*
X152107582Y-79746886D01*
X152059368Y-79696320D01*
X152046146Y-79627712D01*
X152072114Y-79562848D01*
X152129028Y-79522320D01*
X152169584Y-79515500D01*
X152400258Y-79515500D01*
X152467297Y-79535185D01*
G37*
%TD.AperFunction*%
%TA.AperFunction,NonConductor*%
G36*
X142080098Y-85845185D02*
G01*
X142125853Y-85897989D01*
X142135797Y-85967147D01*
X142106772Y-86030703D01*
X142100740Y-86037181D01*
X142088213Y-86049707D01*
X142088210Y-86049711D01*
X142000609Y-86180814D01*
X142000602Y-86180827D01*
X141940264Y-86326498D01*
X141940261Y-86326510D01*
X141909500Y-86481153D01*
X141909500Y-86638846D01*
X141940261Y-86793489D01*
X141940264Y-86793501D01*
X142000602Y-86939172D01*
X142000612Y-86939190D01*
X142028956Y-86981610D01*
X142049834Y-87048287D01*
X142031349Y-87115667D01*
X141979370Y-87162357D01*
X141925854Y-87174500D01*
X121779742Y-87174500D01*
X121750301Y-87165855D01*
X121720315Y-87159332D01*
X121715299Y-87155577D01*
X121712703Y-87154815D01*
X121692061Y-87138181D01*
X121569535Y-87015655D01*
X121536050Y-86954332D01*
X121539284Y-86889658D01*
X121548970Y-86859851D01*
X121551495Y-86843908D01*
X121580500Y-86660783D01*
X121580500Y-86459216D01*
X121561861Y-86341539D01*
X121548970Y-86260149D01*
X121498525Y-86104894D01*
X121486687Y-86068460D01*
X121454758Y-86005795D01*
X121441862Y-85937125D01*
X121468139Y-85872385D01*
X121525245Y-85832128D01*
X121565243Y-85825500D01*
X142013059Y-85825500D01*
X142080098Y-85845185D01*
G37*
%TD.AperFunction*%
%TA.AperFunction,NonConductor*%
G36*
X147111975Y-84196123D02*
G01*
X147163029Y-84226909D01*
X152148939Y-89212819D01*
X152182424Y-89274142D01*
X152177440Y-89343834D01*
X152135568Y-89399767D01*
X152070104Y-89424184D01*
X152061258Y-89424500D01*
X151539742Y-89424500D01*
X151472703Y-89404815D01*
X151452061Y-89388181D01*
X146847618Y-84783738D01*
X146849518Y-84781837D01*
X146816116Y-84736077D01*
X146811973Y-84666330D01*
X146822327Y-84637853D01*
X146886686Y-84511542D01*
X146948970Y-84319851D01*
X146952875Y-84295191D01*
X146982802Y-84232060D01*
X147042113Y-84195127D01*
X147111975Y-84196123D01*
G37*
%TD.AperFunction*%
%TA.AperFunction,NonConductor*%
G36*
X147093126Y-89206637D02*
G01*
X147122917Y-89207063D01*
X147128064Y-89210167D01*
X147133003Y-89210666D01*
X147145896Y-89220920D01*
X147173968Y-89237848D01*
X147398939Y-89462819D01*
X147432424Y-89524142D01*
X147427440Y-89593834D01*
X147385568Y-89649767D01*
X147320104Y-89674184D01*
X147311258Y-89674500D01*
X147030403Y-89674500D01*
X147007468Y-89667765D01*
X146983687Y-89665363D01*
X146974556Y-89658101D01*
X146963364Y-89654815D01*
X146947713Y-89636753D01*
X146929003Y-89621873D01*
X146925247Y-89610825D01*
X146917609Y-89602011D01*
X146914207Y-89578354D01*
X146906513Y-89555722D01*
X146908678Y-89539900D01*
X146907665Y-89532853D01*
X146910060Y-89520606D01*
X146911116Y-89516351D01*
X146948970Y-89399851D01*
X146964653Y-89300832D01*
X146965944Y-89295635D01*
X146980981Y-89269915D01*
X146993743Y-89242996D01*
X146998426Y-89240079D01*
X147001210Y-89235319D01*
X147027762Y-89221813D01*
X147053055Y-89206065D01*
X147058570Y-89206143D01*
X147063487Y-89203643D01*
X147093126Y-89206637D01*
G37*
%TD.AperFunction*%
%TA.AperFunction,NonConductor*%
G36*
X144522177Y-88345185D02*
G01*
X144567932Y-88397989D01*
X144577876Y-88467147D01*
X144565623Y-88505795D01*
X144513312Y-88608460D01*
X144451030Y-88800147D01*
X144419500Y-88999216D01*
X144419500Y-89200783D01*
X144451030Y-89399852D01*
X144487528Y-89512182D01*
X144489523Y-89582023D01*
X144453443Y-89641856D01*
X144390742Y-89672684D01*
X144369597Y-89674500D01*
X121739742Y-89674500D01*
X121710301Y-89665855D01*
X121680315Y-89659332D01*
X121675299Y-89655577D01*
X121672703Y-89654815D01*
X121652061Y-89638181D01*
X121569535Y-89555655D01*
X121536050Y-89494332D01*
X121539284Y-89429658D01*
X121548970Y-89399851D01*
X121557842Y-89343834D01*
X121580500Y-89200783D01*
X121580500Y-88999216D01*
X121562156Y-88883408D01*
X121548970Y-88800149D01*
X121507878Y-88673681D01*
X121486687Y-88608460D01*
X121434377Y-88505795D01*
X121421481Y-88437125D01*
X121447758Y-88372385D01*
X121504864Y-88332128D01*
X121544862Y-88325500D01*
X144455138Y-88325500D01*
X144522177Y-88345185D01*
G37*
%TD.AperFunction*%
%TA.AperFunction,NonConductor*%
G36*
X147117446Y-86701592D02*
G01*
X147168498Y-86732378D01*
X150148939Y-89712819D01*
X150182424Y-89774142D01*
X150177440Y-89843834D01*
X150135568Y-89899767D01*
X150070104Y-89924184D01*
X150061258Y-89924500D01*
X149539742Y-89924500D01*
X149472703Y-89904815D01*
X149452061Y-89888181D01*
X146858827Y-87294947D01*
X146825342Y-87233624D01*
X146830326Y-87163932D01*
X146836017Y-87150984D01*
X146886686Y-87051542D01*
X146948970Y-86859851D01*
X146958345Y-86800658D01*
X146988272Y-86737528D01*
X147047583Y-86700596D01*
X147117446Y-86701592D01*
G37*
%TD.AperFunction*%
%TA.AperFunction,NonConductor*%
G36*
X165530703Y-92461942D02*
G01*
X165550002Y-92485893D01*
X165550888Y-92485231D01*
X165642452Y-92607544D01*
X165642455Y-92607547D01*
X165757664Y-92693793D01*
X165765454Y-92698047D01*
X165763725Y-92701211D01*
X165805915Y-92732734D01*
X165830393Y-92798175D01*
X165815604Y-92866462D01*
X165807036Y-92880021D01*
X165717084Y-93003829D01*
X165609897Y-93214195D01*
X165567431Y-93344894D01*
X165527993Y-93402569D01*
X165463634Y-93429767D01*
X165394788Y-93417852D01*
X165343312Y-93370608D01*
X165325500Y-93306575D01*
X165325500Y-92555655D01*
X165345185Y-92488616D01*
X165397989Y-92442861D01*
X165467147Y-92432917D01*
X165530703Y-92461942D01*
G37*
%TD.AperFunction*%
%TA.AperFunction,NonConductor*%
G36*
X119030703Y-91934934D02*
G01*
X119067431Y-91990329D01*
X119113312Y-92131539D01*
X119113314Y-92131542D01*
X119204818Y-92311129D01*
X119323289Y-92474190D01*
X119465810Y-92616711D01*
X119628871Y-92735182D01*
X119696885Y-92769836D01*
X119755131Y-92799515D01*
X119805927Y-92847490D01*
X119822722Y-92915311D01*
X119800184Y-92981446D01*
X119755131Y-93020485D01*
X119628870Y-93084818D01*
X119535838Y-93152410D01*
X119465810Y-93203289D01*
X119465808Y-93203291D01*
X119465807Y-93203291D01*
X119323291Y-93345807D01*
X119323291Y-93345808D01*
X119323289Y-93345810D01*
X119282051Y-93402569D01*
X119204818Y-93508870D01*
X119113312Y-93688460D01*
X119067431Y-93829670D01*
X119027994Y-93887345D01*
X118963635Y-93914544D01*
X118894789Y-93902629D01*
X118843313Y-93855385D01*
X118825500Y-93791352D01*
X118825500Y-92028647D01*
X118845185Y-91961608D01*
X118897989Y-91915853D01*
X118967147Y-91905909D01*
X119030703Y-91934934D01*
G37*
%TD.AperFunction*%
%TA.AperFunction,NonConductor*%
G36*
X164780703Y-94925029D02*
G01*
X164787181Y-94931061D01*
X165555870Y-95699750D01*
X165589355Y-95761073D01*
X165586120Y-95825748D01*
X165536448Y-95978623D01*
X165536447Y-95978630D01*
X165499500Y-96211902D01*
X165499500Y-96256258D01*
X165479815Y-96323297D01*
X165427011Y-96369052D01*
X165357853Y-96378996D01*
X165294297Y-96349971D01*
X165287819Y-96343939D01*
X164611819Y-95667939D01*
X164578334Y-95606616D01*
X164575500Y-95580258D01*
X164575500Y-95018742D01*
X164595185Y-94951703D01*
X164647989Y-94905948D01*
X164717147Y-94896004D01*
X164780703Y-94925029D01*
G37*
%TD.AperFunction*%
%TA.AperFunction,NonConductor*%
G36*
X119030703Y-94474934D02*
G01*
X119067431Y-94530329D01*
X119113312Y-94671539D01*
X119193155Y-94828239D01*
X119204818Y-94851129D01*
X119323289Y-95014190D01*
X119465810Y-95156711D01*
X119628871Y-95275182D01*
X119696885Y-95309836D01*
X119755131Y-95339515D01*
X119805927Y-95387490D01*
X119822722Y-95455311D01*
X119800184Y-95521446D01*
X119755131Y-95560485D01*
X119628870Y-95624818D01*
X119564597Y-95671516D01*
X119465810Y-95743289D01*
X119465808Y-95743291D01*
X119465807Y-95743291D01*
X119323291Y-95885807D01*
X119323291Y-95885808D01*
X119323289Y-95885810D01*
X119318439Y-95892486D01*
X119204818Y-96048870D01*
X119113312Y-96228460D01*
X119067431Y-96369670D01*
X119027994Y-96427345D01*
X118963635Y-96454544D01*
X118894789Y-96442629D01*
X118843313Y-96395385D01*
X118825500Y-96331352D01*
X118825500Y-94568647D01*
X118845185Y-94501608D01*
X118897989Y-94455853D01*
X118967147Y-94445909D01*
X119030703Y-94474934D01*
G37*
%TD.AperFunction*%
%TA.AperFunction,NonConductor*%
G36*
X118981784Y-102072593D02*
G01*
X118997770Y-102074428D01*
X119012911Y-102086808D01*
X119030703Y-102094934D01*
X119040004Y-102108962D01*
X119051859Y-102118656D01*
X119067431Y-102150329D01*
X119113312Y-102291539D01*
X119162213Y-102387512D01*
X119204818Y-102471129D01*
X119323289Y-102634190D01*
X119465810Y-102776711D01*
X119628871Y-102895182D01*
X119696885Y-102929836D01*
X119755131Y-102959515D01*
X119805927Y-103007490D01*
X119822722Y-103075311D01*
X119800184Y-103141446D01*
X119755131Y-103180485D01*
X119628870Y-103244818D01*
X119535838Y-103312410D01*
X119465810Y-103363289D01*
X119465808Y-103363291D01*
X119465807Y-103363291D01*
X119323291Y-103505807D01*
X119323291Y-103505808D01*
X119323289Y-103505810D01*
X119272410Y-103575838D01*
X119204818Y-103668870D01*
X119113312Y-103848460D01*
X119067431Y-103989670D01*
X119027994Y-104047345D01*
X118963635Y-104074544D01*
X118894789Y-104062629D01*
X118843313Y-104015385D01*
X118825500Y-103951352D01*
X118825500Y-102188647D01*
X118830033Y-102173207D01*
X118829574Y-102157124D01*
X118839674Y-102140374D01*
X118845185Y-102121608D01*
X118857345Y-102111071D01*
X118865655Y-102097291D01*
X118883208Y-102088660D01*
X118897989Y-102075853D01*
X118913915Y-102073563D01*
X118928356Y-102066463D01*
X118947787Y-102068692D01*
X118967147Y-102065909D01*
X118981784Y-102072593D01*
G37*
%TD.AperFunction*%
%TA.AperFunction,NonConductor*%
G36*
X119030703Y-104634934D02*
G01*
X119067431Y-104690329D01*
X119113312Y-104831539D01*
X119162213Y-104927512D01*
X119204818Y-105011129D01*
X119323289Y-105174190D01*
X119465810Y-105316711D01*
X119628871Y-105435182D01*
X119696885Y-105469836D01*
X119755131Y-105499515D01*
X119805927Y-105547490D01*
X119822722Y-105615311D01*
X119800184Y-105681446D01*
X119755131Y-105720485D01*
X119628870Y-105784818D01*
X119535838Y-105852410D01*
X119465810Y-105903289D01*
X119465808Y-105903291D01*
X119465807Y-105903291D01*
X119323291Y-106045807D01*
X119323291Y-106045808D01*
X119323289Y-106045810D01*
X119303107Y-106073588D01*
X119204818Y-106208870D01*
X119113312Y-106388460D01*
X119067431Y-106529670D01*
X119027994Y-106587345D01*
X118963635Y-106614544D01*
X118894789Y-106602629D01*
X118843313Y-106555385D01*
X118825500Y-106491352D01*
X118825500Y-104728647D01*
X118845185Y-104661608D01*
X118897989Y-104615853D01*
X118967147Y-104605909D01*
X119030703Y-104634934D01*
G37*
%TD.AperFunction*%
%TA.AperFunction,NonConductor*%
G36*
X118981784Y-107152593D02*
G01*
X118997770Y-107154428D01*
X119012911Y-107166808D01*
X119030703Y-107174934D01*
X119040004Y-107188962D01*
X119051859Y-107198656D01*
X119067431Y-107230329D01*
X119113312Y-107371539D01*
X119162213Y-107467512D01*
X119204818Y-107551129D01*
X119323289Y-107714190D01*
X119465810Y-107856711D01*
X119628871Y-107975182D01*
X119696885Y-108009836D01*
X119755131Y-108039515D01*
X119805927Y-108087490D01*
X119822722Y-108155311D01*
X119800184Y-108221446D01*
X119755131Y-108260485D01*
X119628870Y-108324818D01*
X119535838Y-108392410D01*
X119465810Y-108443289D01*
X119465808Y-108443291D01*
X119465807Y-108443291D01*
X119323291Y-108585807D01*
X119323291Y-108585808D01*
X119323289Y-108585810D01*
X119303107Y-108613588D01*
X119204818Y-108748870D01*
X119113312Y-108928460D01*
X119067431Y-109069670D01*
X119027994Y-109127345D01*
X118963635Y-109154544D01*
X118894789Y-109142629D01*
X118843313Y-109095385D01*
X118825500Y-109031352D01*
X118825500Y-107268647D01*
X118830033Y-107253207D01*
X118829574Y-107237124D01*
X118839674Y-107220374D01*
X118845185Y-107201608D01*
X118857345Y-107191071D01*
X118865655Y-107177291D01*
X118883208Y-107168660D01*
X118897989Y-107155853D01*
X118913915Y-107153563D01*
X118928356Y-107146463D01*
X118947787Y-107148692D01*
X118967147Y-107145909D01*
X118981784Y-107152593D01*
G37*
%TD.AperFunction*%
%TA.AperFunction,NonConductor*%
G36*
X119030703Y-109714934D02*
G01*
X119067431Y-109770329D01*
X119113312Y-109911539D01*
X119164390Y-110011784D01*
X119204818Y-110091129D01*
X119323289Y-110254190D01*
X119465810Y-110396711D01*
X119628871Y-110515182D01*
X119696885Y-110549836D01*
X119755131Y-110579515D01*
X119805927Y-110627490D01*
X119822722Y-110695311D01*
X119800184Y-110761446D01*
X119755131Y-110800485D01*
X119628870Y-110864818D01*
X119583215Y-110897989D01*
X119465810Y-110983289D01*
X119465808Y-110983291D01*
X119465807Y-110983291D01*
X119323291Y-111125807D01*
X119323291Y-111125808D01*
X119323289Y-111125810D01*
X119289730Y-111172000D01*
X119204818Y-111288870D01*
X119113312Y-111468460D01*
X119067431Y-111609670D01*
X119027994Y-111667345D01*
X118963635Y-111694544D01*
X118894789Y-111682629D01*
X118843313Y-111635385D01*
X118825500Y-111571352D01*
X118825500Y-109808647D01*
X118845185Y-109741608D01*
X118897989Y-109695853D01*
X118967147Y-109685909D01*
X119030703Y-109714934D01*
G37*
%TD.AperFunction*%
M02*
